<svg width="1675" height="648" viewBox="0 0 1675 648" fill="none" xmlns="http://www.w3.org/2000/svg">
<rect width="1440" height="648" transform="translate(112.815)" fill="#84B000"/>
<g opacity="0.05">
<path d="M187.82 251.35V422.9C187.82 503.565 130.15 518.53 94.3804 518.53C36.3454 518.53 0.94043 472.175 0.94043 415.6L54.5954 411.585C54.5954 444.8 70.6554 468.16 96.5704 468.16C124.675 468.16 132.705 449.545 132.705 416.33V251.35H187.82Z" fill="url(#paint0_linear_3519_12159)"/>
<path d="M209.715 379.465C209.715 304.275 262.64 243.32 343.305 243.32C423.97 243.32 477.26 304.275 477.26 379.465C477.26 455.385 423.97 518.53 343.305 518.53C262.64 518.53 209.715 455.385 209.715 379.465ZM267.385 379.465C267.385 426.915 295.49 464.875 343.305 464.875C391.12 464.875 419.59 426.915 419.59 379.465C419.59 330.92 391.12 295.88 343.305 295.88C295.49 295.88 267.385 330.92 267.385 379.465Z" fill="url(#paint1_linear_3519_12159)"/>
<path d="M606.915 517.8C509.095 517.8 504.715 445.895 504.715 405.015V250.985H560.56V372.895C560.56 451.37 570.05 467.795 606.915 467.795C644.51 467.795 655.095 451.37 655.095 372.895V251.715H710.94V405.015C710.94 445.895 706.56 517.8 606.915 517.8Z" fill="url(#paint2_linear_3519_12159)"/>
<path d="M917.059 448.815C917.059 468.89 948.084 466.7 948.084 466.7V513.42C906.109 513.42 861.579 506.85 861.579 463.05V453.925C861.579 437.865 850.264 421.805 823.254 421.805H791.864V510.5H736.384V251.35H840.774C897.349 251.35 946.624 273.615 946.624 329.46C946.624 400.27 879.464 400.27 856.834 400.27V406.11C893.699 406.475 917.059 413.045 917.059 437.5V448.815ZM832.744 378.005C865.229 378.005 889.684 369.245 889.684 340.045C889.684 311.575 869.244 300.26 832.744 300.26H791.864V378.005H832.744Z" fill="url(#paint3_linear_3519_12159)"/>
<path d="M1151.69 251.35H1206.81V510.5H1125.41L1021.39 324.35V510.5H966.636V251.35H1042.92L1151.69 445.53V251.35Z" fill="url(#paint4_linear_3519_12159)"/>
<path d="M1430.22 510.5L1408.69 441.515H1306.85L1284.95 510.5H1225.09L1316.71 251.35H1399.56L1490.08 510.5H1430.22ZM1322.18 393.335H1393.72L1365.25 301.72C1361.97 284.565 1360.87 268.14 1360.87 268.14H1355.4C1355.4 268.14 1354.3 284.565 1351.02 301.72L1322.18 393.335Z" fill="url(#paint5_linear_3519_12159)"/>
<path d="M1556.94 461.225H1674.47V510.5H1501.46V251.35H1557.31L1556.94 461.225Z" fill="url(#paint6_linear_3519_12159)"/>
</g>
<defs>
<linearGradient id="paint0_linear_3519_12159" x1="1683.82" y1="403" x2="-8.18457" y2="403" gradientUnits="userSpaceOnUse">
<stop offset="0.401482"/>
<stop offset="0.937635" stop-opacity="0.5"/>
</linearGradient>
<linearGradient id="paint1_linear_3519_12159" x1="1683.82" y1="403" x2="-8.18457" y2="403" gradientUnits="userSpaceOnUse">
<stop offset="0.401482"/>
<stop offset="0.937635" stop-opacity="0.5"/>
</linearGradient>
<linearGradient id="paint2_linear_3519_12159" x1="1683.82" y1="403" x2="-8.18457" y2="403" gradientUnits="userSpaceOnUse">
<stop offset="0.401482"/>
<stop offset="0.937635" stop-opacity="0.5"/>
</linearGradient>
<linearGradient id="paint3_linear_3519_12159" x1="1683.82" y1="403" x2="-8.18457" y2="403" gradientUnits="userSpaceOnUse">
<stop offset="0.401482"/>
<stop offset="0.937635" stop-opacity="0.5"/>
</linearGradient>
<linearGradient id="paint4_linear_3519_12159" x1="1683.82" y1="403" x2="-8.18457" y2="403" gradientUnits="userSpaceOnUse">
<stop offset="0.401482"/>
<stop offset="0.937635" stop-opacity="0.5"/>
</linearGradient>
<linearGradient id="paint5_linear_3519_12159" x1="1683.82" y1="403" x2="-8.18457" y2="403" gradientUnits="userSpaceOnUse">
<stop offset="0.401482"/>
<stop offset="0.937635" stop-opacity="0.5"/>
</linearGradient>
<linearGradient id="paint6_linear_3519_12159" x1="1683.82" y1="403" x2="-8.18457" y2="403" gradientUnits="userSpaceOnUse">
<stop offset="0.401482"/>
<stop offset="0.937635" stop-opacity="0.5"/>
</linearGradient>
</defs>
</svg>
