<svg width="68" height="83" viewBox="0 0 68 83" fill="none" xmlns="http://www.w3.org/2000/svg">
<path d="M67.2225 76.8064C67.6679 76.4798 67.7642 75.854 67.4376 75.4086L62.1154 68.1509C61.7888 67.7056 61.163 67.6093 60.7176 67.9359C60.2722 68.2625 60.176 68.8883 60.5026 69.3336L65.2334 75.7849L58.7821 80.5158C58.3367 80.8424 58.2404 81.4682 58.567 81.9135C58.8936 82.3589 59.5194 82.4552 59.9648 82.1286L67.2225 76.8064ZM40.6312 1C40.5004 0.0085845 40.5003 0.00859416 40.5003 0.00860482C40.5002 0.00860965 40.5001 0.00862128 40.5001 0.00863099C40.4999 0.0086503 40.4997 0.00867355 40.4995 0.00870067C40.4991 0.00875491 40.4986 0.00882465 40.4979 0.00891C40.4967 0.00908071 40.4949 0.00931376 40.4927 0.00960988C40.4883 0.0102021 40.482 0.0110462 40.474 0.0121471C40.4578 0.0143488 40.4344 0.0175775 40.4039 0.0218713C40.3429 0.0304586 40.2536 0.0433069 40.1377 0.0607201C39.906 0.0955448 39.5676 0.148639 39.1358 0.222436C38.2722 0.370009 37.0342 0.600506 35.5267 0.93347L35.9581 2.8864C37.4305 2.56117 38.6368 2.3367 39.4727 2.19386C39.8906 2.12244 40.2157 2.07146 40.4349 2.03852C40.5445 2.02205 40.6277 2.01009 40.6827 2.00233C40.7103 1.99846 40.7308 1.99564 40.744 1.99383C40.7507 1.99293 40.7555 1.99228 40.7585 1.99187C40.76 1.99167 40.761 1.99154 40.7616 1.99146C40.7619 1.99142 40.762 1.9914 40.7621 1.99139C40.7621 1.99139 40.7621 1.99139 40.7621 1.99139C40.7621 1.99139 40.762 1.9914 40.762 1.9914C40.762 1.99141 40.7619 1.99142 40.6312 1ZM25.7955 3.69424C22.7833 4.75312 19.5856 6.08933 16.5055 7.761L17.4595 9.5188C20.4257 7.90896 23.5219 6.61345 26.4588 5.58105L25.7955 3.69424ZM8.1456 13.6289C5.61011 15.976 3.45826 18.7195 2.00321 21.9167L3.82356 22.7451C5.14808 19.8348 7.12346 17.3005 9.50426 15.0965L8.1456 13.6289ZM0.011443 32.0711C0.0608227 33.711 0.270873 35.4237 0.658283 37.2118L2.61293 36.7882C2.24988 35.1126 2.05603 33.5216 2.01054 32.0109L0.011443 32.0711ZM0.658283 37.2118C1.02773 38.9169 1.55853 40.5553 2.23093 42.1285L4.06998 41.3424C3.44557 39.8816 2.95442 38.3643 2.61293 36.7882L0.658283 37.2118ZM7.75096 50.7335C9.93204 53.2244 12.4768 55.4956 15.2536 57.5631L16.448 55.9589C13.7624 53.9593 11.3272 51.7818 9.25565 49.416L7.75096 50.7335ZM23.7734 62.9678C26.7217 64.5762 29.7779 66.0211 32.836 67.3146L33.6151 65.4726C30.6078 64.2006 27.6125 62.7839 24.7312 61.212L23.7734 62.9678ZM42.2169 70.8564C45.6025 71.9965 48.8542 72.956 51.8152 73.7522L52.3345 71.8208C49.4074 71.0337 46.1959 70.086 42.8552 68.961L42.2169 70.8564ZM61.5644 76.0711C63.0943 76.3869 64.3196 76.6157 65.1639 76.7658C65.5861 76.8408 65.9132 76.8962 66.1355 76.9329C66.2467 76.9513 66.3317 76.965 66.3894 76.9742C66.4182 76.9788 66.4402 76.9823 66.4552 76.9846C66.4627 76.9858 66.4684 76.9867 66.4724 76.9873C66.4744 76.9876 66.476 76.9879 66.4771 76.988C66.4776 76.9881 66.4781 76.9882 66.4784 76.9883C66.4786 76.9883 66.4787 76.9883 66.4788 76.9883C66.4789 76.9883 66.479 76.9883 66.479 76.9883C66.479 76.9883 66.4791 76.9884 66.6312 76C66.7832 75.0116 66.7833 75.0116 66.7833 75.0116H66.7833C66.7833 75.0116 66.7833 75.0116 66.7832 75.0116C66.7831 75.0116 66.7829 75.0116 66.7826 75.0115C66.7819 75.0114 66.7808 75.0112 66.7792 75.011C66.7761 75.0105 66.7713 75.0098 66.7647 75.0087C66.7515 75.0067 66.7313 75.0035 66.7043 74.9992C66.6503 74.9906 66.569 74.9774 66.4617 74.9597C66.2469 74.9242 65.9278 74.8702 65.5139 74.7966C64.686 74.6495 63.479 74.4242 61.9687 74.1124L61.5644 76.0711Z" fill="#0E4510"/>
</svg>
