<svg width="358" height="264" viewBox="0 0 358 264" fill="none" xmlns="http://www.w3.org/2000/svg">
<g clip-path="url(#clip0_1547_3829)">
<rect width="358" height="264" fill="white"/>
<mask id="path-1-inside-1_1547_3829" fill="white">
<path d="M0 5.78572C0 2.59035 2.59035 0 5.78571 0H209.443C212.638 0 215.229 2.59035 215.229 5.78571V124.971C215.229 128.167 212.638 130.757 209.443 130.757H5.78572C2.59036 130.757 0 128.167 0 124.971V5.78572Z"/>
</mask>
<path d="M0 5.78572C0 2.59035 2.59035 0 5.78571 0H209.443C212.638 0 215.229 2.59035 215.229 5.78571V124.971C215.229 128.167 212.638 130.757 209.443 130.757H5.78572C2.59036 130.757 0 128.167 0 124.971V5.78572Z" fill="#E0F4FF"/>
<path d="M0 0H215.229H0ZM215.229 130.757H0H215.229ZM5.78571 130.757C-0.605009 130.757 -5.78571 125.576 -5.78571 119.186V11.5714C-5.78571 5.18071 -0.605009 0 5.78571 0C5.78571 0 5.78571 2.59035 5.78571 5.78571V124.971C5.78571 128.167 5.78571 130.757 5.78571 130.757ZM215.229 0V130.757V0Z" fill="#0069BA" mask="url(#path-1-inside-1_1547_3829)"/>
<path d="M22.9988 44.8272V43.1835L28.8174 33.9921H30.1126V36.4116H29.2908L25.129 42.9994V43.1046H33.1041V44.8272H22.9988ZM29.3828 47.457V44.3275L29.396 43.578V33.9921H31.3224V47.457H29.3828ZM35.9763 45.7871C35.6169 45.7871 35.3079 45.66 35.0493 45.4057C34.7907 45.1471 34.6614 44.8359 34.6614 44.4721C34.6614 44.1127 34.7907 43.8059 35.0493 43.5517C35.3079 43.2931 35.6169 43.1638 35.9763 43.1638C36.3357 43.1638 36.6447 43.2931 36.9033 43.5517C37.162 43.8059 37.2913 44.1127 37.2913 44.4721C37.2913 44.7132 37.2299 44.9345 37.1072 45.1362C36.9888 45.3334 36.831 45.4912 36.6338 45.6095C36.4365 45.7279 36.2174 45.7871 35.9763 45.7871ZM35.9763 39.0414C35.6169 39.0414 35.3079 38.9143 35.0493 38.6601C34.7907 38.4015 34.6614 38.0903 34.6614 37.7265C34.6614 37.3671 34.7907 37.0603 35.0493 36.8061C35.3079 36.5475 35.6169 36.4182 35.9763 36.4182C36.3357 36.4182 36.6447 36.5475 36.9033 36.8061C37.162 37.0603 37.2913 37.3671 37.2913 37.7265C37.2913 37.9676 37.2299 38.1889 37.1072 38.3906C36.9888 38.5878 36.831 38.7456 36.6338 38.8639C36.4365 38.9823 36.2174 39.0414 35.9763 39.0414ZM43.8453 47.6806C42.8065 47.6762 41.9189 47.4022 41.1825 46.8587C40.4462 46.3152 39.8829 45.5241 39.4928 44.4853C39.1028 43.4465 38.9077 42.1951 38.9077 40.7311C38.9077 39.2716 39.1028 38.0246 39.4928 36.9901C39.8873 35.9557 40.4528 35.1668 41.1891 34.6233C41.9299 34.0798 42.8153 33.808 43.8453 33.808C44.8753 33.808 45.7585 34.0819 46.4949 34.6298C47.2312 35.1733 47.7945 35.9623 48.1846 36.9967C48.579 38.0268 48.7763 39.2716 48.7763 40.7311C48.7763 42.1995 48.5812 43.4531 48.1911 44.4919C47.801 45.5263 47.2378 46.3174 46.5015 46.8653C45.7651 47.4088 44.8797 47.6806 43.8453 47.6806ZM43.8453 45.9251C44.757 45.9251 45.4692 45.4802 45.9821 44.5905C46.4993 43.7007 46.7579 42.4143 46.7579 40.7311C46.7579 39.6134 46.6395 38.6689 46.4028 37.8975C46.1705 37.1216 45.8352 36.5343 45.3969 36.1354C44.963 35.7322 44.4458 35.5306 43.8453 35.5306C42.938 35.5306 42.2257 35.9776 41.7085 36.8718C41.1913 37.766 40.9305 39.0524 40.9261 40.7311C40.9261 41.8532 41.0423 42.8022 41.2746 43.578C41.5113 44.3494 41.8466 44.9345 42.2805 45.3334C42.7144 45.7279 43.236 45.9251 43.8453 45.9251ZM55.0558 47.6806C54.017 47.6762 53.1294 47.4022 52.3931 46.8587C51.6567 46.3152 51.0935 45.5241 50.7034 44.4853C50.3133 43.4465 50.1182 42.1951 50.1182 40.7311C50.1182 39.2716 50.3133 38.0246 50.7034 36.9901C51.0979 35.9557 51.6633 35.1668 52.3997 34.6233C53.1404 34.0798 54.0258 33.808 55.0558 33.808C56.0859 33.808 56.9691 34.0819 57.7054 34.6298C58.4418 35.1733 59.005 35.9623 59.3951 36.9967C59.7896 38.0268 59.9868 39.2716 59.9868 40.7311C59.9868 42.1995 59.7918 43.4531 59.4017 44.4919C59.0116 45.5263 58.4484 46.3174 57.712 46.8653C56.9756 47.4088 56.0902 47.6806 55.0558 47.6806ZM55.0558 45.9251C55.9675 45.9251 56.6798 45.4802 57.1926 44.5905C57.7098 43.7007 57.9684 42.4143 57.9684 40.7311C57.9684 39.6134 57.8501 38.6689 57.6134 37.8975C57.3811 37.1216 57.0458 36.5343 56.6075 36.1354C56.1735 35.7322 55.6563 35.5306 55.0558 35.5306C54.1485 35.5306 53.4363 35.9776 52.9191 36.8718C52.4019 37.766 52.1411 39.0524 52.1367 40.7311C52.1367 41.8532 52.2528 42.8022 52.4851 43.578C52.7218 44.3494 53.0571 44.9345 53.4911 45.3334C53.925 45.7279 54.4466 45.9251 55.0558 45.9251ZM65.9219 47.457V33.9921H70.7214C71.769 33.9921 72.6369 34.1828 73.325 34.5641C74.0132 34.9454 74.5282 35.467 74.8701 36.1289C75.2119 36.7863 75.3829 37.5271 75.3829 38.3511C75.3829 39.1795 75.2098 39.9246 74.8635 40.5865C74.5216 41.244 74.0044 41.7656 73.3119 42.1513C72.6237 42.5326 71.758 42.7233 70.7149 42.7233H67.4144V41.0007H70.5308C71.1926 41.0007 71.7296 40.8867 72.1416 40.6588C72.5536 40.4265 72.856 40.1109 73.0489 39.7121C73.2417 39.3132 73.3382 38.8595 73.3382 38.3511C73.3382 37.8427 73.2417 37.3912 73.0489 36.9967C72.856 36.6022 72.5514 36.2932 72.135 36.0697C71.723 35.8462 71.1795 35.7344 70.5045 35.7344H67.9535V47.457H65.9219ZM77.024 33.9921H79.4895L83.7762 44.459H83.934L88.2207 33.9921H90.6862V47.457H88.7532V37.7134H88.6283L84.6572 47.4373H83.053L79.0819 37.7068H78.9569V47.457H77.024V33.9921Z" fill="#0069BA"/>
<path d="M23.1566 63.9921H26.6675L30.3756 73.0388H30.5334L34.2415 63.9921H37.7524V77.457H34.991V68.693H34.8793L31.3947 77.3913H29.5143L26.0298 68.6601H25.918V77.457H23.1566V63.9921ZM38.8445 66.3393V63.9921H49.9031V66.3393H45.7808V77.457H42.9668V66.3393H38.8445ZM59.3007 63.9921H62.1475V72.7364C62.1475 73.7182 61.913 74.5773 61.444 75.3137C60.9794 76.0501 60.3285 76.6242 59.4914 77.0363C58.6542 77.4439 57.6789 77.6477 56.5656 77.6477C55.4479 77.6477 54.4705 77.4439 53.6333 77.0363C52.7962 76.6242 52.1453 76.0501 51.6807 75.3137C51.216 74.5773 50.9837 73.7182 50.9837 72.7364V63.9921H53.8306V72.4932C53.8306 73.006 53.9423 73.4618 54.1659 73.8607C54.3938 74.2595 54.7138 74.5729 55.1258 74.8009C55.5378 75.0288 56.0177 75.1427 56.5656 75.1427C57.1179 75.1427 57.5979 75.0288 58.0055 74.8009C58.4175 74.5729 58.7353 74.2595 58.9588 73.8607C59.1867 73.4618 59.3007 73.006 59.3007 72.4932V63.9921ZM67.2937 77.457V63.9921H72.606C73.6273 63.9921 74.4973 64.1871 75.2162 64.5772C75.935 64.963 76.4829 65.4999 76.8598 66.188C77.2412 66.8718 77.4318 67.6608 77.4318 68.5549C77.4318 69.4491 77.239 70.238 76.8532 70.9218C76.4675 71.6056 75.9087 72.1381 75.1767 72.5194C74.4491 72.9008 73.5681 73.0914 72.5337 73.0914H69.1477V70.81H72.0735C72.6213 70.81 73.0728 70.7158 73.4278 70.5273C73.7873 70.3345 74.0546 70.0693 74.2299 69.7318C74.4097 69.3899 74.4995 68.9976 74.4995 68.5549C74.4995 68.1078 74.4097 67.7177 74.2299 67.3846C74.0546 67.0471 73.7873 66.7863 73.4278 66.6022C73.0684 66.4138 72.6126 66.3195 72.0603 66.3195H70.1405V77.457H67.2937ZM78.4878 77.457V67.3583H81.2031V69.1203H81.3083C81.4924 68.4936 81.8014 68.0202 82.2353 67.7002C82.6693 67.3759 83.1689 67.2137 83.7344 67.2137C83.8746 67.2137 84.0258 67.2225 84.188 67.24C84.3502 67.2575 84.4926 67.2816 84.6154 67.3123V69.7975C84.4839 69.7581 84.302 69.723 84.0697 69.6923C83.8374 69.6617 83.6248 69.6463 83.4319 69.6463C83.0199 69.6463 82.6517 69.7362 82.3274 69.9159C82.0074 70.0912 81.7532 70.3367 81.5647 70.6522C81.3806 70.9678 81.2886 71.3316 81.2886 71.7436V77.457H78.4878ZM87.9133 77.6477C87.269 77.6477 86.6948 77.5359 86.1907 77.3124C85.6867 77.0845 85.2878 76.7492 84.9941 76.3065C84.7049 75.8594 84.5602 75.3027 84.5602 74.6365C84.5602 74.0755 84.6632 73.6043 84.8692 73.2229C85.0752 72.8416 85.3557 72.5348 85.7108 72.3025C86.0658 72.0702 86.4691 71.8949 86.9205 71.7765C87.3764 71.6582 87.8541 71.5749 88.3538 71.5267C88.9411 71.4653 89.4145 71.4083 89.7739 71.3557C90.1333 71.2988 90.3941 71.2155 90.5563 71.1059C90.7185 70.9963 90.7996 70.8341 90.7996 70.6194V70.5799C90.7996 70.1635 90.6681 69.8414 90.4051 69.6134C90.1465 69.3855 89.7783 69.2716 89.3006 69.2716C88.7965 69.2716 88.3954 69.3833 88.0974 69.6069C87.7993 69.826 87.6021 70.1022 87.5057 70.4353L84.9152 70.2249C85.0467 69.6113 85.3053 69.0809 85.6911 68.6338C86.0768 68.1824 86.5743 67.8361 87.1835 67.595C87.7971 67.3496 88.5072 67.2268 89.3137 67.2268C89.8747 67.2268 90.4117 67.2926 90.9245 67.4241C91.4417 67.5556 91.8997 67.7594 92.2986 68.0355C92.7019 68.3117 93.0196 68.6667 93.2519 69.1006C93.4842 69.5302 93.6004 70.0452 93.6004 70.6457V77.457H90.9442V76.0566H90.8653C90.7032 76.3722 90.4862 76.6505 90.2144 76.8916C89.9427 77.1283 89.6161 77.3146 89.2348 77.4505C88.8535 77.582 88.413 77.6477 87.9133 77.6477ZM88.7154 75.7147C89.1274 75.7147 89.4912 75.6337 89.8068 75.4715C90.1224 75.3049 90.37 75.0814 90.5497 74.8009C90.7294 74.5203 90.8193 74.2026 90.8193 73.8475V72.7759C90.7316 72.8328 90.6111 72.8854 90.4577 72.9337C90.3087 72.9775 90.1399 73.0191 89.9514 73.0586C89.763 73.0936 89.5745 73.1265 89.386 73.1572C89.1975 73.1835 89.0266 73.2076 88.8732 73.2295C88.5445 73.2777 88.2574 73.3544 88.0119 73.4596C87.7665 73.5648 87.5758 73.7073 87.4399 73.887C87.304 74.0623 87.2361 74.2815 87.2361 74.5444C87.2361 74.9258 87.3742 75.2173 87.6503 75.4189C87.9308 75.6161 88.2859 75.7147 88.7154 75.7147ZM96.4003 81.244C96.0452 81.244 95.7121 81.2156 95.4009 81.1586C95.0941 81.106 94.8399 81.038 94.6383 80.9548L95.2694 78.864C95.5982 78.9648 95.894 79.0196 96.157 79.0284C96.4244 79.0371 96.6545 78.9758 96.8474 78.8443C97.0446 78.7128 97.2046 78.4893 97.3273 78.1737L97.4917 77.7463L93.869 67.3583H96.8145L98.9052 74.7746H99.0104L101.121 67.3583H104.086L100.161 78.5484C99.9725 79.0919 99.7161 79.5653 99.3918 79.9686C99.0718 80.3762 98.6664 80.6896 98.1754 80.9087C97.6845 81.1323 97.0928 81.244 96.4003 81.244ZM113.181 70.238L110.617 70.3958C110.573 70.1767 110.479 69.9794 110.334 69.8041C110.19 69.6244 109.999 69.4819 109.762 69.3768C109.53 69.2672 109.252 69.2124 108.927 69.2124C108.493 69.2124 108.127 69.3044 107.829 69.4885C107.531 69.6682 107.382 69.9093 107.382 70.2117C107.382 70.4528 107.479 70.6566 107.672 70.8232C107.864 70.9897 108.195 71.1234 108.664 71.2242L110.492 71.5924C111.474 71.794 112.206 72.1184 112.688 72.5655C113.17 73.0126 113.411 73.5999 113.411 74.3275C113.411 74.9893 113.216 75.5701 112.826 76.0698C112.44 76.5695 111.91 76.9595 111.235 77.2401C110.564 77.5162 109.791 77.6543 108.914 77.6543C107.577 77.6543 106.512 77.3759 105.719 76.8193C104.93 76.2582 104.468 75.4956 104.332 74.5313L107.086 74.3867C107.17 74.7943 107.371 75.1055 107.691 75.3203C108.011 75.5307 108.421 75.6358 108.921 75.6358C109.412 75.6358 109.806 75.5416 110.104 75.3531C110.407 75.1603 110.56 74.9126 110.564 74.6102C110.56 74.356 110.453 74.1478 110.242 73.9856C110.032 73.819 109.708 73.6919 109.269 73.6043L107.52 73.2558C106.534 73.0586 105.8 72.7167 105.318 72.2302C104.84 71.7436 104.601 71.1234 104.601 70.3695C104.601 69.7208 104.777 69.162 105.127 68.693C105.482 68.224 105.98 67.8624 106.62 67.6082C107.264 67.3539 108.018 67.2268 108.881 67.2268C110.157 67.2268 111.161 67.4964 111.893 68.0355C112.629 68.5746 113.058 69.3088 113.181 70.238Z" fill="#0069BA"/>
<path d="M30.5564 94.0927H29.4354C29.3691 93.7703 29.2531 93.4871 29.0874 93.243C28.9247 92.9989 28.7258 92.794 28.4907 92.6282C28.2587 92.4595 28.0011 92.3329 27.7178 92.2485C27.4345 92.1642 27.1392 92.122 26.8319 92.122C26.2714 92.122 25.7636 92.2636 25.3086 92.5469C24.8566 92.8301 24.4965 93.2475 24.2283 93.7989C23.9631 94.3504 23.8305 95.0269 23.8305 95.8285C23.8305 96.63 23.9631 97.3065 24.2283 97.858C24.4965 98.4094 24.8566 98.8268 25.3086 99.11C25.7636 99.3933 26.2714 99.5349 26.8319 99.5349C27.1392 99.5349 27.4345 99.4927 27.7178 99.4084C28.0011 99.324 28.2587 99.1989 28.4907 99.0332C28.7258 98.8645 28.9247 98.658 29.0874 98.414C29.2531 98.1669 29.3691 97.8836 29.4354 97.5642H30.5564C30.472 98.0373 30.3184 98.4607 30.0954 98.8343C29.8724 99.208 29.5951 99.5259 29.2637 99.7881C28.9322 100.047 28.56 100.245 28.1472 100.38C27.7374 100.516 27.2989 100.584 26.8319 100.584C26.0424 100.584 25.3402 100.391 24.7255 100.005C24.1108 99.6193 23.6271 99.0709 23.2746 98.3597C22.922 97.6485 22.7457 96.8048 22.7457 95.8285C22.7457 94.8521 22.922 94.0084 23.2746 93.2972C23.6271 92.586 24.1108 92.0376 24.7255 91.6519C25.3402 91.2662 26.0424 91.0733 26.8319 91.0733C27.2989 91.0733 27.7374 91.1411 28.1472 91.2767C28.56 91.4123 28.9322 91.6112 29.2637 91.8734C29.5951 92.1325 29.8724 92.4489 30.0954 92.8226C30.3184 93.1932 30.472 93.6166 30.5564 94.0927ZM32.7808 96.2805V100.457H31.7141V91.1999H32.7808V94.599H32.8712C33.0339 94.2404 33.278 93.9556 33.6035 93.7447C33.9319 93.5307 34.3689 93.4238 34.9143 93.4238C35.3874 93.4238 35.8017 93.5187 36.1573 93.7085C36.5129 93.8954 36.7886 94.1831 36.9845 94.5719C37.1834 94.9576 37.2828 95.4488 37.2828 96.0454V100.457H36.2161V96.1177C36.2161 95.5663 36.0729 95.1399 35.7867 94.8386C35.5034 94.5342 35.1102 94.382 34.6069 94.382C34.2574 94.382 33.944 94.4559 33.6667 94.6035C33.3925 94.7512 33.1756 94.9666 33.0158 95.2499C32.8591 95.5331 32.7808 95.8767 32.7808 96.2805ZM40.7683 100.62C40.3283 100.62 39.9291 100.537 39.5705 100.371C39.2119 100.202 38.9271 99.9598 38.7162 99.6434C38.5052 99.324 38.3998 98.9383 38.3998 98.4863C38.3998 98.0885 38.4781 97.7661 38.6348 97.519C38.7915 97.2689 39.0009 97.073 39.2631 96.9314C39.5253 96.7897 39.8146 96.6843 40.131 96.615C40.4504 96.5426 40.7713 96.4854 41.0937 96.4432C41.5156 96.389 41.8576 96.3483 42.1198 96.3211C42.385 96.291 42.5778 96.2413 42.6984 96.172C42.8219 96.1027 42.8837 95.9821 42.8837 95.8104V95.7742C42.8837 95.3282 42.7617 94.9817 42.5176 94.7346C42.2765 94.4875 41.9104 94.364 41.4192 94.364C40.9099 94.364 40.5106 94.4754 40.2214 94.6984C39.9321 94.9214 39.7287 95.1595 39.6112 95.4126L38.5987 95.051C38.7795 94.6291 39.0205 94.3007 39.3219 94.0656C39.6262 93.8276 39.9577 93.6618 40.3163 93.5684C40.6779 93.472 41.0335 93.4238 41.383 93.4238C41.606 93.4238 41.8622 93.4509 42.1514 93.5051C42.4437 93.5564 42.7255 93.6633 42.9967 93.8261C43.2709 93.9888 43.4984 94.2344 43.6792 94.5628C43.86 94.8913 43.9504 95.3312 43.9504 95.8827V100.457H42.8837V99.5169H42.8295C42.7571 99.6675 42.6366 99.8287 42.4678 100.001C42.2991 100.172 42.0746 100.318 41.7944 100.439C41.5141 100.559 41.1721 100.62 40.7683 100.62ZM40.931 99.6615C41.3529 99.6615 41.7085 99.5786 41.9978 99.4129C42.2901 99.2472 42.51 99.0332 42.6577 98.771C42.8084 98.5089 42.8837 98.2331 42.8837 97.9439V96.9675C42.8385 97.0218 42.7391 97.0715 42.5854 97.1167C42.4347 97.1589 42.2599 97.1965 42.061 97.2297C41.8652 97.2598 41.6738 97.2869 41.487 97.311C41.3032 97.3321 41.154 97.3502 41.0395 97.3653C40.7623 97.4015 40.5031 97.4602 40.262 97.5416C40.024 97.6199 39.8311 97.739 39.6835 97.8987C39.5388 98.0554 39.4665 98.2693 39.4665 98.5405C39.4665 98.9112 39.6036 99.1914 39.8778 99.3812C40.1551 99.5681 40.5061 99.6615 40.931 99.6615ZM45.3883 103.061V93.5142H46.4189V94.6171H46.5455C46.6238 94.4965 46.7323 94.3429 46.8709 94.156C47.0125 93.9662 47.2144 93.7974 47.4766 93.6498C47.7418 93.4991 48.1004 93.4238 48.5524 93.4238C49.137 93.4238 49.6523 93.5699 50.0983 93.8622C50.5442 94.1545 50.8923 94.5689 51.1424 95.1052C51.3925 95.6416 51.5176 96.2744 51.5176 97.0037C51.5176 97.739 51.3925 98.3763 51.1424 98.9157C50.8923 99.4521 50.5457 99.8679 50.1028 100.163C49.6598 100.456 49.149 100.602 48.5705 100.602C48.1245 100.602 47.7674 100.528 47.4992 100.38C47.231 100.23 47.0246 100.059 46.88 99.8694C46.7353 99.6766 46.6238 99.5169 46.5455 99.3903H46.4551V103.061H45.3883ZM46.437 96.9856C46.437 97.5099 46.5138 97.9725 46.6675 98.3733C46.8212 98.771 47.0457 99.0829 47.341 99.3089C47.6363 99.5319 47.9979 99.6434 48.4258 99.6434C48.8718 99.6434 49.244 99.5259 49.5423 99.2908C49.8436 99.0528 50.0696 98.7334 50.2203 98.3326C50.374 97.9288 50.4508 97.4798 50.4508 96.9856C50.4508 96.4974 50.3755 96.0575 50.2248 95.6657C50.0772 95.271 49.8527 94.9591 49.5513 94.7301C49.253 94.498 48.8778 94.382 48.4258 94.382C47.9919 94.382 47.6273 94.492 47.332 94.712C47.0366 94.929 46.8137 95.2333 46.663 95.6251C46.5123 96.0138 46.437 96.4673 46.437 96.9856ZM55.5466 100.602C54.8776 100.602 54.3006 100.454 53.8154 100.159C53.3333 99.8604 52.9611 99.4445 52.6989 98.9112C52.4398 98.3748 52.3102 97.751 52.3102 97.0398C52.3102 96.3287 52.4398 95.7019 52.6989 95.1595C52.9611 94.6141 53.3257 94.1892 53.7928 93.8848C54.2629 93.5775 54.8113 93.4238 55.4381 93.4238C55.7997 93.4238 56.1568 93.484 56.5094 93.6046C56.8619 93.7251 57.1829 93.921 57.4721 94.1922C57.7614 94.4604 57.992 94.816 58.1637 95.2589C58.3355 95.7019 58.4214 96.2473 58.4214 96.8952V97.3472H53.0696V96.4251H57.3365C57.3365 96.0334 57.2582 95.6838 57.1015 95.3765C56.9478 95.0691 56.7278 94.8265 56.4416 94.6487C56.1583 94.4709 55.8238 94.382 55.4381 94.382C55.0132 94.382 54.6456 94.4875 54.3352 94.6984C54.0278 94.9064 53.7913 95.1776 53.6256 95.5121C53.4598 95.8465 53.3769 96.2051 53.3769 96.5878V97.2026C53.3769 97.7269 53.4673 98.1714 53.6482 98.536C53.832 98.8976 54.0866 99.1733 54.412 99.3632C54.7375 99.55 55.1157 99.6434 55.5466 99.6434C55.8268 99.6434 56.08 99.6042 56.306 99.5259C56.535 99.4445 56.7324 99.324 56.8981 99.1643C57.0638 99.0016 57.1919 98.7997 57.2823 98.5586L58.3129 98.8479C58.2044 99.1974 58.0221 99.5048 57.766 99.77C57.5098 100.032 57.1934 100.237 56.8167 100.385C56.4401 100.529 56.0167 100.602 55.5466 100.602ZM60.6017 91.1999V100.457H59.5349V91.1999H60.6017Z" fill="#0069BA"/>
<mask id="path-6-inside-2_1547_3829" fill="white">
<path d="M0 269.614C0 266.419 2.59035 263.829 5.78571 263.829H209.443C212.638 263.829 215.229 266.419 215.229 269.614V388.8C215.229 391.995 212.638 394.586 209.443 394.586H5.78572C2.59036 394.586 0 391.995 0 388.8V269.614Z"/>
</mask>
<path d="M0 269.614C0 266.419 2.59035 263.829 5.78571 263.829H209.443C212.638 263.829 215.229 266.419 215.229 269.614V388.8C215.229 391.995 212.638 394.586 209.443 394.586H5.78572C2.59036 394.586 0 391.995 0 388.8V269.614Z" fill="#E0F4FF"/>
<path d="M0 263.829H215.229H0ZM215.229 394.586H0H215.229ZM5.78571 394.586C-0.605009 394.586 -5.78571 389.405 -5.78571 383.014V275.4C-5.78571 269.009 -0.605009 263.829 5.78571 263.829C5.78571 263.829 5.78571 266.419 5.78571 269.614V388.8C5.78571 391.995 5.78571 394.586 5.78571 394.586ZM215.229 263.829V394.586V263.829Z" fill="#0069BA" mask="url(#path-6-inside-2_1547_3829)"/>
<mask id="path-8-inside-3_1547_3829" fill="white">
<path d="M215.229 136.543C215.229 133.347 217.819 130.757 221.014 130.757H424.671C427.867 130.757 430.457 133.347 430.457 136.543V255.729C430.457 258.924 427.867 261.514 424.671 261.514H221.014C217.819 261.514 215.229 258.924 215.229 255.729V136.543Z"/>
</mask>
<path d="M215.229 136.543C215.229 133.347 217.819 130.757 221.014 130.757H424.671C427.867 130.757 430.457 133.347 430.457 136.543V255.729C430.457 258.924 427.867 261.514 424.671 261.514H221.014C217.819 261.514 215.229 258.924 215.229 255.729V136.543Z" fill="#E0F4FF"/>
<path d="M215.229 130.757H430.457H215.229ZM430.457 261.514H215.229H430.457ZM221.014 261.514C214.624 261.514 209.443 256.334 209.443 249.943V142.329C209.443 135.938 214.624 130.757 221.014 130.757C221.014 130.757 221.014 133.347 221.014 136.543V255.729C221.014 258.924 221.014 261.514 221.014 261.514ZM430.457 130.757V261.514V130.757Z" fill="#0069BA" mask="url(#path-8-inside-3_1547_3829)"/>
<path d="M238.51 171.714V170.242L243.066 165.521C243.553 165.008 243.954 164.559 244.269 164.173C244.589 163.783 244.828 163.413 244.986 163.062C245.144 162.711 245.223 162.339 245.223 161.944C245.223 161.497 245.118 161.112 244.907 160.787C244.697 160.459 244.41 160.206 244.046 160.031C243.682 159.851 243.272 159.762 242.816 159.762C242.334 159.762 241.914 159.86 241.554 160.057C241.195 160.255 240.919 160.533 240.726 160.892C240.533 161.252 240.436 161.673 240.436 162.155H238.497C238.497 161.335 238.685 160.618 239.062 160.005C239.439 159.391 239.956 158.916 240.614 158.578C241.271 158.236 242.019 158.065 242.856 158.065C243.702 158.065 244.447 158.234 245.091 158.572C245.74 158.905 246.246 159.361 246.61 159.939C246.974 160.513 247.156 161.162 247.156 161.885C247.156 162.385 247.062 162.874 246.873 163.351C246.689 163.829 246.367 164.362 245.907 164.949C245.446 165.532 244.806 166.24 243.987 167.073L241.311 169.873V169.972H247.373V171.714H238.51ZM250.445 170.044C250.086 170.044 249.777 169.917 249.518 169.663C249.26 169.404 249.131 169.093 249.131 168.729C249.131 168.37 249.26 168.063 249.518 167.809C249.777 167.55 250.086 167.421 250.445 167.421C250.805 167.421 251.114 167.55 251.372 167.809C251.631 168.063 251.76 168.37 251.76 168.729C251.76 168.971 251.699 169.192 251.576 169.393C251.458 169.591 251.3 169.749 251.103 169.867C250.906 169.985 250.687 170.044 250.445 170.044ZM250.445 163.299C250.086 163.299 249.777 163.172 249.518 162.917C249.26 162.659 249.131 162.348 249.131 161.984C249.131 161.624 249.26 161.318 249.518 161.063C249.777 160.805 250.086 160.675 250.445 160.675C250.805 160.675 251.114 160.805 251.372 161.063C251.631 161.318 251.76 161.624 251.76 161.984C251.76 162.225 251.699 162.446 251.576 162.648C251.458 162.845 251.3 163.003 251.103 163.121C250.906 163.24 250.687 163.299 250.445 163.299ZM258.314 171.938C257.276 171.934 256.388 171.66 255.652 171.116C254.915 170.573 254.352 169.781 253.962 168.743C253.572 167.704 253.377 166.452 253.377 164.988C253.377 163.529 253.572 162.282 253.962 161.247C254.356 160.213 254.922 159.424 255.658 158.881C256.399 158.337 257.284 158.065 258.314 158.065C259.344 158.065 260.228 158.339 260.964 158.887C261.7 159.431 262.264 160.22 262.654 161.254C263.048 162.284 263.245 163.529 263.245 164.988C263.245 166.457 263.05 167.71 262.66 168.749C262.27 169.784 261.707 170.575 260.971 171.123C260.234 171.666 259.349 171.938 258.314 171.938ZM258.314 170.182C259.226 170.182 259.938 169.738 260.451 168.848C260.968 167.958 261.227 166.672 261.227 164.988C261.227 163.871 261.109 162.926 260.872 162.155C260.64 161.379 260.304 160.792 259.866 160.393C259.432 159.99 258.915 159.788 258.314 159.788C257.407 159.788 256.695 160.235 256.178 161.129C255.66 162.023 255.4 163.31 255.395 164.988C255.395 166.111 255.511 167.059 255.744 167.835C255.98 168.607 256.316 169.192 256.75 169.591C257.184 169.985 257.705 170.182 258.314 170.182ZM269.525 171.938C268.486 171.934 267.599 171.66 266.862 171.116C266.126 170.573 265.563 169.781 265.173 168.743C264.782 167.704 264.587 166.452 264.587 164.988C264.587 163.529 264.782 162.282 265.173 161.247C265.567 160.213 266.132 159.424 266.869 158.881C267.61 158.337 268.495 158.065 269.525 158.065C270.555 158.065 271.438 158.339 272.175 158.887C272.911 159.431 273.474 160.22 273.864 161.254C274.259 162.284 274.456 163.529 274.456 164.988C274.456 166.457 274.261 167.71 273.871 168.749C273.481 169.784 272.918 170.575 272.181 171.123C271.445 171.666 270.559 171.938 269.525 171.938ZM269.525 170.182C270.437 170.182 271.149 169.738 271.662 168.848C272.179 167.958 272.438 166.672 272.438 164.988C272.438 163.871 272.319 162.926 272.083 162.155C271.85 161.379 271.515 160.792 271.077 160.393C270.643 159.99 270.125 159.788 269.525 159.788C268.618 159.788 267.905 160.235 267.388 161.129C266.871 162.023 266.61 163.31 266.606 164.988C266.606 166.111 266.722 167.059 266.954 167.835C267.191 168.607 267.526 169.192 267.96 169.591C268.394 169.985 268.916 170.182 269.525 170.182ZM280.391 171.714V158.249H285.191C286.238 158.249 287.106 158.44 287.794 158.821C288.482 159.203 288.997 159.724 289.339 160.386C289.681 161.044 289.852 161.784 289.852 162.608C289.852 163.437 289.679 164.182 289.333 164.844C288.991 165.501 288.474 166.023 287.781 166.409C287.093 166.79 286.227 166.981 285.184 166.981H281.884V165.258H285C285.662 165.258 286.199 165.144 286.611 164.916C287.023 164.684 287.325 164.368 287.518 163.969C287.711 163.571 287.807 163.117 287.807 162.608C287.807 162.1 287.711 161.649 287.518 161.254C287.325 160.86 287.021 160.551 286.604 160.327C286.192 160.103 285.649 159.992 284.974 159.992H282.423V171.714H280.391ZM291.493 158.249H293.959L298.245 168.716H298.403L302.69 158.249H305.155V171.714H303.222V161.971H303.097L299.126 171.695H297.522L293.551 161.964H293.426V171.714H291.493V158.249Z" fill="#0069BA"/>
<path d="M250.266 188.963H247.386C247.333 188.591 247.226 188.26 247.064 187.971C246.902 187.677 246.693 187.427 246.439 187.221C246.185 187.015 245.891 186.857 245.558 186.748C245.229 186.638 244.872 186.583 244.486 186.583C243.79 186.583 243.182 186.757 242.665 187.103C242.148 187.445 241.747 187.944 241.462 188.602C241.177 189.255 241.035 190.048 241.035 190.982C241.035 191.942 241.177 192.748 241.462 193.401C241.751 194.054 242.155 194.548 242.672 194.881C243.189 195.214 243.787 195.38 244.467 195.38C244.848 195.38 245.201 195.33 245.525 195.229C245.854 195.128 246.145 194.981 246.4 194.789C246.654 194.591 246.864 194.353 247.031 194.072C247.202 193.791 247.32 193.471 247.386 193.112L250.266 193.125C250.191 193.743 250.005 194.339 249.707 194.914C249.413 195.483 249.016 195.994 248.517 196.445C248.021 196.893 247.43 197.248 246.742 197.511C246.058 197.769 245.284 197.898 244.421 197.898C243.22 197.898 242.146 197.627 241.199 197.083C240.257 196.54 239.512 195.753 238.964 194.723C238.42 193.693 238.148 192.446 238.148 190.982C238.148 189.514 238.425 188.264 238.977 187.234C239.529 186.204 240.279 185.42 241.225 184.881C242.172 184.337 243.237 184.065 244.421 184.065C245.201 184.065 245.924 184.175 246.59 184.394C247.261 184.613 247.855 184.933 248.372 185.354C248.889 185.77 249.31 186.281 249.634 186.886C249.963 187.491 250.174 188.183 250.266 188.963ZM251.566 197.714V184.249H256.958C257.948 184.249 258.774 184.396 259.436 184.69C260.098 184.984 260.596 185.391 260.929 185.913C261.262 186.43 261.428 187.026 261.428 187.701C261.428 188.227 261.323 188.69 261.113 189.088C260.902 189.483 260.613 189.807 260.245 190.061C259.881 190.311 259.465 190.489 258.996 190.594V190.725C259.509 190.747 259.989 190.892 260.436 191.159C260.887 191.427 261.253 191.802 261.534 192.284C261.814 192.761 261.954 193.331 261.954 193.993C261.954 194.708 261.777 195.345 261.422 195.906C261.071 196.463 260.552 196.903 259.864 197.228C259.176 197.552 258.327 197.714 257.319 197.714H251.566ZM254.413 195.387H256.734C257.527 195.387 258.106 195.236 258.47 194.933C258.834 194.626 259.016 194.219 259.016 193.71C259.016 193.338 258.926 193.009 258.746 192.724C258.566 192.439 258.31 192.216 257.977 192.054C257.648 191.891 257.256 191.81 256.8 191.81H254.413V195.387ZM254.413 189.884H256.524C256.914 189.884 257.26 189.816 257.563 189.68C257.869 189.54 258.11 189.343 258.286 189.088C258.465 188.834 258.555 188.53 258.555 188.175C258.555 187.688 258.382 187.296 258.036 186.998C257.694 186.7 257.208 186.551 256.576 186.551H254.413V189.884ZM265.387 197.714H262.336L266.985 184.249H270.653L275.295 197.714H272.245L268.872 187.326H268.767L265.387 197.714ZM265.196 192.422H272.402V194.644H265.196V192.422ZM283.172 188.122C283.12 187.592 282.894 187.18 282.495 186.886C282.096 186.592 281.555 186.445 280.871 186.445C280.407 186.445 280.014 186.511 279.694 186.643C279.374 186.77 279.129 186.947 278.958 187.175C278.791 187.403 278.708 187.662 278.708 187.951C278.699 188.192 278.75 188.402 278.859 188.582C278.973 188.762 279.129 188.917 279.326 189.049C279.523 189.176 279.751 189.288 280.01 189.384C280.269 189.476 280.545 189.555 280.838 189.621L282.048 189.91C282.635 190.042 283.175 190.217 283.665 190.436C284.156 190.655 284.582 190.925 284.941 191.245C285.3 191.565 285.579 191.942 285.776 192.376C285.978 192.81 286.081 193.307 286.085 193.868C286.081 194.692 285.87 195.407 285.454 196.012C285.042 196.612 284.446 197.079 283.665 197.412C282.89 197.741 281.954 197.905 280.858 197.905C279.771 197.905 278.824 197.738 278.018 197.405C277.216 197.072 276.589 196.579 276.137 195.926C275.69 195.269 275.456 194.456 275.434 193.487H278.189C278.219 193.938 278.349 194.315 278.577 194.618C278.809 194.916 279.118 195.141 279.504 195.295C279.894 195.444 280.334 195.518 280.825 195.518C281.307 195.518 281.726 195.448 282.081 195.308C282.44 195.168 282.719 194.973 282.916 194.723C283.113 194.473 283.212 194.186 283.212 193.862C283.212 193.559 283.122 193.305 282.942 193.099C282.767 192.893 282.508 192.718 282.166 192.573C281.829 192.428 281.415 192.297 280.924 192.178L279.458 191.81C278.322 191.534 277.426 191.102 276.769 190.515C276.111 189.928 275.785 189.137 275.789 188.142C275.785 187.326 276.002 186.614 276.44 186.005C276.883 185.396 277.49 184.92 278.261 184.578C279.032 184.236 279.909 184.065 280.891 184.065C281.89 184.065 282.763 184.236 283.508 184.578C284.257 184.92 284.84 185.396 285.257 186.005C285.673 186.614 285.888 187.32 285.901 188.122H283.172ZM298.859 197.714H294.086V184.249H298.898C300.253 184.249 301.419 184.519 302.396 185.058C303.373 185.593 304.125 186.362 304.651 187.366C305.182 188.37 305.447 189.571 305.447 190.969C305.447 192.371 305.182 193.577 304.651 194.585C304.125 195.593 303.369 196.367 302.383 196.906C301.401 197.445 300.226 197.714 298.859 197.714ZM296.932 195.275H298.741C299.582 195.275 300.29 195.126 300.864 194.828C301.443 194.526 301.877 194.059 302.166 193.428C302.46 192.792 302.606 191.972 302.606 190.969C302.606 189.974 302.46 189.161 302.166 188.53C301.877 187.898 301.445 187.434 300.871 187.136C300.297 186.838 299.589 186.689 298.747 186.689H296.932V195.275ZM306.762 197.714V187.616H309.563V197.714H306.762ZM308.169 186.314C307.753 186.314 307.396 186.176 307.098 185.9C306.804 185.619 306.657 185.284 306.657 184.894C306.657 184.508 306.804 184.177 307.098 183.901C307.396 183.62 307.753 183.48 308.169 183.48C308.586 183.48 308.941 183.62 309.234 183.901C309.532 184.177 309.682 184.508 309.682 184.894C309.682 185.284 309.532 185.619 309.234 185.9C308.941 186.176 308.586 186.314 308.169 186.314ZM315.616 201.712C314.709 201.712 313.931 201.587 313.282 201.337C312.638 201.092 312.125 200.756 311.743 200.331C311.362 199.906 311.114 199.428 311 198.898L313.591 198.549C313.67 198.751 313.795 198.939 313.966 199.115C314.137 199.29 314.362 199.43 314.643 199.536C314.928 199.645 315.274 199.7 315.682 199.7C316.291 199.7 316.793 199.551 317.187 199.253C317.586 198.959 317.786 198.466 317.786 197.774V195.926H317.667C317.544 196.207 317.36 196.472 317.115 196.722C316.869 196.971 316.554 197.175 316.168 197.333C315.782 197.491 315.322 197.57 314.787 197.57C314.029 197.57 313.339 197.394 312.716 197.044C312.098 196.689 311.605 196.147 311.237 195.42C310.873 194.688 310.691 193.763 310.691 192.645C310.691 191.501 310.878 190.546 311.25 189.779C311.623 189.012 312.118 188.437 312.736 188.056C313.359 187.675 314.04 187.484 314.781 187.484C315.346 187.484 315.82 187.581 316.201 187.773C316.582 187.962 316.889 188.199 317.121 188.484C317.358 188.764 317.54 189.04 317.667 189.312H317.772V187.616H320.553V197.813C320.553 198.672 320.343 199.391 319.922 199.969C319.502 200.548 318.919 200.982 318.173 201.271C317.433 201.565 316.58 201.712 315.616 201.712ZM315.675 195.466C316.127 195.466 316.508 195.354 316.819 195.131C317.135 194.903 317.376 194.578 317.542 194.157C317.713 193.732 317.799 193.224 317.799 192.632C317.799 192.04 317.715 191.528 317.549 191.094C317.382 190.655 317.141 190.316 316.826 190.075C316.51 189.834 316.127 189.713 315.675 189.713C315.215 189.713 314.827 189.838 314.511 190.088C314.196 190.333 313.957 190.675 313.795 191.113C313.633 191.552 313.551 192.058 313.551 192.632C313.551 193.215 313.633 193.719 313.795 194.144C313.961 194.565 314.2 194.892 314.511 195.124C314.827 195.352 315.215 195.466 315.675 195.466ZM322.042 197.714V187.616H324.843V197.714H322.042ZM323.449 186.314C323.032 186.314 322.675 186.176 322.377 185.9C322.083 185.619 321.937 185.284 321.937 184.894C321.937 184.508 322.083 184.177 322.377 183.901C322.675 183.62 323.032 183.48 323.449 183.48C323.865 183.48 324.22 183.62 324.514 183.901C324.812 184.177 324.961 184.508 324.961 184.894C324.961 185.284 324.812 185.619 324.514 185.9C324.22 186.176 323.865 186.314 323.449 186.314ZM331.717 187.616V189.72H325.635V187.616H331.717ZM327.016 185.196H329.817V194.611C329.817 194.87 329.856 195.071 329.935 195.216C330.014 195.356 330.124 195.455 330.264 195.512C330.409 195.569 330.575 195.597 330.764 195.597C330.895 195.597 331.027 195.586 331.158 195.564C331.29 195.538 331.391 195.518 331.461 195.505L331.901 197.589C331.761 197.633 331.564 197.684 331.309 197.741C331.055 197.802 330.746 197.839 330.382 197.852C329.707 197.879 329.116 197.789 328.607 197.583C328.103 197.377 327.711 197.057 327.43 196.623C327.15 196.189 327.012 195.641 327.016 194.979V185.196ZM335.681 197.905C335.036 197.905 334.462 197.793 333.958 197.57C333.454 197.342 333.055 197.006 332.762 196.564C332.472 196.117 332.328 195.56 332.328 194.894C332.328 194.333 332.431 193.862 332.637 193.48C332.843 193.099 333.123 192.792 333.478 192.56C333.833 192.328 334.236 192.152 334.688 192.034C335.144 191.915 335.621 191.832 336.121 191.784C336.709 191.723 337.182 191.666 337.541 191.613C337.901 191.556 338.162 191.473 338.324 191.363C338.486 191.254 338.567 191.091 338.567 190.877V190.837C338.567 190.421 338.435 190.099 338.172 189.871C337.914 189.643 337.546 189.529 337.068 189.529C336.564 189.529 336.163 189.641 335.865 189.864C335.567 190.083 335.369 190.359 335.273 190.693L332.683 190.482C332.814 189.869 333.073 189.338 333.458 188.891C333.844 188.44 334.342 188.093 334.951 187.852C335.565 187.607 336.275 187.484 337.081 187.484C337.642 187.484 338.179 187.55 338.692 187.681C339.209 187.813 339.667 188.017 340.066 188.293C340.469 188.569 340.787 188.924 341.019 189.358C341.252 189.787 341.368 190.303 341.368 190.903V197.714H338.712V196.314H338.633C338.471 196.63 338.254 196.908 337.982 197.149C337.71 197.386 337.384 197.572 337.002 197.708C336.621 197.839 336.18 197.905 335.681 197.905ZM336.483 195.972C336.895 195.972 337.259 195.891 337.574 195.729C337.89 195.562 338.137 195.339 338.317 195.058C338.497 194.778 338.587 194.46 338.587 194.105V193.033C338.499 193.09 338.378 193.143 338.225 193.191C338.076 193.235 337.907 193.276 337.719 193.316C337.53 193.351 337.342 193.384 337.153 193.415C336.965 193.441 336.794 193.465 336.641 193.487C336.312 193.535 336.025 193.612 335.779 193.717C335.534 193.822 335.343 193.965 335.207 194.144C335.071 194.32 335.003 194.539 335.003 194.802C335.003 195.183 335.142 195.475 335.418 195.676C335.698 195.873 336.053 195.972 336.483 195.972ZM345.601 184.249V197.714H342.8V184.249H345.601ZM241.416 219.714L237.563 206.249H240.673L242.902 215.605H243.014L245.473 206.249H248.135L250.588 215.625H250.706L252.935 206.249H256.045L252.192 219.714H249.417L246.853 210.911H246.748L244.191 219.714H241.416ZM260.253 219.912C259.232 219.912 258.349 219.695 257.604 219.261C256.863 218.822 256.291 218.213 255.888 217.433C255.484 216.648 255.283 215.739 255.283 214.704C255.283 213.661 255.484 212.75 255.888 211.969C256.291 211.185 256.863 210.576 257.604 210.142C258.349 209.703 259.232 209.484 260.253 209.484C261.274 209.484 262.156 209.703 262.896 210.142C263.641 210.576 264.216 211.185 264.619 211.969C265.022 212.75 265.224 213.661 265.224 214.704C265.224 215.739 265.022 216.648 264.619 217.433C264.216 218.213 263.641 218.822 262.896 219.261C262.156 219.695 261.274 219.912 260.253 219.912ZM260.266 217.742C260.731 217.742 261.119 217.61 261.43 217.347C261.741 217.08 261.976 216.716 262.134 216.256C262.296 215.796 262.377 215.272 262.377 214.685C262.377 214.097 262.296 213.574 262.134 213.113C261.976 212.653 261.741 212.289 261.43 212.022C261.119 211.755 260.731 211.621 260.266 211.621C259.797 211.621 259.403 211.755 259.083 212.022C258.767 212.289 258.528 212.653 258.366 213.113C258.209 213.574 258.13 214.097 258.13 214.685C258.13 215.272 258.209 215.796 258.366 216.256C258.528 216.716 258.767 217.08 259.083 217.347C259.403 217.61 259.797 217.742 260.266 217.742ZM266.304 219.714V209.616H269.02V211.378H269.125C269.309 210.751 269.618 210.278 270.052 209.958C270.486 209.633 270.985 209.471 271.551 209.471C271.691 209.471 271.842 209.48 272.005 209.497C272.167 209.515 272.309 209.539 272.432 209.57V212.055C272.3 212.015 272.119 211.98 271.886 211.95C271.654 211.919 271.441 211.904 271.248 211.904C270.836 211.904 270.468 211.993 270.144 212.173C269.824 212.349 269.57 212.594 269.381 212.91C269.197 213.225 269.105 213.589 269.105 214.001V219.714H266.304ZM275.677 216.808L275.684 213.449H276.091L279.326 209.616H282.541L278.195 214.691H277.531L275.677 216.808ZM273.139 219.714V206.249H275.94V219.714H273.139ZM279.451 219.714L276.479 215.316L278.347 213.337L282.732 219.714H279.451ZM291.577 212.495L289.013 212.653C288.969 212.434 288.875 212.237 288.73 212.061C288.586 211.882 288.395 211.739 288.158 211.634C287.926 211.525 287.648 211.47 287.323 211.47C286.889 211.47 286.523 211.562 286.225 211.746C285.927 211.926 285.778 212.167 285.778 212.469C285.778 212.71 285.875 212.914 286.068 213.081C286.26 213.247 286.591 213.381 287.06 213.482L288.888 213.85C289.87 214.051 290.602 214.376 291.084 214.823C291.566 215.27 291.807 215.857 291.807 216.585C291.807 217.247 291.612 217.827 291.222 218.327C290.836 218.827 290.306 219.217 289.631 219.497C288.96 219.774 288.187 219.912 287.31 219.912C285.973 219.912 284.908 219.633 284.115 219.077C283.326 218.516 282.864 217.753 282.728 216.789L285.482 216.644C285.566 217.052 285.767 217.363 286.087 217.578C286.407 217.788 286.817 217.893 287.317 217.893C287.808 217.893 288.202 217.799 288.5 217.61C288.803 217.418 288.956 217.17 288.96 216.868C288.956 216.613 288.849 216.405 288.638 216.243C288.428 216.076 288.104 215.949 287.665 215.862L285.916 215.513C284.93 215.316 284.196 214.974 283.714 214.487C283.236 214.001 282.997 213.381 282.997 212.627C282.997 211.978 283.173 211.419 283.523 210.95C283.878 210.481 284.376 210.12 285.016 209.865C285.66 209.611 286.414 209.484 287.277 209.484C288.553 209.484 289.557 209.754 290.289 210.293C291.025 210.832 291.454 211.566 291.577 212.495ZM295.631 213.876V219.714H292.83V206.249H295.552V211.397H295.671C295.899 210.801 296.267 210.334 296.775 209.997C297.284 209.655 297.921 209.484 298.688 209.484C299.39 209.484 300.001 209.638 300.523 209.944C301.049 210.247 301.456 210.683 301.746 211.253C302.039 211.818 302.184 212.495 302.18 213.284V219.714H299.379V213.784C299.383 213.162 299.225 212.677 298.905 212.331C298.59 211.985 298.147 211.812 297.577 211.812C297.196 211.812 296.858 211.893 296.565 212.055C296.275 212.217 296.048 212.454 295.881 212.765C295.719 213.072 295.636 213.442 295.631 213.876ZM308.206 219.912C307.185 219.912 306.301 219.695 305.556 219.261C304.816 218.822 304.244 218.213 303.84 217.433C303.437 216.648 303.236 215.739 303.236 214.704C303.236 213.661 303.437 212.75 303.84 211.969C304.244 211.185 304.816 210.576 305.556 210.142C306.301 209.703 307.185 209.484 308.206 209.484C309.227 209.484 310.108 209.703 310.849 210.142C311.594 210.576 312.168 211.185 312.572 211.969C312.975 212.75 313.176 213.661 313.176 214.704C313.176 215.739 312.975 216.648 312.572 217.433C312.168 218.213 311.594 218.822 310.849 219.261C310.108 219.695 309.227 219.912 308.206 219.912ZM308.219 217.742C308.684 217.742 309.072 217.61 309.383 217.347C309.694 217.08 309.929 216.716 310.086 216.256C310.248 215.796 310.33 215.272 310.33 214.685C310.33 214.097 310.248 213.574 310.086 213.113C309.929 212.653 309.694 212.289 309.383 212.022C309.072 211.755 308.684 211.621 308.219 211.621C307.75 211.621 307.356 211.755 307.036 212.022C306.72 212.289 306.481 212.653 306.319 213.113C306.161 213.574 306.082 214.097 306.082 214.685C306.082 215.272 306.161 215.796 306.319 216.256C306.481 216.716 306.72 217.08 307.036 217.347C307.356 217.61 307.75 217.742 308.219 217.742ZM314.257 223.501V209.616H317.018V211.312H317.143C317.266 211.04 317.444 210.764 317.676 210.484C317.913 210.199 318.219 209.962 318.596 209.773C318.978 209.581 319.451 209.484 320.016 209.484C320.753 209.484 321.432 209.677 322.055 210.063C322.677 210.444 323.174 211.02 323.547 211.792C323.92 212.559 324.106 213.521 324.106 214.678C324.106 215.805 323.924 216.756 323.56 217.532C323.201 218.303 322.71 218.888 322.087 219.287C321.469 219.681 320.777 219.879 320.01 219.879C319.466 219.879 319.004 219.789 318.623 219.609C318.246 219.429 317.937 219.204 317.696 218.932C317.455 218.656 317.27 218.378 317.143 218.097H317.058V223.501H314.257ZM316.999 214.665C316.999 215.265 317.082 215.789 317.249 216.236C317.415 216.683 317.656 217.032 317.972 217.282C318.287 217.527 318.671 217.65 319.122 217.65C319.578 217.65 319.964 217.525 320.279 217.275C320.595 217.021 320.834 216.67 320.996 216.223C321.163 215.772 321.246 215.252 321.246 214.665C321.246 214.082 321.165 213.569 321.003 213.127C320.84 212.684 320.602 212.338 320.286 212.088C319.97 211.838 319.583 211.713 319.122 211.713C318.666 211.713 318.281 211.834 317.965 212.075C317.654 212.316 317.415 212.658 317.249 213.1C317.082 213.543 316.999 214.065 316.999 214.665Z" fill="#0069BA"/>
<path d="M238.336 229.457H239.674L242.82 237.141H242.928L246.074 229.457H247.412V238.714H246.364V231.681H246.273L243.38 238.714H242.368L239.475 231.681H239.384V238.714H238.336V229.457ZM253.381 235.876V231.771H254.448V238.714H253.381V237.539H253.309C253.146 237.892 252.893 238.192 252.55 238.439C252.206 238.683 251.772 238.805 251.248 238.805C250.814 238.805 250.428 238.71 250.091 238.52C249.753 238.327 249.488 238.038 249.295 237.652C249.102 237.263 249.006 236.774 249.006 236.183V231.771H250.073V236.111C250.073 236.617 250.214 237.021 250.498 237.322C250.784 237.624 251.149 237.774 251.591 237.774C251.857 237.774 252.126 237.706 252.401 237.571C252.678 237.435 252.91 237.227 253.097 236.947C253.287 236.667 253.381 236.31 253.381 235.876ZM256.96 229.457V238.714H255.893V229.457H256.96ZM261.424 231.771V232.676H257.826V231.771H261.424ZM258.874 230.108H259.941V236.726C259.941 237.027 259.985 237.253 260.072 237.404C260.163 237.551 260.277 237.651 260.416 237.702C260.557 237.75 260.706 237.774 260.863 237.774C260.981 237.774 261.077 237.768 261.152 237.756C261.228 237.741 261.288 237.729 261.333 237.72L261.55 238.678C261.478 238.705 261.377 238.732 261.247 238.76C261.118 238.79 260.954 238.805 260.755 238.805C260.453 238.805 260.158 238.74 259.869 238.61C259.582 238.481 259.344 238.283 259.155 238.018C258.968 237.753 258.874 237.419 258.874 237.015V230.108ZM262.519 238.714V231.771H263.586V238.714H262.519ZM263.062 230.614C262.854 230.614 262.674 230.544 262.524 230.402C262.376 230.26 262.302 230.09 262.302 229.891C262.302 229.692 262.376 229.522 262.524 229.38C262.674 229.239 262.854 229.168 263.062 229.168C263.269 229.168 263.447 229.239 263.595 229.38C263.746 229.522 263.821 229.692 263.821 229.891C263.821 230.09 263.746 230.26 263.595 230.402C263.447 230.544 263.269 230.614 263.062 230.614ZM265.031 241.318V231.771H266.061V232.874H266.188C266.266 232.754 266.375 232.6 266.513 232.413C266.655 232.224 266.857 232.055 267.119 231.907C267.384 231.756 267.743 231.681 268.195 231.681C268.779 231.681 269.295 231.827 269.741 232.12C270.186 232.412 270.535 232.826 270.785 233.363C271.035 233.899 271.16 234.532 271.16 235.261C271.16 235.996 271.035 236.634 270.785 237.173C270.535 237.709 270.188 238.125 269.745 238.421C269.302 238.713 268.791 238.859 268.213 238.859C267.767 238.859 267.41 238.785 267.141 238.638C266.873 238.487 266.667 238.317 266.522 238.127C266.378 237.934 266.266 237.774 266.188 237.648H266.097V241.318H265.031ZM266.079 235.243C266.079 235.767 266.156 236.23 266.31 236.631C266.463 237.028 266.688 237.34 266.983 237.566C267.279 237.789 267.64 237.901 268.068 237.901C268.514 237.901 268.886 237.783 269.185 237.548C269.486 237.31 269.712 236.991 269.863 236.59C270.016 236.186 270.093 235.737 270.093 235.243C270.093 234.755 270.018 234.315 269.867 233.923C269.719 233.528 269.495 233.216 269.194 232.987C268.895 232.755 268.52 232.639 268.068 232.639C267.634 232.639 267.27 232.749 266.974 232.969C266.679 233.186 266.456 233.491 266.305 233.882C266.155 234.271 266.079 234.725 266.079 235.243ZM276.653 235.876V231.771H277.72V238.714H276.653V237.539H276.581C276.418 237.892 276.165 238.192 275.822 238.439C275.478 238.683 275.044 238.805 274.52 238.805C274.086 238.805 273.7 238.71 273.363 238.52C273.025 238.327 272.76 238.038 272.567 237.652C272.374 237.263 272.278 236.774 272.278 236.183V231.771H273.345V236.111C273.345 236.617 273.486 237.021 273.77 237.322C274.056 237.624 274.42 237.774 274.863 237.774C275.129 237.774 275.398 237.706 275.672 237.571C275.95 237.435 276.182 237.227 276.369 236.947C276.558 236.667 276.653 236.31 276.653 235.876ZM279.165 238.714V231.771H280.195V232.82H280.268C280.394 232.477 280.623 232.198 280.955 231.984C281.286 231.77 281.66 231.663 282.076 231.663C282.154 231.663 282.252 231.665 282.369 231.668C282.487 231.671 282.576 231.675 282.636 231.681V232.766C282.6 232.757 282.517 232.743 282.388 232.725C282.261 232.704 282.127 232.694 281.985 232.694C281.648 232.694 281.346 232.764 281.081 232.906C280.819 233.045 280.611 233.238 280.458 233.485C280.307 233.729 280.231 234.007 280.231 234.321V238.714H279.165ZM283.392 241.318V231.771H284.422V232.874H284.549C284.627 232.754 284.736 232.6 284.874 232.413C285.016 232.224 285.218 232.055 285.48 231.907C285.745 231.756 286.104 231.681 286.556 231.681C287.14 231.681 287.655 231.827 288.101 232.12C288.547 232.412 288.895 232.826 289.146 233.363C289.396 233.899 289.521 234.532 289.521 235.261C289.521 235.996 289.396 236.634 289.146 237.173C288.895 237.709 288.549 238.125 288.106 238.421C287.663 238.713 287.152 238.859 286.574 238.859C286.128 238.859 285.771 238.785 285.502 238.638C285.234 238.487 285.028 238.317 284.883 238.127C284.739 237.934 284.627 237.774 284.549 237.648H284.458V241.318H283.392ZM284.44 235.243C284.44 235.767 284.517 236.23 284.671 236.631C284.824 237.028 285.049 237.34 285.344 237.566C285.64 237.789 286.001 237.901 286.429 237.901C286.875 237.901 287.247 237.783 287.545 237.548C287.847 237.31 288.073 236.991 288.224 236.59C288.377 236.186 288.454 235.737 288.454 235.243C288.454 234.755 288.379 234.315 288.228 233.923C288.08 233.528 287.856 233.216 287.555 232.987C287.256 232.755 286.881 232.639 286.429 232.639C285.995 232.639 285.63 232.749 285.335 232.969C285.04 233.186 284.817 233.491 284.666 233.882C284.516 234.271 284.44 234.725 284.44 235.243ZM293.459 238.859C292.833 238.859 292.283 238.71 291.81 238.412C291.339 238.113 290.972 237.696 290.707 237.159C290.445 236.623 290.313 235.996 290.313 235.279C290.313 234.556 290.445 233.925 290.707 233.385C290.972 232.846 291.339 232.427 291.81 232.129C292.283 231.83 292.833 231.681 293.459 231.681C294.086 231.681 294.635 231.83 295.105 232.129C295.578 232.427 295.945 232.846 296.208 233.385C296.473 233.925 296.605 234.556 296.605 235.279C296.605 235.996 296.473 236.623 296.208 237.159C295.945 237.696 295.578 238.113 295.105 238.412C294.635 238.71 294.086 238.859 293.459 238.859ZM293.459 237.901C293.936 237.901 294.327 237.779 294.635 237.535C294.942 237.291 295.17 236.97 295.317 236.572C295.465 236.174 295.539 235.743 295.539 235.279C295.539 234.815 295.465 234.383 295.317 233.982C295.17 233.581 294.942 233.257 294.635 233.01C294.327 232.763 293.936 232.639 293.459 232.639C292.983 232.639 292.592 232.763 292.284 233.01C291.977 233.257 291.749 233.581 291.602 233.982C291.454 234.383 291.38 234.815 291.38 235.279C291.38 235.743 291.454 236.174 291.602 236.572C291.749 236.97 291.977 237.291 292.284 237.535C292.592 237.779 292.983 237.901 293.459 237.901ZM302.642 233.326L301.684 233.598C301.624 233.438 301.535 233.283 301.418 233.132C301.303 232.978 301.146 232.852 300.947 232.752C300.749 232.653 300.494 232.603 300.184 232.603C299.759 232.603 299.405 232.701 299.121 232.897C298.841 233.09 298.701 233.335 298.701 233.634C298.701 233.899 298.797 234.108 298.99 234.262C299.183 234.416 299.484 234.544 299.894 234.646L300.925 234.899C301.546 235.05 302.008 235.281 302.312 235.591C302.617 235.898 302.769 236.295 302.769 236.78C302.769 237.178 302.655 237.533 302.425 237.846C302.199 238.16 301.883 238.407 301.476 238.588C301.069 238.769 300.596 238.859 300.057 238.859C299.349 238.859 298.763 238.705 298.299 238.398C297.835 238.091 297.541 237.642 297.417 237.051L298.43 236.798C298.526 237.171 298.708 237.452 298.977 237.639C299.248 237.825 299.602 237.919 300.039 237.919C300.536 237.919 300.931 237.813 301.223 237.602C301.518 237.388 301.666 237.132 301.666 236.834C301.666 236.593 301.582 236.391 301.413 236.228C301.244 236.063 300.985 235.939 300.636 235.858L299.478 235.586C298.843 235.436 298.375 235.202 298.077 234.886C297.782 234.566 297.634 234.167 297.634 233.688C297.634 233.296 297.744 232.95 297.964 232.648C298.187 232.347 298.49 232.111 298.873 231.939C299.258 231.767 299.695 231.681 300.184 231.681C300.871 231.681 301.41 231.832 301.802 232.133C302.196 232.434 302.477 232.832 302.642 233.326ZM306.777 238.859C306.108 238.859 305.531 238.711 305.045 238.416C304.563 238.118 304.191 237.702 303.929 237.168C303.67 236.632 303.54 236.008 303.54 235.297C303.54 234.586 303.67 233.959 303.929 233.417C304.191 232.871 304.556 232.446 305.023 232.142C305.493 231.835 306.041 231.681 306.668 231.681C307.03 231.681 307.387 231.741 307.739 231.862C308.092 231.982 308.413 232.178 308.702 232.45C308.991 232.718 309.222 233.073 309.394 233.516C309.565 233.959 309.651 234.505 309.651 235.153V235.605H304.3V234.682H308.567C308.567 234.291 308.488 233.941 308.331 233.634C308.178 233.326 307.958 233.084 307.672 232.906C307.388 232.728 307.054 232.639 306.668 232.639C306.243 232.639 305.876 232.745 305.565 232.956C305.258 233.164 305.021 233.435 304.856 233.769C304.69 234.104 304.607 234.462 304.607 234.845V235.46C304.607 235.984 304.697 236.429 304.878 236.793C305.062 237.155 305.317 237.431 305.642 237.62C305.967 237.807 306.346 237.901 306.777 237.901C307.057 237.901 307.31 237.862 307.536 237.783C307.765 237.702 307.962 237.581 308.128 237.422C308.294 237.259 308.422 237.057 308.512 236.816L309.543 237.105C309.434 237.455 309.252 237.762 308.996 238.027C308.74 238.289 308.423 238.494 308.047 238.642C307.67 238.787 307.247 238.859 306.777 238.859ZM313.98 238.714V229.457H315.101V233.58H320.037V229.457H321.158V238.714H320.037V234.574H315.101V238.714H313.98ZM324.792 238.877C324.352 238.877 323.953 238.794 323.594 238.628C323.235 238.46 322.951 238.217 322.74 237.901C322.529 237.581 322.423 237.196 322.423 236.744C322.423 236.346 322.502 236.023 322.658 235.776C322.815 235.526 323.024 235.33 323.287 235.189C323.549 235.047 323.838 234.942 324.154 234.872C324.474 234.8 324.795 234.743 325.117 234.701C325.539 234.646 325.881 234.606 326.143 234.578C326.408 234.548 326.601 234.499 326.722 234.429C326.845 234.36 326.907 234.239 326.907 234.068V234.032C326.907 233.586 326.785 233.239 326.541 232.992C326.3 232.745 325.934 232.621 325.443 232.621C324.933 232.621 324.534 232.733 324.245 232.956C323.956 233.179 323.752 233.417 323.635 233.67L322.622 233.308C322.803 232.886 323.044 232.558 323.345 232.323C323.65 232.085 323.981 231.919 324.34 231.826C324.701 231.729 325.057 231.681 325.406 231.681C325.629 231.681 325.886 231.708 326.175 231.762C326.467 231.814 326.749 231.921 327.02 232.083C327.294 232.246 327.522 232.492 327.703 232.82C327.884 233.149 327.974 233.589 327.974 234.14V238.714H326.907V237.774H326.853C326.781 237.925 326.66 238.086 326.491 238.258C326.323 238.43 326.098 238.576 325.818 238.696C325.538 238.817 325.196 238.877 324.792 238.877ZM324.954 237.919C325.376 237.919 325.732 237.836 326.021 237.67C326.314 237.504 326.533 237.291 326.681 237.028C326.832 236.766 326.907 236.49 326.907 236.201V235.225C326.862 235.279 326.763 235.329 326.609 235.374C326.458 235.416 326.283 235.454 326.085 235.487C325.889 235.517 325.697 235.544 325.51 235.568C325.327 235.589 325.177 235.608 325.063 235.623C324.786 235.659 324.527 235.718 324.286 235.799C324.047 235.877 323.855 235.996 323.707 236.156C323.562 236.313 323.49 236.527 323.49 236.798C323.49 237.168 323.627 237.449 323.901 237.639C324.179 237.825 324.53 237.919 324.954 237.919ZM330.479 229.457V238.714H329.412V229.457H330.479ZM332.99 229.457V238.714H331.923V229.457H332.99Z" fill="#0069BA"/>
<circle cx="318.794" cy="164.893" r="8.67857" fill="#0069BA"/>
<rect x="313.586" y="162" width="5.78571" height="5.78571" rx="1.15714" fill="#E0F4FF"/>
<path d="M320.529 164.609C320.529 164.189 320.757 163.802 321.124 163.598L322.282 162.955C323.053 162.527 324.001 163.084 324.001 163.967V165.819C324.001 166.701 323.053 167.259 322.282 166.831L321.124 166.188C320.757 165.984 320.529 165.597 320.529 165.176V164.609Z" fill="#E0F4FF"/>
<mask id="path-16-inside-4_1547_3829" fill="white">
<path d="M215.229 268.457C215.229 265.262 217.819 262.671 221.014 262.671H424.671C427.867 262.671 430.457 265.262 430.457 268.457V387.643C430.457 390.838 427.867 393.429 424.671 393.429H221.014C217.819 393.429 215.229 390.838 215.229 387.643V268.457Z"/>
</mask>
<path d="M215.229 268.457C215.229 265.262 217.819 262.671 221.014 262.671H424.671C427.867 262.671 430.457 265.262 430.457 268.457V387.643C430.457 390.838 427.867 393.429 424.671 393.429H221.014C217.819 393.429 215.229 390.838 215.229 387.643V268.457Z" fill="#E0F4FF"/>
<path d="M215.229 262.671H430.457H215.229ZM430.457 393.429H215.229H430.457ZM221.014 393.429C214.624 393.429 209.443 388.248 209.443 381.857V274.243C209.443 267.852 214.624 262.671 221.014 262.671C221.014 262.671 221.014 265.262 221.014 268.457V387.643C221.014 390.838 221.014 393.429 221.014 393.429ZM430.457 262.671V393.429V262.671Z" fill="#0069BA" mask="url(#path-16-inside-4_1547_3829)"/>
<line x1="-0.00165305" y1="132.609" x2="647.998" y2="130.294" stroke="#C6B9B9" stroke-width="0.925714"/>
<line x1="-0.00165305" y1="263.366" x2="647.998" y2="261.051" stroke="#C6B9B9" stroke-width="0.925714"/>
<line x1="214.766" y1="635.271" x2="214.766" y2="1.15723" stroke="#C6B9B9" stroke-width="0.925714"/>
</g>
<defs>
<clipPath id="clip0_1547_3829">
<rect width="358" height="264" fill="white"/>
</clipPath>
</defs>
</svg>
