<svg width="56" height="74" viewBox="0 0 56 74" fill="none" xmlns="http://www.w3.org/2000/svg">
<path d="M27.8262 73.0475C22.6416 73.0475 18.024 72.1564 13.9735 70.3742C9.9462 68.5688 6.76368 66.0923 4.42597 62.9445C2.11141 59.7735 0.919412 56.1165 0.849976 51.9734H15.9872C16.0798 53.7094 16.6468 55.237 17.6884 56.5563C18.7531 57.8524 20.165 58.8593 21.924 59.5768C23.6831 60.2943 25.6621 60.653 27.8609 60.653C30.1523 60.653 32.1775 60.248 33.9366 59.4379C35.6957 58.6278 37.0728 57.5052 38.0681 56.0702C39.0634 54.6352 39.561 52.9803 39.561 51.1055C39.561 49.2075 39.0286 47.5295 37.9639 46.0713C36.9224 44.59 35.4179 43.4327 33.4506 42.5995C31.5063 41.7662 29.1918 41.3496 26.5069 41.3496H19.8757V30.3092H26.5069C28.7751 30.3092 30.7772 29.9157 32.5132 29.1287C34.2722 28.3418 35.6378 27.2539 36.6099 25.8652C37.582 24.4533 38.0681 22.81 38.0681 20.9352C38.0681 19.153 37.6399 17.5907 36.7835 16.2482C35.9503 14.8826 34.7698 13.8179 33.2422 13.0541C31.7378 12.2903 29.9787 11.9084 27.965 11.9084C25.9282 11.9084 24.065 12.2787 22.3754 13.0194C20.6858 13.7369 19.3317 14.7669 18.3133 16.1093C17.2949 17.4518 16.751 19.0257 16.6816 20.831H2.27343C2.34287 16.7343 3.51172 13.1236 5.77999 9.9989C8.04826 6.87424 11.1035 4.43238 14.9456 2.67332C18.811 0.891105 23.1739 0 28.0345 0C32.9413 0 37.2349 0.891105 40.915 2.67332C44.5952 4.45553 47.4536 6.86267 49.4905 9.89474C51.5504 12.9037 52.5688 16.2829 52.5457 20.0325C52.5688 24.0136 51.3305 27.335 48.8308 29.9967C46.3542 32.6584 43.1254 34.3481 39.1444 35.0656V35.6211C44.3753 36.2923 48.3563 38.1092 51.0875 41.0719C53.8418 44.0114 55.2074 47.6915 55.1843 52.1123C55.2074 56.1628 54.0386 59.7619 51.6777 62.9097C49.34 66.0575 46.1112 68.5341 41.9913 70.3395C37.8714 72.1448 33.1497 73.0475 27.8262 73.0475Z" fill="#DDA73A"/>
</svg>
