<svg width="1440" height="1024" viewBox="0 0 1440 1024" fill="none" xmlns="http://www.w3.org/2000/svg">
<g clip-path="url(#clip0_3690_12300)">
<rect width="1440" height="1024" fill="white"/>
<path opacity="0.05" d="M-19.685 641V381.85H77.405C154.42 381.85 181.43 411.415 181.43 467.625C181.43 500.84 169.02 557.05 88.355 557.05H36.16V641H-19.685ZM36.16 507.775H73.025C105.51 507.775 125.585 497.555 125.585 467.625C125.585 442.075 109.89 431.125 77.77 431.125H36.16V507.775ZM360.482 641L338.947 572.015H237.112L215.212 641H155.352L246.967 381.85H329.822L420.342 641H360.482ZM252.442 523.835H323.982L295.512 432.22C292.227 415.065 291.132 398.64 291.132 398.64H285.657C285.657 398.64 284.562 415.065 281.277 432.22L252.442 523.835ZM422.863 510.33C422.863 435.14 469.218 373.82 549.883 373.82C610.108 373.82 657.193 405.94 669.968 456.675L614.853 470.18C604.268 437.695 576.893 426.015 549.883 426.015C503.528 426.015 478.343 461.055 478.343 510.33C478.343 560.7 504.258 596.105 550.613 596.105C593.318 596.105 613.758 580.775 613.758 556.685H556.818V511.79H694.423L695.518 588.44C695.883 626.765 705.738 636.62 710.848 638.08V641H659.018C655.368 639.175 650.988 631.145 650.988 607.785L651.353 547.56H645.513C645.513 590.63 632.738 649.03 550.613 649.03C469.948 649.03 422.863 586.25 422.863 510.33ZM898.156 431.855H771.866V485.145H886.841V533.69H771.866V590.995H898.156V641H716.386V381.85H898.156V431.855ZM1161.41 381.85H1216.53V641H1135.13L1031.11 454.85V641H976.357V381.85H1052.64L1161.41 576.03V381.85ZM1238.2 509.965C1238.2 434.775 1291.12 373.82 1371.79 373.82C1452.45 373.82 1505.74 434.775 1505.74 509.965C1505.74 585.885 1452.45 649.03 1371.79 649.03C1291.12 649.03 1238.2 585.885 1238.2 509.965ZM1295.87 509.965C1295.87 557.415 1323.97 595.375 1371.79 595.375C1419.6 595.375 1448.07 557.415 1448.07 509.965C1448.07 461.42 1419.6 426.38 1371.79 426.38C1323.97 426.38 1295.87 461.42 1295.87 509.965ZM1702.27 381.85V430.76H1632.92V641H1577.8V430.76H1508.09V381.85H1702.27ZM1937.33 381.85V431.125H1812.13V492.08H1923.82V540.26H1812.13V641H1758.11V381.85H1937.33ZM1952.2 509.965C1952.2 434.775 2005.13 373.82 2085.79 373.82C2166.46 373.82 2219.75 434.775 2219.75 509.965C2219.75 585.885 2166.46 649.03 2085.79 649.03C2005.13 649.03 1952.2 585.885 1952.2 509.965ZM2009.87 509.965C2009.87 557.415 2037.98 595.375 2085.79 595.375C2133.61 595.375 2162.08 557.415 2162.08 509.965C2162.08 461.42 2133.61 426.38 2085.79 426.38C2037.98 426.38 2009.87 461.42 2009.87 509.965ZM2349.4 648.3C2251.58 648.3 2247.2 576.395 2247.2 535.515V381.485H2303.05V503.395C2303.05 581.87 2312.54 598.295 2349.4 598.295C2387 598.295 2397.58 581.87 2397.58 503.395V382.215H2453.43V535.515C2453.43 576.395 2449.05 648.3 2349.4 648.3ZM2660.61 381.85H2715.72V641H2634.33L2530.3 454.85V641H2475.55V381.85H2551.84L2660.61 576.03V381.85ZM2734.74 641V381.85H2830C2917.6 381.85 2963.23 438.79 2963.23 511.425C2963.23 584.06 2917.6 641 2830 641H2734.74ZM2821.61 591.36C2880.37 591.36 2907.02 565.445 2907.02 511.425C2907.02 458.135 2880.37 431.125 2821.61 431.125H2790.22V591.36H2821.61Z" fill="url(#paint0_linear_3690_12300)"/>
</g>
<defs>
<linearGradient id="paint0_linear_3690_12300" x1="2975" y1="533.5" x2="-31" y2="533.5" gradientUnits="userSpaceOnUse">
<stop offset="0.401482"/>
<stop offset="0.937635" stop-opacity="0.5"/>
</linearGradient>
<clipPath id="clip0_3690_12300">
<rect width="1440" height="1024" fill="white"/>
</clipPath>
</defs>
</svg>
