<svg width="54" height="73" viewBox="0 0 54 73" fill="none" xmlns="http://www.w3.org/2000/svg">
<path d="M26.511 72.0754C21.6041 72.0754 17.2296 71.1727 13.3874 69.3674C9.56842 67.562 6.53635 65.0739 4.29123 61.9029C2.0461 58.732 0.877251 55.0981 0.784668 51.0013H15.3664C15.5284 53.7557 16.6857 55.9892 18.8382 57.702C20.9908 59.4148 23.5484 60.2711 26.511 60.2711C28.8718 60.2711 30.955 59.7504 32.7603 58.7088C34.5888 57.6441 36.0123 56.1744 37.0307 54.2996C38.0722 52.4016 38.593 50.226 38.593 47.7725C38.593 45.2728 38.0606 43.074 36.996 41.176C35.9544 39.2781 34.5078 37.7968 32.6562 36.7321C30.8045 35.6674 28.6867 35.1234 26.3027 35.1003C24.2196 35.1003 22.1943 35.5285 20.227 36.3849C18.2827 37.2413 16.7667 38.4101 15.6789 39.8914L2.31228 37.4959L5.67996 0H49.1474V12.2903H18.0744L16.2344 30.1008H16.651C17.9008 28.3418 19.7872 26.8836 22.3101 25.7263C24.8329 24.5691 27.6567 23.9904 30.7814 23.9904C35.0633 23.9904 38.8823 24.9972 42.2384 27.0109C45.5945 29.0246 48.2447 31.7905 50.1889 35.3086C52.1332 38.8036 53.0937 42.8309 53.0706 47.3906C53.0937 52.1818 51.9827 56.4405 49.7376 60.167C47.5156 63.8703 44.4025 66.7866 40.3984 68.916C36.4173 71.0223 31.7882 72.0754 26.511 72.0754Z" fill="#14496B"/>
</svg>
