<svg width="212" height="77" viewBox="0 0 212 77" fill="none" xmlns="http://www.w3.org/2000/svg">
<path d="M27.8262 73.0475C22.6416 73.0475 18.024 72.1564 13.9735 70.3742C9.9462 68.5688 6.76368 66.0923 4.42597 62.9445C2.11141 59.7735 0.919412 56.1165 0.849976 51.9734H15.9872C16.0798 53.7094 16.6468 55.237 17.6884 56.5563C18.7531 57.8524 20.165 58.8593 21.924 59.5768C23.6831 60.2943 25.6621 60.653 27.8609 60.653C30.1523 60.653 32.1775 60.248 33.9366 59.4379C35.6957 58.6278 37.0728 57.5052 38.0681 56.0702C39.0634 54.6352 39.561 52.9803 39.561 51.1055C39.561 49.2075 39.0286 47.5295 37.9639 46.0713C36.9224 44.59 35.4179 43.4327 33.4506 42.5995C31.5063 41.7662 29.1918 41.3496 26.5069 41.3496H19.8757V30.3092H26.5069C28.7751 30.3092 30.7772 29.9157 32.5132 29.1287C34.2722 28.3418 35.6378 27.2539 36.6099 25.8652C37.582 24.4533 38.0681 22.81 38.0681 20.9352C38.0681 19.153 37.6399 17.5907 36.7835 16.2482C35.9503 14.8826 34.7698 13.8179 33.2422 13.0541C31.7378 12.2903 29.9787 11.9084 27.965 11.9084C25.9282 11.9084 24.065 12.2787 22.3754 13.0194C20.6858 13.7369 19.3317 14.7669 18.3133 16.1093C17.2949 17.4518 16.751 19.0257 16.6816 20.831H2.27343C2.34287 16.7343 3.51172 13.1236 5.77999 9.9989C8.04826 6.87424 11.1035 4.43238 14.9456 2.67332C18.811 0.891105 23.1739 0 28.0345 0C32.9413 0 37.2349 0.891105 40.915 2.67332C44.5952 4.45553 47.4536 6.86267 49.4905 9.89474C51.5504 12.9037 52.5688 16.2829 52.5457 20.0325C52.5688 24.0136 51.3305 27.335 48.8308 29.9967C46.3542 32.6584 43.1254 34.3481 39.1444 35.0656V35.6211C44.3753 36.2923 48.3563 38.1092 51.0875 41.0719C53.8418 44.0114 55.2074 47.6915 55.1843 52.1123C55.2074 56.1628 54.0386 59.7619 51.6777 62.9097C49.34 66.0575 46.1112 68.5341 41.9913 70.3395C37.8714 72.1448 33.1497 73.0475 27.8262 73.0475Z" fill="#DDA73A"/>
<g filter="url(#filter0_b_678_952)">
<path d="M71.0042 57.537C70.9786 57.2791 70.8689 57.0789 70.675 56.9361C70.4811 56.7933 70.218 56.722 69.8856 56.722C69.6597 56.722 69.469 56.7539 69.3135 56.8178C69.158 56.8796 69.0386 56.9659 68.9555 57.0767C68.8746 57.1875 68.8341 57.3132 68.8341 57.4539C68.8298 57.571 68.8543 57.6733 68.9076 57.7607C68.963 57.848 69.0386 57.9237 69.1345 57.9876C69.2304 58.0494 69.3412 58.1037 69.4669 58.1506C69.5926 58.1953 69.7269 58.2337 69.8696 58.2656L70.4577 58.4063C70.7432 58.4702 71.0053 58.5554 71.2439 58.662C71.4825 58.7685 71.6892 58.8995 71.8639 59.0551C72.0386 59.2106 72.1739 59.3938 72.2698 59.6048C72.3678 59.8157 72.4179 60.0576 72.42 60.3303C72.4179 60.7308 72.3156 61.0781 72.1132 61.3722C71.9129 61.6641 71.6232 61.891 71.2439 62.0529C70.8668 62.2127 70.4119 62.2926 69.8792 62.2926C69.3508 62.2926 68.8906 62.2117 68.4985 62.0497C68.1086 61.8878 67.8039 61.6481 67.5845 61.3306C67.3671 61.011 67.2531 60.6158 67.2425 60.1449H68.5816C68.5965 60.3644 68.6594 60.5476 68.7702 60.6946C68.8831 60.8395 69.0333 60.9492 69.2208 61.0238C69.4104 61.0963 69.6246 61.1325 69.8632 61.1325C70.0976 61.1325 70.3011 61.0984 70.4737 61.0302C70.6484 60.962 70.7837 60.8672 70.8796 60.7458C70.9754 60.6243 71.0234 60.4848 71.0234 60.3271C71.0234 60.1801 70.9797 60.0565 70.8923 59.9563C70.8071 59.8562 70.6814 59.771 70.5152 59.7007C70.3511 59.6303 70.1498 59.5664 69.9112 59.5089L69.1984 59.3299C68.6466 59.1957 68.2109 58.9858 67.8913 58.7003C67.5717 58.4148 67.4129 58.0302 67.4151 57.5465C67.4129 57.1502 67.5184 56.804 67.7315 56.5078C67.9467 56.2117 68.2418 55.9805 68.6168 55.8143C68.9918 55.6481 69.4179 55.565 69.8952 55.565C70.381 55.565 70.805 55.6481 71.1672 55.8143C71.5315 55.9805 71.8149 56.2117 72.0173 56.5078C72.2197 56.804 72.3242 57.147 72.3305 57.537H71.0042ZM75.4012 62.2H73.0809V55.6545H75.4204C76.0787 55.6545 76.6455 55.7855 77.1206 56.0476C77.5958 56.3076 77.9612 56.6815 78.2169 57.1694C78.4747 57.6573 78.6036 58.2411 78.6036 58.9208C78.6036 59.6026 78.4747 60.1886 78.2169 60.6786C77.9612 61.1687 77.5937 61.5448 77.1143 61.8068C76.637 62.0689 76.066 62.2 75.4012 62.2ZM74.4648 61.0142H75.3437C75.7527 61.0142 76.0969 60.9418 76.376 60.7969C76.6572 60.6499 76.8682 60.423 77.0088 60.1161C77.1515 59.8072 77.2229 59.4088 77.2229 58.9208C77.2229 58.4372 77.1515 58.0419 77.0088 57.7351C76.8682 57.4283 76.6583 57.2024 76.3792 57.0576C76.1001 56.9127 75.7559 56.8402 75.3469 56.8402H74.4648V61.0142ZM83.6989 57.7703C83.6542 57.6147 83.5913 57.4773 83.5104 57.358C83.4294 57.2365 83.3303 57.1343 83.2131 57.0512C83.0981 56.9659 82.966 56.9009 82.8168 56.8562C82.6698 56.8115 82.5068 56.7891 82.3278 56.7891C81.9933 56.7891 81.6993 56.8722 81.4457 57.0384C81.1943 57.2046 80.9983 57.4464 80.8577 57.7639C80.717 58.0792 80.6467 58.4649 80.6467 58.9208C80.6467 59.3768 80.716 59.7646 80.8545 60.0842C80.993 60.4038 81.189 60.6477 81.4425 60.8161C81.6961 60.9823 81.9954 61.0654 82.3406 61.0654C82.6538 61.0654 82.9212 61.01 83.1428 60.8992C83.3665 60.7862 83.537 60.6275 83.6542 60.423C83.7735 60.2184 83.8332 59.9766 83.8332 59.6975L84.1144 59.739H82.4269V58.6971H85.1659V59.5217C85.1659 60.097 85.0445 60.5913 84.8016 61.0046C84.5587 61.4159 84.2241 61.7333 83.798 61.9571C83.3719 62.1786 82.8839 62.2894 82.3342 62.2894C81.7206 62.2894 81.1815 62.1541 80.717 61.8835C80.2525 61.6108 79.8903 61.2241 79.6304 60.7234C79.3726 60.2205 79.2437 59.624 79.2437 58.9336C79.2437 58.4031 79.3204 57.9301 79.4738 57.5146C79.6293 57.097 79.8467 56.7433 80.1258 56.4535C80.4049 56.1637 80.7298 55.9432 81.1006 55.7919C81.4713 55.6406 81.8729 55.565 82.3055 55.565C82.6762 55.565 83.0214 55.6193 83.341 55.728C83.6606 55.8345 83.944 55.9858 84.1911 56.1818C84.4404 56.3779 84.6439 56.6112 84.8016 56.8818C84.9592 57.1502 85.0604 57.4464 85.1052 57.7703H83.6989ZM85.8971 62.2V61.2028L88.227 59.0455C88.4251 58.8537 88.5913 58.6811 88.7255 58.5277C88.8619 58.3743 88.9652 58.2241 89.0355 58.0771C89.1059 57.9279 89.141 57.7671 89.141 57.5945C89.141 57.4027 89.0973 57.2376 89.01 57.0991C88.9226 56.9585 88.8033 56.8509 88.652 56.7763C88.5007 56.6996 88.3292 56.6612 88.1375 56.6612C87.9372 56.6612 87.7625 56.7017 87.6133 56.7827C87.4642 56.8637 87.3491 56.9798 87.2681 57.1311C87.1872 57.2823 87.1467 57.4624 87.1467 57.6712H85.8331C85.8331 57.2429 85.9301 56.8711 86.124 56.5558C86.3179 56.2404 86.5895 55.9965 86.939 55.8239C87.2884 55.6513 87.6911 55.565 88.1471 55.565C88.6158 55.565 89.0238 55.6481 89.3711 55.8143C89.7206 55.9784 89.9922 56.2063 90.1861 56.4982C90.38 56.7901 90.477 57.1247 90.477 57.5018C90.477 57.749 90.4279 57.9929 90.3299 58.2337C90.2341 58.4745 90.0625 58.7419 89.8154 59.0359C89.5682 59.3278 89.2199 59.6783 88.7703 60.0874L87.8147 61.0238V61.0686H90.5632V62.2H85.8971Z" fill="#6746A5"/>
<path d="M93.602 62.2V61.6247L97.1304 56.3576H93.5636V55.6545H98.0764V56.2298L94.548 61.4968H98.1148V62.2H93.602ZM99.1743 62.2V55.6545H103.125V56.3576H99.9669V58.5693H102.92V59.2724H99.9669V61.4968H103.176V62.2H99.1743ZM104.283 62.2V55.6545H106.495C107.006 55.6545 107.426 55.7419 107.754 55.9166C108.082 56.0892 108.325 56.3267 108.483 56.6293C108.64 56.9318 108.719 57.2759 108.719 57.6616C108.719 58.0473 108.64 58.3892 108.483 58.6875C108.325 58.9858 108.083 59.2202 107.757 59.3906C107.431 59.559 107.015 59.6431 106.508 59.6431H104.718V58.9272H106.482C106.832 58.9272 107.113 58.8761 107.326 58.7738C107.541 58.6715 107.697 58.5267 107.792 58.3392C107.89 58.1495 107.939 57.9237 107.939 57.6616C107.939 57.3995 107.89 57.1705 107.792 56.9745C107.694 56.7784 107.538 56.6272 107.323 56.5206C107.107 56.412 106.823 56.3576 106.469 56.3576H105.076V62.2H104.283ZM107.364 59.2596L108.975 62.2H108.055L106.469 59.2596H107.364ZM115.293 58.9272C115.293 59.6176 115.168 60.2142 114.919 60.717C114.67 61.2198 114.328 61.6076 113.893 61.8803C113.458 62.1531 112.962 62.2894 112.404 62.2894C111.845 62.2894 111.349 62.1531 110.914 61.8803C110.48 61.6076 110.138 61.2198 109.888 60.717C109.639 60.2142 109.514 59.6176 109.514 58.9272C109.514 58.2369 109.639 57.6403 109.888 57.1375C110.138 56.6346 110.48 56.2468 110.914 55.9741C111.349 55.7014 111.845 55.565 112.404 55.565C112.962 55.565 113.458 55.7014 113.893 55.9741C114.328 56.2468 114.67 56.6346 114.919 57.1375C115.168 57.6403 115.293 58.2369 115.293 58.9272ZM114.526 58.9272C114.526 58.3605 114.431 57.8821 114.241 57.4922C114.054 57.1023 113.799 56.8072 113.477 56.6069C113.158 56.4066 112.8 56.3065 112.404 56.3065C112.007 56.3065 111.648 56.4066 111.327 56.6069C111.007 56.8072 110.752 57.1023 110.563 57.4922C110.375 57.8821 110.281 58.3605 110.281 58.9272C110.281 59.494 110.375 59.9723 110.563 60.3622C110.752 60.7522 111.007 61.0473 111.327 61.2475C111.648 61.4478 112.007 61.548 112.404 61.548C112.8 61.548 113.158 61.4478 113.477 61.2475C113.799 61.0473 114.054 60.7522 114.241 60.3622C114.431 59.9723 114.526 59.494 114.526 58.9272ZM118.617 62.2V55.6545H119.409V58.5693H122.899V55.6545H123.692V62.2H122.899V59.2724H119.409V62.2H118.617ZM129.304 55.6545H130.097V59.9883C130.097 60.4357 129.991 60.8352 129.781 61.1868C129.572 61.5362 129.277 61.8122 128.895 62.0146C128.514 62.2149 128.066 62.315 127.553 62.315C127.039 62.315 126.592 62.2149 126.211 62.0146C125.829 61.8122 125.533 61.5362 125.322 61.1868C125.113 60.8352 125.009 60.4357 125.009 59.9883V55.6545H125.802V59.9244C125.802 60.244 125.872 60.5284 126.012 60.7777C126.153 61.0249 126.353 61.2198 126.613 61.3626C126.875 61.5032 127.189 61.5735 127.553 61.5735C127.917 61.5735 128.23 61.5032 128.493 61.3626C128.755 61.2198 128.955 61.0249 129.093 60.7777C129.234 60.5284 129.304 60.244 129.304 59.9244V55.6545ZM136.6 55.6545V62.2H135.833L132.266 57.0607H132.202V62.2H131.41V55.6545H132.177L135.756 60.8065H135.82V55.6545H136.6ZM142.391 57.7C142.32 57.4848 142.228 57.2919 142.113 57.1215C142 56.9489 141.864 56.8019 141.707 56.6804C141.551 56.559 141.374 56.4663 141.176 56.4024C140.978 56.3384 140.761 56.3065 140.524 56.3065C140.136 56.3065 139.784 56.4066 139.466 56.6069C139.149 56.8072 138.896 57.1023 138.709 57.4922C138.521 57.8821 138.428 58.3605 138.428 58.9272C138.428 59.494 138.522 59.9723 138.712 60.3622C138.902 60.7522 139.158 61.0473 139.482 61.2475C139.806 61.4478 140.17 61.548 140.575 61.548C140.95 61.548 141.281 61.4681 141.566 61.3083C141.854 61.1463 142.077 60.9183 142.237 60.6243C142.399 60.3281 142.48 59.9798 142.48 59.5792L142.723 59.6303H140.754V58.9272H143.247V59.6303C143.247 60.1694 143.132 60.6382 142.902 61.0366C142.674 61.435 142.359 61.744 141.956 61.9634C141.555 62.1808 141.095 62.2894 140.575 62.2894C139.996 62.2894 139.486 62.1531 139.048 61.8803C138.611 61.6076 138.27 61.2198 138.025 60.717C137.782 60.2142 137.66 59.6176 137.66 58.9272C137.66 58.4095 137.73 57.9439 137.868 57.5306C138.009 57.1151 138.207 56.7614 138.463 56.4695C138.718 56.1776 139.021 55.9539 139.37 55.7983C139.72 55.6428 140.104 55.565 140.524 55.565C140.869 55.565 141.191 55.6172 141.489 55.7216C141.79 55.8239 142.057 55.9698 142.292 56.1595C142.528 56.347 142.725 56.5718 142.883 56.8338C143.04 57.0938 143.149 57.3825 143.209 57.7H142.391ZM144.335 62.2V55.6545H148.285V56.3576H145.127V58.5693H148.08V59.2724H145.127V61.4968H148.336V62.2H144.335ZM149.444 62.2V55.6545H151.655C152.167 55.6545 152.586 55.7419 152.914 55.9166C153.243 56.0892 153.485 56.3267 153.643 56.6293C153.801 56.9318 153.88 57.2759 153.88 57.6616C153.88 58.0473 153.801 58.3892 153.643 58.6875C153.485 58.9858 153.244 59.2202 152.918 59.3906C152.592 59.559 152.175 59.6431 151.668 59.6431H149.878V58.9272H151.642C151.992 58.9272 152.273 58.8761 152.486 58.7738C152.701 58.6715 152.857 58.5267 152.953 58.3392C153.051 58.1495 153.1 57.9237 153.1 57.6616C153.1 57.3995 153.051 57.1705 152.953 56.9745C152.855 56.7784 152.698 56.6272 152.483 56.5206C152.268 56.412 151.983 56.3576 151.63 56.3576H150.236V62.2H149.444ZM152.525 59.2596L154.135 62.2H153.215L151.63 59.2596H152.525Z" fill="black"/>
<path d="M67.5621 72.5V71.9247L69.7226 69.5597C69.9761 69.2827 70.1849 69.0419 70.349 68.8374C70.5131 68.6307 70.6345 68.4368 70.7134 68.2557C70.7943 68.0724 70.8348 67.8807 70.8348 67.6804C70.8348 67.4503 70.7794 67.2511 70.6686 67.0827C70.5599 66.9144 70.4108 66.7844 70.2212 66.6928C70.0315 66.6012 69.8185 66.5554 69.582 66.5554C69.3305 66.5554 69.1111 66.6076 68.9236 66.712C68.7382 66.8143 68.5944 66.9581 68.4921 67.1435C68.392 67.3288 68.3419 67.5462 68.3419 67.7955H67.5876C67.5876 67.4119 67.6761 67.0753 67.8529 66.7855C68.0298 66.4957 68.2705 66.2699 68.5752 66.108C68.882 65.946 69.2261 65.8651 69.6075 65.8651C69.9911 65.8651 70.3309 65.946 70.6271 66.108C70.9232 66.2699 71.1555 66.4883 71.3238 66.7631C71.4921 67.038 71.5763 67.3438 71.5763 67.6804C71.5763 67.9212 71.5326 68.1566 71.4452 68.3867C71.36 68.6147 71.2109 68.8693 70.9978 69.1506C70.7869 69.4297 70.4939 69.7706 70.1189 70.1733L68.6487 71.7457V71.7969H71.6913V72.5H67.5621ZM74.8762 72.5895C74.3947 72.5895 73.9845 72.4585 73.6458 72.1964C73.307 71.9322 73.0481 71.5497 72.8691 71.049C72.6902 70.5462 72.6007 69.9389 72.6007 69.2273C72.6007 68.5199 72.6902 67.9158 72.8691 67.4151C73.0502 66.9123 73.3102 66.5288 73.649 66.2646C73.9899 65.9982 74.399 65.8651 74.8762 65.8651C75.3535 65.8651 75.7615 65.9982 76.1003 66.2646C76.4412 66.5288 76.7012 66.9123 76.8801 67.4151C77.0613 67.9158 77.1518 68.5199 77.1518 69.2273C77.1518 69.9389 77.0623 70.5462 76.8833 71.049C76.7044 71.5497 76.4455 71.9322 76.1067 72.1964C75.7679 72.4585 75.3578 72.5895 74.8762 72.5895ZM74.8762 71.8864C75.3535 71.8864 75.7243 71.6562 75.9885 71.196C76.2527 70.7358 76.3848 70.0795 76.3848 69.2273C76.3848 68.6605 76.324 68.1779 76.2026 67.7795C76.0833 67.381 75.9107 67.0774 75.6848 66.8686C75.4611 66.6598 75.1916 66.5554 74.8762 66.5554C74.4032 66.5554 74.0336 66.7887 73.7672 67.2553C73.5009 67.7198 73.3677 68.3771 73.3677 69.2273C73.3677 69.794 73.4274 70.2756 73.5467 70.6719C73.666 71.0682 73.8375 71.3697 74.0613 71.5763C74.2871 71.783 74.5588 71.8864 74.8762 71.8864ZM78.0963 72.5V71.9247L80.2568 69.5597C80.5104 69.2827 80.7192 69.0419 80.8832 68.8374C81.0473 68.6307 81.1687 68.4368 81.2476 68.2557C81.3285 68.0724 81.369 67.8807 81.369 67.6804C81.369 67.4503 81.3136 67.2511 81.2028 67.0827C81.0942 66.9144 80.945 66.7844 80.7554 66.6928C80.5658 66.6012 80.3527 66.5554 80.1162 66.5554C79.8648 66.5554 79.6453 66.6076 79.4578 66.712C79.2724 66.8143 79.1286 66.9581 79.0263 67.1435C78.9262 67.3288 78.8761 67.5462 78.8761 67.7955H78.1219C78.1219 67.4119 78.2103 67.0753 78.3871 66.7855C78.564 66.4957 78.8047 66.2699 79.1094 66.108C79.4163 65.946 79.7604 65.8651 80.1418 65.8651C80.5253 65.8651 80.8651 65.946 81.1613 66.108C81.4574 66.2699 81.6897 66.4883 81.858 66.7631C82.0263 67.038 82.1105 67.3438 82.1105 67.6804C82.1105 67.9212 82.0668 68.1566 81.9795 68.3867C81.8942 68.6147 81.7451 68.8693 81.532 69.1506C81.3211 69.4297 81.0281 69.7706 80.6531 70.1733L79.1829 71.7457V71.7969H82.2256V72.5H78.0963ZM82.9815 71.1577V70.5057L85.8579 65.9545H86.3309V66.9645H86.0113L83.838 70.4034V70.4545H87.7116V71.1577H82.9815ZM86.0624 72.5V70.9595V70.6559V65.9545H86.8167V72.5H86.0624ZM90.5426 67.0955V65.9545H95.9183V67.0955H93.9144V72.5H92.5465V67.0955H90.5426ZM102.25 69.2273C102.25 69.9411 102.114 70.5483 101.844 71.049C101.575 71.5497 101.209 71.9322 100.744 72.1964C100.282 72.4585 99.7621 72.5895 99.1847 72.5895C98.603 72.5895 98.081 72.4574 97.6187 72.1932C97.1563 71.929 96.7909 71.5465 96.5224 71.0458C96.254 70.5451 96.1197 69.9389 96.1197 69.2273C96.1197 68.5135 96.254 67.9062 96.5224 67.4055C96.7909 66.9048 97.1563 66.5234 97.6187 66.2614C98.081 65.9972 98.603 65.8651 99.1847 65.8651C99.7621 65.8651 100.282 65.9972 100.744 66.2614C101.209 66.5234 101.575 66.9048 101.844 67.4055C102.114 67.9062 102.25 68.5135 102.25 69.2273ZM100.847 69.2273C100.847 68.7649 100.777 68.375 100.639 68.0575C100.503 67.7401 100.31 67.4993 100.06 67.3352C99.8111 67.1712 99.5192 67.0891 99.1847 67.0891C98.8502 67.0891 98.5583 67.1712 98.309 67.3352C98.0597 67.4993 97.8658 67.7401 97.7273 68.0575C97.591 68.375 97.5228 68.7649 97.5228 69.2273C97.5228 69.6896 97.591 70.0795 97.7273 70.397C97.8658 70.7145 98.0597 70.9553 98.309 71.1193C98.5583 71.2834 98.8502 71.3654 99.1847 71.3654C99.5192 71.3654 99.8111 71.2834 100.06 71.1193C100.31 70.9553 100.503 70.7145 100.639 70.397C100.777 70.0795 100.847 69.6896 100.847 69.2273ZM103.005 72.5V65.9545H105.587C106.084 65.9545 106.507 66.0494 106.856 66.239C107.205 66.4265 107.472 66.6875 107.655 67.022C107.84 67.3544 107.933 67.7379 107.933 68.1726C107.933 68.6072 107.839 68.9908 107.652 69.3232C107.464 69.6555 107.193 69.9144 106.837 70.0998C106.483 70.2852 106.055 70.3778 105.552 70.3778H103.906V69.2688H105.328C105.595 69.2688 105.814 69.223 105.987 69.1314C106.161 69.0376 106.291 68.9087 106.377 68.7447C106.464 68.5785 106.508 68.3878 106.508 68.1726C106.508 67.9553 106.464 67.7656 106.377 67.6037C106.291 67.4396 106.161 67.3129 105.987 67.2234C105.812 67.1317 105.59 67.0859 105.322 67.0859H104.389V72.5H103.005ZM112.756 72.5895C112.279 72.5895 111.854 72.5075 111.481 72.3434C111.11 72.1772 110.817 71.9492 110.602 71.6594C110.389 71.3675 110.279 71.0309 110.273 70.6495H111.666C111.675 70.8093 111.727 70.9499 111.823 71.0714C111.921 71.1907 112.051 71.2834 112.213 71.3494C112.375 71.4155 112.557 71.4485 112.759 71.4485C112.97 71.4485 113.157 71.4112 113.319 71.3366C113.48 71.2621 113.607 71.1587 113.699 71.0266C113.79 70.8945 113.836 70.7422 113.836 70.5696C113.836 70.3949 113.787 70.2404 113.689 70.1062C113.593 69.9698 113.455 69.8633 113.274 69.7866C113.095 69.7099 112.882 69.6715 112.635 69.6715H112.024V68.6552H112.635C112.843 68.6552 113.028 68.619 113.187 68.5465C113.349 68.4741 113.475 68.3739 113.565 68.2461C113.654 68.1161 113.699 67.9648 113.699 67.7923C113.699 67.6282 113.659 67.4844 113.581 67.3608C113.504 67.2351 113.395 67.1371 113.255 67.0668C113.116 66.9964 112.954 66.9613 112.769 66.9613C112.581 66.9613 112.41 66.9954 112.254 67.0636C112.099 67.1296 111.974 67.2244 111.88 67.348C111.787 67.4716 111.736 67.6165 111.73 67.7827H110.404C110.41 67.4055 110.518 67.0732 110.727 66.7855C110.935 66.4979 111.217 66.2731 111.57 66.1112C111.926 65.9471 112.328 65.8651 112.775 65.8651C113.227 65.8651 113.622 65.9471 113.961 66.1112C114.3 66.2752 114.563 66.4968 114.75 66.7759C114.94 67.0529 115.034 67.364 115.032 67.7092C115.034 68.0756 114.92 68.3814 114.69 68.6264C114.462 68.8714 114.164 69.027 113.798 69.093V69.1442C114.279 69.206 114.646 69.3732 114.897 69.646C115.151 69.9165 115.277 70.2553 115.274 70.6623C115.277 71.0352 115.169 71.3665 114.952 71.6562C114.736 71.946 114.439 72.174 114.06 72.3402C113.681 72.5064 113.246 72.5895 112.756 72.5895ZM118.125 69.2273C118.125 68.4347 118.231 67.7049 118.442 67.038C118.655 66.3711 118.98 65.7532 119.417 65.1843H120.717C120.551 65.3952 120.397 65.6531 120.254 65.9577C120.111 66.2603 119.987 66.5927 119.88 66.9549C119.774 67.3171 119.69 67.6921 119.631 68.0799C119.571 68.4656 119.541 68.848 119.541 69.2273C119.541 69.7322 119.592 70.2425 119.695 70.7582C119.799 71.2717 119.94 71.7489 120.117 72.19C120.296 72.631 120.496 72.9922 120.717 73.2734H119.417C118.98 72.7045 118.655 72.0866 118.442 71.4197C118.231 70.7528 118.125 70.022 118.125 69.2273ZM126.738 65.9545V72.5H125.543L122.695 68.3803H122.647V72.5H121.263V65.9545H122.478L125.303 70.071H125.361V65.9545H126.738ZM128.995 65.9545V72.5H127.611V65.9545H128.995ZM134.204 68.0703C134.159 67.9148 134.096 67.7773 134.015 67.658C133.935 67.5366 133.835 67.4343 133.718 67.3512C133.603 67.266 133.471 67.201 133.322 67.1562C133.175 67.1115 133.012 67.0891 132.833 67.0891C132.498 67.0891 132.204 67.1722 131.951 67.3384C131.699 67.5046 131.503 67.7464 131.363 68.0639C131.222 68.3793 131.152 68.7649 131.152 69.2209C131.152 69.6768 131.221 70.0646 131.36 70.3842C131.498 70.7038 131.694 70.9478 131.948 71.1161C132.201 71.2823 132.501 71.3654 132.846 71.3654C133.159 71.3654 133.426 71.31 133.648 71.1992C133.872 71.0863 134.042 70.9276 134.159 70.723C134.279 70.5185 134.338 70.2766 134.338 69.9975L134.62 70.0391H132.932V68.9972H135.671V69.8217C135.671 70.397 135.55 70.8913 135.307 71.3047C135.064 71.7159 134.729 72.0334 134.303 72.2571C133.877 72.4787 133.389 72.5895 132.839 72.5895C132.226 72.5895 131.687 72.4542 131.222 72.1836C130.758 71.9109 130.395 71.5241 130.136 71.0234C129.878 70.5206 129.749 69.924 129.749 69.2337C129.749 68.7031 129.825 68.2301 129.979 67.8146C130.134 67.397 130.352 67.0433 130.631 66.7536C130.91 66.4638 131.235 66.2433 131.606 66.092C131.976 65.9407 132.378 65.8651 132.811 65.8651C133.181 65.8651 133.526 65.9194 133.846 66.0281C134.166 66.1346 134.449 66.2859 134.696 66.4819C134.946 66.6779 135.149 66.9112 135.307 67.1818C135.464 67.4503 135.566 67.7464 135.61 68.0703H134.204ZM136.441 72.5V65.9545H140.851V67.0955H137.824V68.6552H140.624V69.7962H137.824V71.359H140.864V72.5H136.441ZM141.681 72.5V65.9545H144.264C144.758 65.9545 145.18 66.043 145.529 66.2198C145.881 66.3945 146.148 66.6428 146.331 66.9645C146.517 67.2841 146.61 67.6602 146.61 68.0927C146.61 68.5273 146.516 68.9013 146.328 69.2145C146.141 69.5256 145.869 69.7642 145.513 69.9304C145.16 70.0966 144.731 70.1797 144.228 70.1797H142.499V69.0675H144.005C144.269 69.0675 144.488 69.0312 144.663 68.9588C144.838 68.8864 144.968 68.7777 145.053 68.6328C145.14 68.4879 145.184 68.3079 145.184 68.0927C145.184 67.8754 145.14 67.6921 145.053 67.543C144.968 67.3938 144.837 67.2809 144.66 67.2042C144.485 67.1254 144.265 67.0859 143.998 67.0859H143.065V72.5H141.681ZM145.216 69.5213L146.843 72.5H145.315L143.724 69.5213H145.216ZM148.701 65.9545V72.5H147.318V65.9545H148.701ZM150.698 72.5H149.215L151.475 65.9545H153.258L155.515 72.5H154.032L152.392 67.4503H152.341L150.698 72.5ZM150.605 69.9272H154.108V71.0075H150.605V69.9272ZM158.302 69.2273C158.302 70.022 158.195 70.7528 157.982 71.4197C157.771 72.0866 157.447 72.7045 157.01 73.2734H155.71C155.876 73.0625 156.03 72.8047 156.173 72.5C156.316 72.1953 156.44 71.8629 156.547 71.5028C156.653 71.1406 156.737 70.7656 156.796 70.3778C156.856 69.9901 156.886 69.6065 156.886 69.2273C156.886 68.7223 156.834 68.2131 156.729 67.6996C156.627 67.1839 156.486 66.7067 156.307 66.2678C156.13 65.8267 155.931 65.4656 155.71 65.1843H157.01C157.447 65.7532 157.771 66.3711 157.982 67.038C158.195 67.7049 158.302 68.4347 158.302 69.2273Z" fill="black"/>
<path d="M103.079 48.4194V3.19751H117.696V8.67895H111.301V20.5554H116.783V26.0368H111.301V41.5676H117.696V48.4194H103.079Z" fill="#3674EC"/>
<path d="M84.3512 48.4194V3.19751H91.6598V20.5554H94.4005V3.19751H101.252V48.4194H94.4005V26.0368H91.6598V48.4194H84.3512Z" fill="#B70D7F"/>
<path d="M65.166 9.13573V3.19751H82.5239V9.13573H77.4992V48.4194H70.6475V9.13573H65.166Z" fill="#E40327"/>
<rect width="46.4443" height="13.7036" transform="translate(119.524 3.19751)" fill="#6746A5"/>
<path d="M123.367 15.0493V5.4568H124.463V15.0493H123.367ZM129.644 12.9938H128.424L127.259 6.38864V15.0493H126.19V5.4568H127.862L129.027 12.103L130.206 5.4568H131.877V15.0493H130.809V6.38864L129.644 12.9938ZM133.604 15.0493V5.4568H135.304C136.044 5.4568 136.583 5.70346 136.921 6.19679C137.268 6.69012 137.441 7.46666 137.441 8.5264V8.59492C137.441 9.65467 137.268 10.4312 136.921 10.9245C136.583 11.4087 136.044 11.6508 135.304 11.6508H134.701V15.0493H133.604ZM134.701 10.7875H135.304C136.007 10.7875 136.359 10.116 136.359 8.77307V8.34826C136.359 7.00531 136.007 6.33383 135.304 6.33383H134.701V10.7875ZM141.495 15.0493L141.07 12.5553H139.138L138.727 15.0493H137.631L139.385 5.4568H140.837L142.591 15.0493H141.495ZM140.111 6.84086L139.289 11.6782H140.92L140.111 6.84086ZM145.6 15.2549C144.86 15.2549 144.321 15.0082 143.983 14.5149C143.645 14.0124 143.476 13.213 143.476 12.1167V8.38937C143.476 7.29308 143.645 6.49827 143.983 6.00494C144.321 5.50248 144.86 5.25125 145.6 5.25125C146.194 5.25125 146.642 5.42939 146.943 5.78569C147.254 6.13284 147.441 6.68556 147.505 7.44382L146.505 7.69049C146.459 7.13321 146.363 6.7358 146.217 6.49827C146.071 6.26074 145.856 6.14198 145.573 6.14198C145.216 6.14198 144.956 6.30185 144.792 6.62161C144.636 6.94136 144.559 7.45296 144.559 8.15641V12.4045C144.559 13.0897 144.636 13.5876 144.792 13.8982C144.956 14.2088 145.216 14.3641 145.573 14.3641C145.892 14.3641 146.13 14.2362 146.285 13.9804C146.45 13.7155 146.555 13.2633 146.6 12.6238L147.56 12.7471C147.478 13.615 147.277 14.2499 146.957 14.6519C146.646 15.0539 146.194 15.2549 145.6 15.2549ZM148.108 6.33383V5.4568H151.849V6.33383H150.52V15.0493H149.437V6.33383H148.108Z" fill="white"/>
<rect width="62.123" height="13.7036" transform="translate(119.524 18.7283)" fill="#6746A5"/>
<path d="M123.57 30.5801V20.9876H125.27C126 20.9876 126.539 21.2251 126.887 21.7001C127.234 22.1752 127.407 22.9243 127.407 23.9475V24.0161C127.407 25.4047 127.069 26.2863 126.393 26.6608L127.531 30.5801H126.407L125.338 26.9075H124.667V30.5801H123.57ZM124.667 26.0442H125.27C125.973 26.0442 126.325 25.4138 126.325 24.1531V23.742C126.325 22.4904 125.973 21.8646 125.27 21.8646H124.667V26.0442ZM132.077 30.5801L131.652 28.086H129.72L129.309 30.5801H128.212L129.966 20.9876H131.419L133.173 30.5801H132.077ZM130.693 22.3716L129.87 27.209H131.501L130.693 22.3716ZM137.552 30.5801L135.318 23.5775V30.5801H134.25V20.9876H135.387L137.621 28.0038V20.9876H138.69V30.5801H137.552ZM141.515 27.1268V30.5801H140.419V20.9876H141.515V25.0438L143.53 20.9876H144.626L142.529 25.1123L144.708 30.5801H143.612L141.954 26.2634L141.515 27.1268ZM145.638 30.5801V20.9876H146.734V30.5801H145.638ZM151.764 30.5801L149.531 23.5775V30.5801H148.462V20.9876H149.599L151.833 28.0038V20.9876H152.902V30.5801H151.764ZM156.248 30.7856C155.627 30.7856 155.17 30.539 154.878 30.0456C154.585 29.5523 154.439 28.7758 154.439 27.716V23.9201C154.439 22.8238 154.608 22.029 154.946 21.5357C155.284 21.0332 155.823 20.782 156.563 20.782C157.157 20.782 157.605 20.9602 157.906 21.3164C158.217 21.6636 158.404 22.2163 158.468 22.9746L157.468 23.2212C157.422 22.6731 157.326 22.2803 157.18 22.0427C157.034 21.7961 156.819 21.6727 156.536 21.6727C156.179 21.6727 155.919 21.8326 155.755 22.1524C155.599 22.4721 155.522 22.9837 155.522 23.6872V27.9216C155.522 28.5976 155.599 29.0955 155.755 29.4153C155.91 29.735 156.157 29.8949 156.495 29.8949C157.207 29.8949 157.564 29.2782 157.564 28.0449V26.3731H156.44V25.496H158.591V30.5664H157.92L157.728 29.6756C157.463 30.4156 156.97 30.7856 156.248 30.7856ZM162.089 30.7856C161.422 30.7856 160.915 30.5572 160.567 30.1005C160.22 29.6345 160.01 28.9037 159.937 27.9079L160.965 27.7297C161.001 28.4697 161.111 29.0133 161.294 29.3605C161.476 29.7076 161.741 29.8812 162.089 29.8812C162.81 29.8812 163.171 29.397 163.171 28.4286C163.171 28.054 163.112 27.7297 162.993 27.4557C162.883 27.1816 162.696 26.9441 162.431 26.7431L161.335 25.9346C160.924 25.6331 160.613 25.2722 160.403 24.852C160.202 24.4317 160.101 23.9293 160.101 23.3446C160.101 22.4675 160.266 21.8235 160.595 21.4124C160.933 20.9921 161.454 20.782 162.157 20.782C162.806 20.782 163.29 20.9739 163.61 21.3576C163.938 21.7413 164.139 22.3625 164.213 23.2212L163.171 23.4542C163.135 22.2848 162.792 21.7001 162.143 21.7001C161.504 21.7001 161.184 22.198 161.184 23.1938C161.184 23.6598 161.234 24.0298 161.335 24.3038C161.435 24.5688 161.618 24.8017 161.883 25.0027L162.966 25.8112C163.422 26.1401 163.747 26.5055 163.938 26.9075C164.139 27.3095 164.24 27.8074 164.24 28.4012C164.24 29.9908 163.523 30.7856 162.089 30.7856Z" fill="white"/>
<rect x="119.524" y="34.7158" width="5.05152" height="13.7036" fill="#E5243B"/>
<rect x="124.575" y="34.7158" width="5.05152" height="13.7036" fill="#DDA63A"/>
<rect x="129.626" y="34.7158" width="5.05152" height="13.7036" fill="#4C9F38"/>
<rect x="134.678" y="34.7158" width="5.05152" height="13.7036" fill="#C5192D"/>
<rect x="139.73" y="34.7158" width="5.05152" height="13.7036" fill="#FF3A21"/>
<rect x="144.781" y="34.7158" width="5.05152" height="13.7036" fill="#26BDE2"/>
<rect x="149.833" y="34.7158" width="5.05152" height="13.7036" fill="#FCC30B"/>
<rect x="154.884" y="34.7158" width="5.05152" height="13.7036" fill="#A21942"/>
<rect x="159.936" y="34.7158" width="5.05152" height="13.7036" fill="#FD6925"/>
<rect x="164.987" y="34.7158" width="5.05152" height="13.7036" fill="#DD1367"/>
<rect x="170.039" y="34.7158" width="5.05152" height="13.7036" fill="#FD9D24"/>
<rect x="175.09" y="34.7158" width="5.05152" height="13.7036" fill="#BF8B2E"/>
<rect x="180.142" y="34.7158" width="5.05152" height="13.7036" fill="#DD1367"/>
<rect x="185.193" y="34.7158" width="5.05152" height="13.7036" fill="#0A97D9"/>
<rect x="190.245" y="34.7158" width="5.05152" height="13.7036" fill="#56C02B"/>
<rect x="195.296" y="34.7158" width="5.05152" height="13.7036" fill="#00689D"/>
<rect x="200.348" y="34.7158" width="5.05152" height="13.7036" fill="#19486A"/>
</g>
<defs>
<filter id="filter0_b_678_952" x="23.1417" y="-36.5429" width="225.186" height="149.586" filterUnits="userSpaceOnUse" color-interpolation-filters="sRGB">
<feFlood flood-opacity="0" result="BackgroundImageFix"/>
<feGaussianBlur in="BackgroundImageFix" stdDeviation="18.2715"/>
<feComposite in2="SourceAlpha" operator="in" result="effect1_backgroundBlur_678_952"/>
<feBlend mode="normal" in="SourceGraphic" in2="effect1_backgroundBlur_678_952" result="shape"/>
</filter>
</defs>
</svg>
