<svg width="228" height="77" viewBox="0 0 228 77" fill="none" xmlns="http://www.w3.org/2000/svg">
<path d="M26.511 72.0754C21.6041 72.0754 17.2296 71.1727 13.3874 69.3674C9.56842 67.562 6.53635 65.0739 4.29123 61.9029C2.0461 58.732 0.877251 55.0981 0.784668 51.0013H15.3664C15.5284 53.7557 16.6857 55.9892 18.8382 57.702C20.9908 59.4148 23.5484 60.2711 26.511 60.2711C28.8718 60.2711 30.955 59.7504 32.7603 58.7088C34.5888 57.6441 36.0123 56.1744 37.0307 54.2996C38.0722 52.4016 38.593 50.226 38.593 47.7725C38.593 45.2728 38.0606 43.074 36.996 41.176C35.9544 39.2781 34.5078 37.7968 32.6562 36.7321C30.8045 35.6674 28.6867 35.1234 26.3027 35.1003C24.2196 35.1003 22.1943 35.5285 20.227 36.3849C18.2827 37.2413 16.7667 38.4101 15.6789 39.8914L2.31228 37.4959L5.67996 0H49.1474V12.2903H18.0744L16.2344 30.1008H16.651C17.9008 28.3418 19.7872 26.8836 22.3101 25.7263C24.8329 24.5691 27.6567 23.9904 30.7814 23.9904C35.0633 23.9904 38.8823 24.9972 42.2384 27.0109C45.5945 29.0246 48.2447 31.7905 50.1889 35.3086C52.1332 38.8036 53.0937 42.8309 53.0706 47.3906C53.0937 52.1818 51.9827 56.4405 49.7376 60.167C47.5156 63.8703 44.4025 66.7866 40.3984 68.916C36.4173 71.0223 31.7882 72.0754 26.511 72.0754Z" fill="#14496B"/>
<g filter="url(#filter0_b_678_987)">
<path d="M68.8907 57.537C68.8651 57.2791 68.7554 57.0789 68.5615 56.9361C68.3676 56.7933 68.1044 56.722 67.7721 56.722C67.5462 56.722 67.3555 56.7539 67.2 56.8178C67.0444 56.8796 66.9251 56.9659 66.842 57.0767C66.7611 57.1875 66.7206 57.3132 66.7206 57.4539C66.7163 57.571 66.7408 57.6733 66.7941 57.7607C66.8495 57.848 66.9251 57.9237 67.021 57.9876C67.1169 58.0494 67.2277 58.1037 67.3534 58.1506C67.4791 58.1953 67.6133 58.2337 67.7561 58.2656L68.3441 58.4063C68.6297 58.4702 68.8917 58.5554 69.1304 58.662C69.369 58.7685 69.5757 58.8995 69.7504 59.0551C69.9251 59.2106 70.0604 59.3938 70.1563 59.6048C70.2543 59.8157 70.3044 60.0576 70.3065 60.3303C70.3044 60.7308 70.2021 61.0781 69.9997 61.3722C69.7994 61.6641 69.5096 61.891 69.1304 62.0529C68.7532 62.2127 68.2983 62.2926 67.7657 62.2926C67.2373 62.2926 66.777 62.2117 66.385 62.0497C65.9951 61.8878 65.6904 61.6481 65.4709 61.3306C65.2536 61.011 65.1396 60.6158 65.129 60.1449H66.4681C66.483 60.3644 66.5459 60.5476 66.6566 60.6946C66.7696 60.8395 66.9198 60.9492 67.1073 61.0238C67.2969 61.0963 67.5111 61.1325 67.7497 61.1325C67.9841 61.1325 68.1875 61.0984 68.3601 61.0302C68.5348 60.962 68.6701 60.8672 68.766 60.7458C68.8619 60.6243 68.9098 60.4848 68.9098 60.3271C68.9098 60.1801 68.8662 60.0565 68.7788 59.9563C68.6936 59.8562 68.5679 59.771 68.4017 59.7007C68.2376 59.6303 68.0363 59.5664 67.7976 59.5089L67.0849 59.3299C66.5331 59.1957 66.0973 58.9858 65.7777 58.7003C65.4581 58.4148 65.2994 58.0302 65.3015 57.5465C65.2994 57.1502 65.4049 56.804 65.6179 56.5078C65.8331 56.2117 66.1282 55.9805 66.5032 55.8143C66.8782 55.6481 67.3044 55.565 67.7816 55.565C68.2674 55.565 68.6915 55.6481 69.0537 55.8143C69.418 55.9805 69.7014 56.2117 69.9038 56.5078C70.1062 56.804 70.2106 57.147 70.217 57.537H68.8907ZM73.2877 62.2H70.9673V55.6545H73.3068C73.9652 55.6545 74.532 55.7855 75.0071 56.0476C75.4823 56.3076 75.8477 56.6815 76.1034 57.1694C76.3612 57.6573 76.4901 58.2411 76.4901 58.9208C76.4901 59.6026 76.3612 60.1886 76.1034 60.6786C75.8477 61.1687 75.4801 61.5448 75.0007 61.8068C74.5235 62.0689 73.9524 62.2 73.2877 62.2ZM72.3512 61.0142H73.2301C73.6392 61.0142 73.9833 60.9418 74.2624 60.7969C74.5437 60.6499 74.7546 60.423 74.8953 60.1161C75.038 59.8072 75.1094 59.4088 75.1094 58.9208C75.1094 58.4372 75.038 58.0419 74.8953 57.7351C74.7546 57.4283 74.5448 57.2024 74.2656 57.0576C73.9865 56.9127 73.6424 56.8402 73.2333 56.8402H72.3512V61.0142ZM81.5854 57.7703C81.5407 57.6147 81.4778 57.4773 81.3968 57.358C81.3159 57.2365 81.2168 57.1343 81.0996 57.0512C80.9845 56.9659 80.8524 56.9009 80.7033 56.8562C80.5563 56.8115 80.3933 56.7891 80.2143 56.7891C79.8798 56.7891 79.5858 56.8722 79.3322 57.0384C79.0808 57.2046 78.8848 57.4464 78.7441 57.7639C78.6035 58.0792 78.5332 58.4649 78.5332 58.9208C78.5332 59.3768 78.6024 59.7646 78.7409 60.0842C78.8794 60.4038 79.0755 60.6477 79.329 60.8161C79.5826 60.9823 79.8819 61.0654 80.2271 61.0654C80.5403 61.0654 80.8077 61.01 81.0293 60.8992C81.253 60.7862 81.4235 60.6275 81.5407 60.423C81.66 60.2184 81.7196 59.9766 81.7196 59.6975L82.0009 59.739H80.3134V58.6971H83.0524V59.5217C83.0524 60.097 82.9309 60.5913 82.688 61.0046C82.4451 61.4159 82.1106 61.7333 81.6845 61.9571C81.2583 62.1786 80.7704 62.2894 80.2207 62.2894C79.6071 62.2894 79.068 62.1541 78.6035 61.8835C78.139 61.6108 77.7768 61.2241 77.5169 60.7234C77.2591 60.2205 77.1301 59.624 77.1301 58.9336C77.1301 58.4031 77.2068 57.9301 77.3603 57.5146C77.5158 57.097 77.7331 56.7433 78.0122 56.4535C78.2914 56.1637 78.6163 55.9432 78.987 55.7919C79.3578 55.6406 79.7594 55.565 80.1919 55.565C80.5627 55.565 80.9078 55.6193 81.2274 55.728C81.547 55.8345 81.8304 55.9858 82.0776 56.1818C82.3269 56.3779 82.5304 56.6112 82.688 56.8818C82.8457 57.1502 82.9469 57.4464 82.9916 57.7703H81.5854ZM86.6312 55.6545V62.2H85.2473V56.9681H85.209L83.71 57.9077V56.6804L85.3304 55.6545H86.6312ZM88.1757 62.2L90.8891 56.8306V56.7859H87.7283V55.6545H92.321V56.8019L89.6043 62.2H88.1757Z" fill="#6746A5"/>
<path d="M95.5227 62.2V55.6545H97.7344C98.2479 55.6545 98.6676 55.7472 98.9936 55.9326C99.3217 56.1158 99.5646 56.364 99.7223 56.6772C99.88 56.9904 99.9588 57.3399 99.9588 57.7255C99.9588 58.1112 99.88 58.4617 99.7223 58.777C99.5667 59.0924 99.326 59.3438 99 59.5313C98.674 59.7166 98.2564 59.8093 97.7471 59.8093H96.1619V59.1062H97.7216C98.0731 59.1062 98.3555 59.0455 98.5685 58.924C98.7816 58.8026 98.9361 58.6385 99.0319 58.4318C99.13 58.223 99.179 57.9876 99.179 57.7255C99.179 57.4634 99.13 57.2291 99.0319 57.0224C98.9361 56.8157 98.7805 56.6538 98.5653 56.5366C98.3501 56.4173 98.0646 56.3576 97.7088 56.3576H96.3153V62.2H95.5227ZM100.566 62.2H99.7351L102.139 55.6545H102.957L105.36 62.2H104.529L102.573 56.69H102.522L100.566 62.2ZM100.873 59.6431H104.222V60.3463H100.873V59.6431ZM106.11 62.2V55.6545H108.321C108.833 55.6545 109.252 55.7419 109.581 55.9166C109.909 56.0892 110.152 56.3267 110.309 56.6293C110.467 56.9318 110.546 57.2759 110.546 57.6616C110.546 58.0473 110.467 58.3892 110.309 58.6875C110.152 58.9858 109.91 59.2202 109.584 59.3906C109.258 59.559 108.841 59.6431 108.334 59.6431H106.544V58.9272H108.309C108.658 58.9272 108.939 58.8761 109.152 58.7738C109.367 58.6715 109.523 58.5267 109.619 58.3392C109.717 58.1495 109.766 57.9237 109.766 57.6616C109.766 57.3995 109.717 57.1705 109.619 56.9745C109.521 56.7784 109.364 56.6272 109.149 56.5206C108.934 56.412 108.649 56.3576 108.296 56.3576H106.902V62.2H106.11ZM109.191 59.2596L110.801 62.2H109.881L108.296 59.2596H109.191ZM111.239 56.3576V55.6545H116.148V56.3576H114.089V62.2H113.297V56.3576H111.239ZM122.291 55.6545V62.2H121.524L117.957 57.0607H117.894V62.2H117.101V55.6545H117.868L121.448 60.8065H121.511V55.6545H122.291ZM123.607 62.2V55.6545H127.558V56.3576H124.4V58.5693H127.353V59.2724H124.4V61.4968H127.609V62.2H123.607ZM128.716 62.2V55.6545H130.928C131.439 55.6545 131.859 55.7419 132.187 55.9166C132.515 56.0892 132.758 56.3267 132.916 56.6293C133.073 56.9318 133.152 57.2759 133.152 57.6616C133.152 58.0473 133.073 58.3892 132.916 58.6875C132.758 58.9858 132.516 59.2202 132.19 59.3906C131.864 59.559 131.448 59.6431 130.941 59.6431H129.151V58.9272H130.915C131.264 58.9272 131.546 58.8761 131.759 58.7738C131.974 58.6715 132.13 58.5267 132.225 58.3392C132.323 58.1495 132.372 57.9237 132.372 57.6616C132.372 57.3995 132.323 57.1705 132.225 56.9745C132.127 56.7784 131.971 56.6272 131.756 56.5206C131.54 56.412 131.256 56.3576 130.902 56.3576H129.509V62.2H128.716ZM131.797 59.2596L133.408 62.2H132.487L130.902 59.2596H131.797ZM137.783 57.2909C137.744 56.967 137.589 56.7156 137.316 56.5366C137.043 56.3576 136.709 56.2681 136.312 56.2681C136.023 56.2681 135.769 56.315 135.552 56.4088C135.337 56.5025 135.168 56.6314 135.047 56.7955C134.927 56.9595 134.868 57.146 134.868 57.3548C134.868 57.5295 134.909 57.6797 134.992 57.8054C135.078 57.929 135.186 58.0323 135.318 58.1154C135.451 58.1964 135.589 58.2635 135.734 58.3168C135.879 58.3679 136.012 58.4095 136.133 58.4414L136.798 58.6204C136.969 58.6651 137.158 58.7269 137.367 58.8058C137.578 58.8846 137.779 58.9922 137.971 59.1286C138.165 59.2628 138.325 59.4354 138.451 59.6463C138.576 59.8573 138.639 60.1161 138.639 60.423C138.639 60.7767 138.546 61.0963 138.361 61.3818C138.178 61.6673 137.909 61.8942 137.556 62.0625C137.204 62.2308 136.777 62.315 136.274 62.315C135.805 62.315 135.399 62.2394 135.056 62.0881C134.715 61.9368 134.447 61.7259 134.251 61.4553C134.057 61.1847 133.947 60.8704 133.922 60.5125H134.74C134.761 60.7596 134.844 60.9642 134.989 61.1261C135.136 61.2859 135.322 61.4052 135.545 61.484C135.771 61.5607 136.014 61.5991 136.274 61.5991C136.577 61.5991 136.848 61.5501 137.089 61.4521C137.33 61.3519 137.52 61.2134 137.661 61.0366C137.802 60.8576 137.872 60.6488 137.872 60.4102C137.872 60.1928 137.811 60.016 137.69 59.8796C137.568 59.7433 137.409 59.6325 137.21 59.5473C137.012 59.462 136.798 59.3875 136.568 59.3235L135.763 59.0934C135.251 58.9464 134.846 58.7365 134.548 58.4638C134.25 58.1911 134.101 57.8342 134.101 57.3931C134.101 57.0267 134.2 56.7071 134.398 56.4343C134.598 56.1595 134.867 55.9464 135.203 55.7951C135.542 55.6417 135.92 55.565 136.338 55.565C136.76 55.565 137.135 55.6406 137.463 55.7919C137.791 55.9411 138.051 56.1456 138.243 56.4056C138.437 56.6655 138.539 56.9606 138.55 57.2909H137.783ZM139.672 62.2V55.6545H140.465V58.5693H143.955V55.6545H144.748V62.2H143.955V59.2724H140.465V62.2H139.672ZM146.857 55.6545V62.2H146.064V55.6545H146.857ZM148.176 62.2V55.6545H150.388C150.901 55.6545 151.321 55.7472 151.647 55.9326C151.975 56.1158 152.218 56.364 152.376 56.6772C152.533 56.9904 152.612 57.3399 152.612 57.7255C152.612 58.1112 152.533 58.4617 152.376 58.777C152.22 59.0924 151.979 59.3438 151.654 59.5313C151.328 59.7166 150.91 59.8093 150.401 59.8093H148.815V59.1062H150.375C150.727 59.1062 151.009 59.0455 151.222 58.924C151.435 58.8026 151.59 58.6385 151.685 58.4318C151.783 58.223 151.832 57.9876 151.832 57.7255C151.832 57.4634 151.783 57.2291 151.685 57.0224C151.59 56.8157 151.434 56.6538 151.219 56.5366C151.004 56.4173 150.718 56.3576 150.362 56.3576H148.969V62.2H148.176ZM157.069 62.2L155.28 55.6545H156.085L157.453 60.9855H157.517L158.91 55.6545H159.805L161.199 60.9855H161.262L162.63 55.6545H163.436L161.646 62.2H160.828L159.383 56.984H159.332L157.887 62.2H157.069ZM164.946 55.6545V62.2H164.153V55.6545H164.946ZM165.907 56.3576V55.6545H170.816V56.3576H168.758V62.2H167.965V56.3576H165.907ZM171.77 62.2V55.6545H172.562V58.5693H176.052V55.6545H176.845V62.2H176.052V59.2724H172.562V62.2H171.77ZM180.065 56.3576V55.6545H184.974V56.3576H182.916V62.2H182.123V56.3576H180.065ZM185.927 62.2V55.6545H186.72V58.5693H190.21V55.6545H191.003V62.2H190.21V59.2724H186.72V62.2H185.927ZM192.319 62.2V55.6545H196.27V56.3576H193.112V58.5693H196.065V59.2724H193.112V61.4968H196.321V62.2H192.319ZM204.164 57.7C204.094 57.4848 204.001 57.2919 203.886 57.1215C203.773 56.9489 203.638 56.8019 203.48 56.6804C203.325 56.559 203.148 56.4663 202.95 56.4024C202.751 56.3384 202.534 56.3065 202.298 56.3065C201.91 56.3065 201.557 56.4066 201.24 56.6069C200.922 56.8072 200.67 57.1023 200.482 57.4922C200.295 57.8821 200.201 58.3605 200.201 58.9272C200.201 59.494 200.296 59.9723 200.485 60.3622C200.675 60.7522 200.932 61.0473 201.256 61.2475C201.58 61.4478 201.944 61.548 202.349 61.548C202.724 61.548 203.054 61.4681 203.339 61.3083C203.627 61.1463 203.851 60.9183 204.011 60.6243C204.173 60.3281 204.254 59.9798 204.254 59.5792L204.496 59.6303H202.528V58.9272H205.021V59.6303C205.021 60.1694 204.906 60.6382 204.675 61.0366C204.447 61.435 204.132 61.744 203.729 61.9634C203.329 62.1808 202.869 62.2894 202.349 62.2894C201.769 62.2894 201.26 62.1531 200.821 61.8803C200.384 61.6076 200.043 61.2198 199.798 60.717C199.555 60.2142 199.434 59.6176 199.434 58.9272C199.434 58.4095 199.503 57.9439 199.642 57.5306C199.782 57.1151 199.98 56.7614 200.236 56.4695C200.492 56.1776 200.794 55.9539 201.144 55.7983C201.493 55.6428 201.878 55.565 202.298 55.565C202.643 55.565 202.964 55.6172 203.263 55.7216C203.563 55.8239 203.831 55.9698 204.065 56.1595C204.301 56.347 204.499 56.5718 204.656 56.8338C204.814 57.0938 204.923 57.3825 204.982 57.7H204.164ZM211.631 58.9272C211.631 59.6176 211.506 60.2142 211.257 60.717C211.008 61.2198 210.666 61.6076 210.231 61.8803C209.796 62.1531 209.3 62.2894 208.742 62.2894C208.183 62.2894 207.687 62.1531 207.252 61.8803C206.818 61.6076 206.476 61.2198 206.226 60.717C205.977 60.2142 205.852 59.6176 205.852 58.9272C205.852 58.2369 205.977 57.6403 206.226 57.1375C206.476 56.6346 206.818 56.2468 207.252 55.9741C207.687 55.7014 208.183 55.565 208.742 55.565C209.3 55.565 209.796 55.7014 210.231 55.9741C210.666 56.2468 211.008 56.6346 211.257 57.1375C211.506 57.6403 211.631 58.2369 211.631 58.9272ZM210.864 58.9272C210.864 58.3605 210.769 57.8821 210.579 57.4922C210.392 57.1023 210.137 56.8072 209.815 56.6069C209.496 56.4066 209.138 56.3065 208.742 56.3065C208.345 56.3065 207.986 56.4066 207.665 56.6069C207.345 56.8072 207.09 57.1023 206.901 57.4922C206.713 57.8821 206.619 58.3605 206.619 58.9272C206.619 59.494 206.713 59.9723 206.901 60.3622C207.09 60.7522 207.345 61.0473 207.665 61.2475C207.986 61.4478 208.345 61.548 208.742 61.548C209.138 61.548 209.496 61.4478 209.815 61.2475C210.137 61.0473 210.392 60.7522 210.579 60.3622C210.769 59.9723 210.864 59.494 210.864 58.9272ZM212.654 62.2H211.823L214.227 55.6545H215.045L217.448 62.2H216.617L214.662 56.69H214.61L212.654 62.2ZM212.961 59.6431H216.311V60.3463H212.961V59.6431ZM218.198 62.2V55.6545H218.991V61.4968H222.033V62.2H218.198ZM226.57 57.2909C226.532 56.967 226.376 56.7156 226.103 56.5366C225.831 56.3576 225.496 56.2681 225.1 56.2681C224.81 56.2681 224.557 56.315 224.339 56.4088C224.124 56.5025 223.956 56.6314 223.834 56.7955C223.715 56.9595 223.655 57.146 223.655 57.3548C223.655 57.5295 223.697 57.6797 223.78 57.8054C223.865 57.929 223.974 58.0323 224.106 58.1154C224.238 58.1964 224.376 58.2635 224.521 58.3168C224.666 58.3679 224.799 58.4095 224.921 58.4414L225.586 58.6204C225.756 58.6651 225.946 58.7269 226.155 58.8058C226.365 58.8846 226.567 58.9922 226.759 59.1286C226.952 59.2628 227.112 59.4354 227.238 59.6463C227.364 59.8573 227.427 60.1161 227.427 60.423C227.427 60.7767 227.334 61.0963 227.149 61.3818C226.965 61.6673 226.697 61.8942 226.343 62.0625C225.992 62.2308 225.564 62.315 225.062 62.315C224.593 62.315 224.187 62.2394 223.844 62.0881C223.503 61.9368 223.234 61.7259 223.038 61.4553C222.845 61.1847 222.735 60.8704 222.709 60.5125H223.527C223.549 60.7596 223.632 60.9642 223.777 61.1261C223.924 61.2859 224.109 61.4052 224.333 61.484C224.559 61.5607 224.802 61.5991 225.062 61.5991C225.364 61.5991 225.636 61.5501 225.876 61.4521C226.117 61.3519 226.308 61.2134 226.449 61.0366C226.589 60.8576 226.66 60.6488 226.66 60.4102C226.66 60.1928 226.599 60.016 226.477 59.8796C226.356 59.7433 226.196 59.6325 225.998 59.5473C225.8 59.462 225.586 59.3875 225.356 59.3235L224.55 59.0934C224.039 58.9464 223.634 58.7365 223.336 58.4638C223.037 58.1911 222.888 57.8342 222.888 57.3931C222.888 57.0267 222.987 56.7071 223.185 56.4343C223.386 56.1595 223.654 55.9464 223.991 55.7951C224.33 55.6417 224.708 55.565 225.125 55.565C225.547 55.565 225.922 55.6406 226.25 55.7919C226.579 55.9411 226.839 56.1456 227.03 56.4056C227.224 56.6655 227.326 56.9606 227.337 57.2909H226.57Z" fill="black"/>
<path d="M65.4486 72.5V71.9247L67.6091 69.5597C67.8626 69.2827 68.0714 69.0419 68.2355 68.8374C68.3995 68.6307 68.521 68.4368 68.5998 68.2557C68.6808 68.0724 68.7213 67.8807 68.7213 67.6804C68.7213 67.4503 68.6659 67.2511 68.5551 67.0827C68.4464 66.9144 68.2973 66.7844 68.1076 66.6928C67.918 66.6012 67.7049 66.5554 67.4684 66.5554C67.217 66.5554 66.9976 66.6076 66.8101 66.712C66.6247 66.8143 66.4809 66.9581 66.3786 67.1435C66.2785 67.3288 66.2284 67.5462 66.2284 67.7955H65.4741C65.4741 67.4119 65.5625 67.0753 65.7394 66.7855C65.9162 66.4957 66.157 66.2699 66.4617 66.108C66.7685 65.946 67.1126 65.8651 67.494 65.8651C67.8775 65.8651 68.2174 65.946 68.5135 66.108C68.8097 66.2699 69.0419 66.4883 69.2103 66.7631C69.3786 67.038 69.4628 67.3438 69.4628 67.6804C69.4628 67.9212 69.4191 68.1566 69.3317 68.3867C69.2465 68.6147 69.0973 68.8693 68.8843 69.1506C68.6733 69.4297 68.3804 69.7706 68.0054 70.1733L66.5352 71.7457V71.7969H69.5778V72.5H65.4486ZM72.7627 72.5895C72.2812 72.5895 71.871 72.4585 71.5322 72.1964C71.1935 71.9322 70.9346 71.5497 70.7556 71.049C70.5766 70.5462 70.4871 69.9389 70.4871 69.2273C70.4871 68.5199 70.5766 67.9158 70.7556 67.4151C70.9367 66.9123 71.1967 66.5288 71.5354 66.2646C71.8764 65.9982 72.2854 65.8651 72.7627 65.8651C73.24 65.8651 73.648 65.9982 73.9868 66.2646C74.3277 66.5288 74.5876 66.9123 74.7666 67.4151C74.9477 67.9158 75.0383 68.5199 75.0383 69.2273C75.0383 69.9389 74.9488 70.5462 74.7698 71.049C74.5908 71.5497 74.332 71.9322 73.9932 72.1964C73.6544 72.4585 73.2442 72.5895 72.7627 72.5895ZM72.7627 71.8864C73.24 71.8864 73.6107 71.6562 73.8749 71.196C74.1391 70.7358 74.2712 70.0795 74.2712 69.2273C74.2712 68.6605 74.2105 68.1779 74.0891 67.7795C73.9697 67.381 73.7972 67.0774 73.5713 66.8686C73.3476 66.6598 73.0781 66.5554 72.7627 66.5554C72.2897 66.5554 71.92 66.7887 71.6537 67.2553C71.3874 67.7198 71.2542 68.3771 71.2542 69.2273C71.2542 69.794 71.3139 70.2756 71.4332 70.6719C71.5525 71.0682 71.724 71.3697 71.9477 71.5763C72.1736 71.783 72.4452 71.8864 72.7627 71.8864ZM75.9828 72.5V71.9247L78.1433 69.5597C78.3968 69.2827 78.6056 69.0419 78.7697 68.8374C78.9338 68.6307 79.0552 68.4368 79.1341 68.2557C79.215 68.0724 79.2555 67.8807 79.2555 67.6804C79.2555 67.4503 79.2001 67.2511 79.0893 67.0827C78.9806 66.9144 78.8315 66.7844 78.6419 66.6928C78.4522 66.6012 78.2392 66.5554 78.0027 66.5554C77.7512 66.5554 77.5318 66.6076 77.3443 66.712C77.1589 66.8143 77.0151 66.9581 76.9128 67.1435C76.8127 67.3288 76.7626 67.5462 76.7626 67.7955H76.0083C76.0083 67.4119 76.0968 67.0753 76.2736 66.7855C76.4505 66.4957 76.6912 66.2699 76.9959 66.108C77.3027 65.946 77.6468 65.8651 78.0282 65.8651C78.4117 65.8651 78.7516 65.946 79.0478 66.108C79.3439 66.2699 79.5762 66.4883 79.7445 66.7631C79.9128 67.038 79.997 67.3438 79.997 67.6804C79.997 67.9212 79.9533 68.1566 79.8659 68.3867C79.7807 68.6147 79.6316 68.8693 79.4185 69.1506C79.2076 69.4297 78.9146 69.7706 78.5396 70.1733L77.0694 71.7457V71.7969H80.112V72.5H75.9828ZM80.868 71.1577V70.5057L83.7444 65.9545H84.2174V66.9645H83.8978L81.7245 70.4034V70.4545H85.5981V71.1577H80.868ZM83.9489 72.5V70.9595V70.6559V65.9545H84.7032V72.5H83.9489ZM88.4291 67.0955V65.9545H93.8048V67.0955H91.8009V72.5H90.433V67.0955H88.4291ZM100.136 69.2273C100.136 69.9411 100.001 70.5483 99.7303 71.049C99.4618 71.5497 99.0953 71.9322 98.6308 72.1964C98.1685 72.4585 97.6486 72.5895 97.0712 72.5895C96.4895 72.5895 95.9675 72.4574 95.5051 72.1932C95.0428 71.929 94.6774 71.5465 94.4089 71.0458C94.1404 70.5451 94.0062 69.9389 94.0062 69.2273C94.0062 68.5135 94.1404 67.9062 94.4089 67.4055C94.6774 66.9048 95.0428 66.5234 95.5051 66.2614C95.9675 65.9972 96.4895 65.8651 97.0712 65.8651C97.6486 65.8651 98.1685 65.9972 98.6308 66.2614C99.0953 66.5234 99.4618 66.9048 99.7303 67.4055C100.001 67.9062 100.136 68.5135 100.136 69.2273ZM98.7331 69.2273C98.7331 68.7649 98.6639 68.375 98.5254 68.0575C98.389 67.7401 98.1962 67.4993 97.9469 67.3352C97.6976 67.1712 97.4057 67.0891 97.0712 67.0891C96.7367 67.0891 96.4448 67.1712 96.1955 67.3352C95.9462 67.4993 95.7523 67.7401 95.6138 68.0575C95.4774 68.375 95.4093 68.7649 95.4093 69.2273C95.4093 69.6896 95.4774 70.0795 95.6138 70.397C95.7523 70.7145 95.9462 70.9553 96.1955 71.1193C96.4448 71.2834 96.7367 71.3654 97.0712 71.3654C97.4057 71.3654 97.6976 71.2834 97.9469 71.1193C98.1962 70.9553 98.389 70.7145 98.5254 70.397C98.6639 70.0795 98.7331 69.6896 98.7331 69.2273ZM100.891 72.5V65.9545H103.474C103.97 65.9545 104.393 66.0494 104.743 66.239C105.092 66.4265 105.358 66.6875 105.542 67.022C105.727 67.3544 105.82 67.7379 105.82 68.1726C105.82 68.6072 105.726 68.9908 105.538 69.3232C105.351 69.6555 105.079 69.9144 104.723 70.0998C104.37 70.2852 103.941 70.3778 103.439 70.3778H101.793V69.2688H103.215C103.481 69.2688 103.701 69.223 103.873 69.1314C104.048 69.0376 104.178 68.9087 104.263 68.7447C104.35 68.5785 104.394 68.3878 104.394 68.1726C104.394 67.9553 104.35 67.7656 104.263 67.6037C104.178 67.4396 104.048 67.3129 103.873 67.2234C103.698 67.1317 103.477 67.0859 103.208 67.0859H102.275V72.5H100.891ZM110.614 72.5895C110.162 72.5895 109.759 72.5064 109.406 72.3402C109.054 72.174 108.775 71.945 108.568 71.6531C108.362 71.3612 108.254 71.0266 108.245 70.6495H109.588C109.603 70.9031 109.709 71.1087 109.907 71.2663C110.106 71.424 110.341 71.5028 110.614 71.5028C110.831 71.5028 111.023 71.4549 111.189 71.359C111.357 71.261 111.488 71.1257 111.582 70.9531C111.678 70.7784 111.726 70.5781 111.726 70.3523C111.726 70.1222 111.677 69.9197 111.579 69.745C111.483 69.5703 111.35 69.4339 111.179 69.3359C111.009 69.2379 110.814 69.1879 110.595 69.1857C110.403 69.1857 110.216 69.2251 110.035 69.304C109.856 69.3828 109.717 69.4904 109.617 69.6268L108.386 69.4062L108.696 65.9545H112.698V67.0859H109.837L109.668 68.7255H109.706C109.821 68.5636 109.995 68.4293 110.227 68.3228C110.459 68.2163 110.719 68.163 111.007 68.163C111.401 68.163 111.753 68.2557 112.062 68.4411C112.37 68.6264 112.614 68.881 112.793 69.2049C112.972 69.5266 113.061 69.8974 113.059 70.3171C113.061 70.7582 112.959 71.1502 112.752 71.4933C112.547 71.8342 112.261 72.1026 111.892 72.2987C111.526 72.4925 111.1 72.5895 110.614 72.5895ZM115.88 69.2273C115.88 68.4347 115.986 67.7049 116.197 67.038C116.41 66.3711 116.734 65.7532 117.171 65.1843H118.472C118.306 65.3952 118.151 65.6531 118.009 65.9577C117.866 66.2603 117.741 66.5927 117.635 66.9549C117.528 67.3171 117.445 67.6921 117.385 68.0799C117.326 68.4656 117.296 68.848 117.296 69.2273C117.296 69.7322 117.347 70.2425 117.449 70.7582C117.554 71.2717 117.694 71.7489 117.871 72.19C118.05 72.631 118.25 72.9922 118.472 73.2734H117.171C116.734 72.7045 116.41 72.0866 116.197 71.4197C115.986 70.7528 115.88 70.022 115.88 69.2273ZM124.493 65.9545V72.5H123.297L120.45 68.3803H120.402V72.5H119.018V65.9545H120.232L123.058 70.071H123.115V65.9545H124.493ZM126.75 65.9545V72.5H125.366V65.9545H126.75ZM131.959 68.0703C131.914 67.9148 131.851 67.7773 131.77 67.658C131.689 67.5366 131.59 67.4343 131.473 67.3512C131.358 67.266 131.226 67.201 131.077 67.1562C130.93 67.1115 130.767 67.0891 130.588 67.0891C130.253 67.0891 129.959 67.1722 129.705 67.3384C129.454 67.5046 129.258 67.7464 129.117 68.0639C128.977 68.3793 128.906 68.7649 128.906 69.2209C128.906 69.6768 128.976 70.0646 129.114 70.3842C129.253 70.7038 129.449 70.9478 129.702 71.1161C129.956 71.2823 130.255 71.3654 130.6 71.3654C130.914 71.3654 131.181 71.31 131.403 71.1992C131.626 71.0863 131.797 70.9276 131.914 70.723C132.033 70.5185 132.093 70.2766 132.093 69.9975L132.374 70.0391H130.687V68.9972H133.426V69.8217C133.426 70.397 133.304 70.8913 133.061 71.3047C132.818 71.7159 132.484 72.0334 132.058 72.2571C131.632 72.4787 131.144 72.5895 130.594 72.5895C129.98 72.5895 129.441 72.4542 128.977 72.1836C128.512 71.9109 128.15 71.5241 127.89 71.0234C127.632 70.5206 127.503 69.924 127.503 69.2337C127.503 68.7031 127.58 68.2301 127.734 67.8146C127.889 67.397 128.106 67.0433 128.386 66.7536C128.665 66.4638 128.99 66.2433 129.36 66.092C129.731 65.9407 130.133 65.8651 130.565 65.8651C130.936 65.8651 131.281 65.9194 131.601 66.0281C131.92 66.1346 132.204 66.2859 132.451 66.4819C132.7 66.6779 132.904 66.9112 133.061 67.1818C133.219 67.4503 133.32 67.7464 133.365 68.0703H131.959ZM134.195 72.5V65.9545H138.606V67.0955H135.579V68.6552H138.379V69.7962H135.579V71.359H138.618V72.5H134.195ZM139.436 72.5V65.9545H142.018C142.513 65.9545 142.934 66.043 143.284 66.2198C143.635 66.3945 143.903 66.6428 144.086 66.9645C144.271 67.2841 144.364 67.6602 144.364 68.0927C144.364 68.5273 144.27 68.9013 144.083 69.2145C143.895 69.5256 143.624 69.7642 143.268 69.9304C142.914 70.0966 142.486 70.1797 141.983 70.1797H140.254V69.0675H141.759C142.024 69.0675 142.243 69.0312 142.418 68.9588C142.593 68.8864 142.722 68.7777 142.808 68.6328C142.895 68.4879 142.939 68.3079 142.939 68.0927C142.939 67.8754 142.895 67.6921 142.808 67.543C142.722 67.3938 142.591 67.2809 142.415 67.2042C142.24 67.1254 142.019 67.0859 141.753 67.0859H140.82V72.5H139.436ZM142.971 69.5213L144.597 72.5H143.07L141.478 69.5213H142.971ZM146.456 65.9545V72.5H145.072V65.9545H146.456ZM148.453 72.5H146.97L149.229 65.9545H151.013L153.269 72.5H151.786L150.147 67.4503H150.096L148.453 72.5ZM148.36 69.9272H151.863V71.0075H148.36V69.9272ZM156.056 69.2273C156.056 70.022 155.95 70.7528 155.737 71.4197C155.526 72.0866 155.202 72.7045 154.765 73.2734H153.464C153.63 73.0625 153.785 72.8047 153.928 72.5C154.07 72.1953 154.195 71.8629 154.302 71.5028C154.408 71.1406 154.491 70.7656 154.551 70.3778C154.611 69.9901 154.64 69.6065 154.64 69.2273C154.64 68.7223 154.588 68.2131 154.484 67.6996C154.381 67.1839 154.241 66.7067 154.062 66.2678C153.885 65.8267 153.686 65.4656 153.464 65.1843H154.765C155.202 65.7532 155.526 66.3711 155.737 67.038C155.95 67.7049 156.056 68.4347 156.056 69.2273Z" fill="black"/>
<path d="M100.966 48.4196V3.19775H115.583V8.67919H109.188V20.5556H114.67V26.0371H109.188V41.5678H115.583V48.4196H100.966Z" fill="#3674EC"/>
<path d="M82.2378 48.4194V3.19751H89.5464V20.5554H92.2871V3.19751H99.1389V48.4194H92.2871V26.0368H89.5464V48.4194H82.2378Z" fill="#B70D7F"/>
<path d="M63.0526 9.13573V3.19751H80.4105V9.13573H75.3858V48.4194H68.534V9.13573H63.0526Z" fill="#E40327"/>
<rect width="46.4443" height="13.7036" transform="translate(117.41 3.19751)" fill="#6746A5"/>
<path d="M121.253 15.0493V5.4568H122.35V15.0493H121.253ZM127.53 12.9938H126.311L125.146 6.38864V15.0493H124.077V5.4568H125.749L126.914 12.103L128.092 5.4568H129.764V15.0493H128.695V6.38864L127.53 12.9938ZM131.491 15.0493V5.4568H133.19C133.93 5.4568 134.469 5.70346 134.807 6.19679C135.154 6.69012 135.328 7.46666 135.328 8.5264V8.59492C135.328 9.65467 135.154 10.4312 134.807 10.9245C134.469 11.4087 133.93 11.6508 133.19 11.6508H132.587V15.0493H131.491ZM132.587 10.7875H133.19C133.894 10.7875 134.245 10.116 134.245 8.77307V8.34826C134.245 7.00531 133.894 6.33383 133.19 6.33383H132.587V10.7875ZM139.382 15.0493L138.957 12.5553H137.025L136.614 15.0493H135.517L137.271 5.4568H138.724L140.478 15.0493H139.382ZM137.998 6.84086L137.175 11.6782H138.806L137.998 6.84086ZM143.487 15.2549C142.747 15.2549 142.208 15.0082 141.87 14.5149C141.532 14.0124 141.363 13.213 141.363 12.1167V8.38937C141.363 7.29308 141.532 6.49827 141.87 6.00494C142.208 5.50248 142.747 5.25125 143.487 5.25125C144.081 5.25125 144.528 5.42939 144.83 5.78569C145.14 6.13284 145.328 6.68556 145.392 7.44382L144.391 7.69049C144.345 7.13321 144.25 6.7358 144.103 6.49827C143.957 6.26074 143.743 6.14198 143.459 6.14198C143.103 6.14198 142.843 6.30185 142.678 6.62161C142.523 6.94136 142.445 7.45296 142.445 8.15641V12.4045C142.445 13.0897 142.523 13.5876 142.678 13.8982C142.843 14.2088 143.103 14.3641 143.459 14.3641C143.779 14.3641 144.017 14.2362 144.172 13.9804C144.336 13.7155 144.441 13.2633 144.487 12.6238L145.446 12.7471C145.364 13.615 145.163 14.2499 144.843 14.6519C144.533 15.0539 144.081 15.2549 143.487 15.2549ZM145.995 6.33383V5.4568H149.736V6.33383H148.407V15.0493H147.324V6.33383H145.995Z" fill="white"/>
<rect width="62.123" height="13.7036" transform="translate(117.41 18.7283)" fill="#6746A5"/>
<path d="M121.457 30.5801V20.9876H123.156C123.887 20.9876 124.426 21.2251 124.773 21.7001C125.12 22.1752 125.294 22.9243 125.294 23.9475V24.0161C125.294 25.4047 124.956 26.2863 124.28 26.6608L125.417 30.5801H124.294L123.225 26.9075H122.553V30.5801H121.457ZM122.553 26.0442H123.156C123.86 26.0442 124.211 25.4138 124.211 24.1531V23.742C124.211 22.4904 123.86 21.8646 123.156 21.8646H122.553V26.0442ZM129.963 30.5801L129.539 28.086H127.606L127.195 30.5801H126.099L127.853 20.9876H129.306L131.06 30.5801H129.963ZM128.579 22.3716L127.757 27.209H129.388L128.579 22.3716ZM135.439 30.5801L133.205 23.5775V30.5801H132.136V20.9876H133.274L135.507 28.0038V20.9876H136.576V30.5801H135.439ZM139.402 27.1268V30.5801H138.305V20.9876H139.402V25.0438L141.416 20.9876H142.512L140.416 25.1123L142.595 30.5801H141.498L139.84 26.2634L139.402 27.1268ZM143.525 30.5801V20.9876H144.621V30.5801H143.525ZM149.651 30.5801L147.417 23.5775V30.5801H146.348V20.9876H147.486L149.719 28.0038V20.9876H150.788V30.5801H149.651ZM154.135 30.7856C153.513 30.7856 153.057 30.539 152.764 30.0456C152.472 29.5523 152.326 28.7758 152.326 27.716V23.9201C152.326 22.8238 152.495 22.029 152.833 21.5357C153.171 21.0332 153.71 20.782 154.45 20.782C155.044 20.782 155.491 20.9602 155.793 21.3164C156.103 21.6636 156.291 22.2163 156.355 22.9746L155.354 23.2212C155.309 22.6731 155.213 22.2803 155.066 22.0427C154.92 21.7961 154.706 21.6727 154.422 21.6727C154.066 21.6727 153.806 21.8326 153.641 22.1524C153.486 22.4721 153.408 22.9837 153.408 23.6872V27.9216C153.408 28.5976 153.486 29.0955 153.641 29.4153C153.797 29.735 154.043 29.8949 154.381 29.8949C155.094 29.8949 155.45 29.2782 155.45 28.0449V26.3731H154.326V25.496H156.478V30.5664H155.806L155.615 29.6756C155.35 30.4156 154.856 30.7856 154.135 30.7856ZM159.975 30.7856C159.308 30.7856 158.801 30.5572 158.454 30.1005C158.107 29.6345 157.897 28.9037 157.824 27.9079L158.851 27.7297C158.888 28.4697 158.998 29.0133 159.18 29.3605C159.363 29.7076 159.628 29.8812 159.975 29.8812C160.697 29.8812 161.058 29.397 161.058 28.4286C161.058 28.054 160.998 27.7297 160.88 27.4557C160.77 27.1816 160.583 26.9441 160.318 26.7431L159.221 25.9346C158.81 25.6331 158.5 25.2722 158.29 24.852C158.089 24.4317 157.988 23.9293 157.988 23.3446C157.988 22.4675 158.153 21.8235 158.481 21.4124C158.819 20.9921 159.34 20.782 160.044 20.782C160.692 20.782 161.176 20.9739 161.496 21.3576C161.825 21.7413 162.026 22.3625 162.099 23.2212L161.058 23.4542C161.021 22.2848 160.679 21.7001 160.03 21.7001C159.39 21.7001 159.071 22.198 159.071 23.1938C159.071 23.6598 159.121 24.0298 159.221 24.3038C159.322 24.5688 159.505 24.8017 159.77 25.0027L160.852 25.8112C161.309 26.1401 161.633 26.5055 161.825 26.9075C162.026 27.3095 162.127 27.8074 162.127 28.4012C162.127 29.9908 161.409 30.7856 159.975 30.7856Z" fill="white"/>
<rect x="117.41" y="34.7158" width="5.05152" height="13.7036" fill="#E5243B"/>
<rect x="122.462" y="34.7158" width="5.05152" height="13.7036" fill="#DDA63A"/>
<rect x="127.513" y="34.7158" width="5.05152" height="13.7036" fill="#4C9F38"/>
<rect x="132.565" y="34.7158" width="5.05152" height="13.7036" fill="#C5192D"/>
<rect x="137.616" y="34.7158" width="5.05152" height="13.7036" fill="#FF3A21"/>
<rect x="142.668" y="34.7158" width="5.05152" height="13.7036" fill="#26BDE2"/>
<rect x="147.719" y="34.7158" width="5.05152" height="13.7036" fill="#FCC30B"/>
<rect x="152.771" y="34.7158" width="5.05152" height="13.7036" fill="#A21942"/>
<rect x="157.822" y="34.7158" width="5.05152" height="13.7036" fill="#FD6925"/>
<rect x="162.874" y="34.7158" width="5.05152" height="13.7036" fill="#DD1367"/>
<rect x="167.925" y="34.7158" width="5.05152" height="13.7036" fill="#FD9D24"/>
<rect x="172.977" y="34.7158" width="5.05152" height="13.7036" fill="#BF8B2E"/>
<rect x="178.028" y="34.7158" width="5.05152" height="13.7036" fill="#DD1367"/>
<rect x="183.08" y="34.7158" width="5.05152" height="13.7036" fill="#0A97D9"/>
<rect x="188.131" y="34.7158" width="5.05152" height="13.7036" fill="#56C02B"/>
<rect x="193.183" y="34.7158" width="5.05152" height="13.7036" fill="#00689D"/>
<rect x="198.234" y="34.7158" width="5.05152" height="13.7036" fill="#19486A"/>
</g>
<defs>
<filter id="filter0_b_678_987" x="21.0281" y="-36.5429" width="242.941" height="149.586" filterUnits="userSpaceOnUse" color-interpolation-filters="sRGB">
<feFlood flood-opacity="0" result="BackgroundImageFix"/>
<feGaussianBlur in="BackgroundImageFix" stdDeviation="18.2715"/>
<feComposite in2="SourceAlpha" operator="in" result="effect1_backgroundBlur_678_987"/>
<feBlend mode="normal" in="SourceGraphic" in2="effect1_backgroundBlur_678_987" result="shape"/>
</filter>
</defs>
</svg>
