<svg width="191" height="77" viewBox="0 0 191 77" fill="none" xmlns="http://www.w3.org/2000/svg">
<path d="M33.75 0V70.2H16.2689V27V19.6545L0 35.55V15.6045L17.55 0H33.75Z" fill="#C21F32"/>
<g filter="url(#filter0_b_678_882)">
<path d="M49.5696 57.537C49.5441 57.2791 49.4343 57.0789 49.2404 56.9361C49.0465 56.7933 48.7834 56.722 48.451 56.722C48.2252 56.722 48.0345 56.7539 47.8789 56.8178C47.7234 56.8796 47.6041 56.9659 47.521 57.0767C47.44 57.1875 47.3995 57.3132 47.3995 57.4539C47.3953 57.571 47.4198 57.6733 47.473 57.7607C47.5284 57.848 47.6041 57.9237 47.7 57.9876C47.7958 58.0494 47.9066 58.1037 48.0323 58.1506C48.158 58.1953 48.2923 58.2337 48.435 58.2656L49.0231 58.4063C49.3086 58.4702 49.5707 58.5554 49.8093 58.662C50.048 58.7685 50.2546 58.8995 50.4294 59.0551C50.6041 59.2106 50.7394 59.3938 50.8352 59.6048C50.9333 59.8157 50.9833 60.0576 50.9855 60.3303C50.9833 60.7308 50.8811 61.0781 50.6786 61.3722C50.4784 61.6641 50.1886 61.891 49.8093 62.0529C49.4322 62.2127 48.9773 62.2926 48.4446 62.2926C47.9162 62.2926 47.456 62.2117 47.0639 62.0497C46.674 61.8878 46.3693 61.6481 46.1499 61.3306C45.9326 61.011 45.8186 60.6158 45.8079 60.1449H47.147C47.162 60.3644 47.2248 60.5476 47.3356 60.6946C47.4485 60.8395 47.5987 60.9492 47.7862 61.0238C47.9759 61.0963 48.19 61.1325 48.4286 61.1325C48.663 61.1325 48.8665 61.0984 49.0391 61.0302C49.2138 60.962 49.3491 60.8672 49.445 60.7458C49.5409 60.6243 49.5888 60.4848 49.5888 60.3271C49.5888 60.1801 49.5451 60.0565 49.4578 59.9563C49.3725 59.8562 49.2468 59.771 49.0806 59.7007C48.9166 59.6303 48.7152 59.5664 48.4766 59.5089L47.7639 59.3299C47.212 59.1957 46.7763 58.9858 46.4567 58.7003C46.1371 58.4148 45.9784 58.0302 45.9805 57.5465C45.9784 57.1502 46.0838 56.804 46.2969 56.5078C46.5121 56.2117 46.8072 55.9805 47.1822 55.8143C47.5572 55.6481 47.9833 55.565 48.4606 55.565C48.9464 55.565 49.3704 55.6481 49.7326 55.8143C50.097 55.9805 50.3803 56.2117 50.5828 56.5078C50.7852 56.804 50.8896 57.147 50.896 57.537H49.5696ZM53.9666 62.2H51.6463V55.6545H53.9858C54.6442 55.6545 55.2109 55.7855 55.6861 56.0476C56.1612 56.3076 56.5266 56.6815 56.7823 57.1694C57.0401 57.6573 57.169 58.2411 57.169 58.9208C57.169 59.6026 57.0401 60.1886 56.7823 60.6786C56.5266 61.1687 56.1591 61.5448 55.6797 61.8068C55.2024 62.0689 54.6314 62.2 53.9666 62.2ZM53.0302 61.0142H53.9091C54.3182 61.0142 54.6623 60.9418 54.9414 60.7969C55.2227 60.6499 55.4336 60.423 55.5742 60.1161C55.717 59.8072 55.7883 59.4088 55.7883 58.9208C55.7883 58.4372 55.717 58.0419 55.5742 57.7351C55.4336 57.4283 55.2237 57.2024 54.9446 57.0576C54.6655 56.9127 54.3214 56.8402 53.9123 56.8402H53.0302V61.0142ZM62.2644 57.7703C62.2196 57.6147 62.1568 57.4773 62.0758 57.358C61.9948 57.2365 61.8957 57.1343 61.7786 57.0512C61.6635 56.9659 61.5314 56.9009 61.3823 56.8562C61.2352 56.8115 61.0722 56.7891 60.8933 56.7891C60.5587 56.7891 60.2647 56.8722 60.0112 57.0384C59.7597 57.2046 59.5637 57.4464 59.4231 57.7639C59.2825 58.0792 59.2122 58.4649 59.2122 58.9208C59.2122 59.3768 59.2814 59.7646 59.4199 60.0842C59.5584 60.4038 59.7544 60.6477 60.008 60.8161C60.2615 60.9823 60.5609 61.0654 60.906 61.0654C61.2193 61.0654 61.4867 61.01 61.7082 60.8992C61.932 60.7862 62.1024 60.6275 62.2196 60.423C62.3389 60.2184 62.3986 59.9766 62.3986 59.6975L62.6798 59.739H60.9923V58.6971H63.7313V59.5217C63.7313 60.097 63.6099 60.5913 63.367 61.0046C63.1241 61.4159 62.7896 61.7333 62.3634 61.9571C61.9373 62.1786 61.4494 62.2894 60.8997 62.2894C60.286 62.2894 59.747 62.1541 59.2825 61.8835C58.818 61.6108 58.4558 61.2241 58.1958 60.7234C57.938 60.2205 57.8091 59.624 57.8091 58.9336C57.8091 58.4031 57.8858 57.9301 58.0392 57.5146C58.1948 57.097 58.4121 56.7433 58.6912 56.4535C58.9703 56.1637 59.2952 55.9432 59.666 55.7919C60.0367 55.6406 60.4384 55.565 60.8709 55.565C61.2416 55.565 61.5868 55.6193 61.9064 55.728C62.226 55.8345 62.5094 55.9858 62.7565 56.1818C63.0058 56.3779 63.2093 56.6112 63.367 56.8818C63.5247 57.1502 63.6259 57.4464 63.6706 57.7703H62.2644ZM64.3634 61.0494V59.9595L67.096 55.6545H68.0356V57.163H67.4795L65.7569 59.8892V59.9404H69.64V61.0494H64.3634ZM67.5051 62.2V60.717L67.5307 60.2344V55.6545H68.8283V62.2H67.5051Z" fill="#6746A5"/>
<path d="M75.1933 60.1545H76.0626L76.7913 61.1133L76.983 61.369L78.0697 62.8136H77.2004L76.4845 61.8548L76.3055 61.6119L75.1933 60.1545ZM78.3381 58.9272C78.3381 59.6176 78.2135 60.2142 77.9642 60.717C77.7149 61.2198 77.3729 61.6076 76.9383 61.8803C76.5036 62.1531 76.0072 62.2894 75.4489 62.2894C74.8907 62.2894 74.3943 62.1531 73.9596 61.8803C73.5249 61.6076 73.183 61.2198 72.9337 60.717C72.6844 60.2142 72.5597 59.6176 72.5597 58.9272C72.5597 58.2369 72.6844 57.6403 72.9337 57.1375C73.183 56.6346 73.5249 56.2468 73.9596 55.9741C74.3943 55.7014 74.8907 55.565 75.4489 55.565C76.0072 55.565 76.5036 55.7014 76.9383 55.9741C77.3729 56.2468 77.7149 56.6346 77.9642 57.1375C78.2135 57.6403 78.3381 58.2369 78.3381 58.9272ZM77.5711 58.9272C77.5711 58.3605 77.4763 57.8821 77.2867 57.4922C77.0992 57.1023 76.8445 56.8072 76.5228 56.6069C76.2032 56.4066 75.8452 56.3065 75.4489 56.3065C75.0526 56.3065 74.6936 56.4066 74.3719 56.6069C74.0523 56.8072 73.7977 57.1023 73.608 57.4922C73.4205 57.8821 73.3268 58.3605 73.3268 58.9272C73.3268 59.494 73.4205 59.9723 73.608 60.3622C73.7977 60.7522 74.0523 61.0473 74.3719 61.2475C74.6936 61.4478 75.0526 61.548 75.4489 61.548C75.8452 61.548 76.2032 61.4478 76.5228 61.2475C76.8445 61.0473 77.0992 60.7522 77.2867 60.3622C77.4763 59.9723 77.5711 59.494 77.5711 58.9272ZM83.6963 55.6545H84.489V59.9883C84.489 60.4357 84.3835 60.8352 84.1725 61.1868C83.9637 61.5362 83.6686 61.8122 83.2872 62.0146C82.9059 62.2149 82.4584 62.315 81.9449 62.315C81.4314 62.315 80.984 62.2149 80.6026 62.0146C80.2212 61.8122 79.925 61.5362 79.7141 61.1868C79.5053 60.8352 79.4009 60.4357 79.4009 59.9883V55.6545H80.1935V59.9244C80.1935 60.244 80.2638 60.5284 80.4044 60.7777C80.5451 61.0249 80.7453 61.2198 81.0053 61.3626C81.2674 61.5032 81.5806 61.5735 81.9449 61.5735C82.3093 61.5735 82.6225 61.5032 82.8846 61.3626C83.1466 61.2198 83.3469 61.0249 83.4854 60.7777C83.626 60.5284 83.6963 60.244 83.6963 59.9244V55.6545ZM86.0703 62.2H85.2393L87.6427 55.6545H88.4609L90.8643 62.2H90.0333L88.0774 56.69H88.0262L86.0703 62.2ZM86.3771 59.6431H89.7265V60.3463H86.3771V59.6431ZM91.6138 62.2V55.6545H92.4064V61.4968H95.449V62.2H91.6138ZM97.1989 55.6545V62.2H96.4063V55.6545H97.1989ZM98.1602 56.3576V55.6545H103.069V56.3576H101.011V62.2H100.218V56.3576H98.1602ZM103.46 55.6545H104.368L106.183 58.7099H106.26L108.075 55.6545H108.983L106.618 59.5025V62.2H105.825V59.5025L103.46 55.6545ZM111.999 62.2V55.6545H115.949V56.3576H112.792V58.5693H115.745V59.2724H112.792V61.4968H116.001V62.2H111.999ZM119.128 62.2H117.108V55.6545H119.217C119.852 55.6545 120.396 55.7855 120.847 56.0476C121.299 56.3076 121.645 56.6815 121.886 57.1694C122.127 57.6552 122.247 58.2369 122.247 58.9144C122.247 59.5963 122.126 60.1833 121.883 60.6754C121.64 61.1655 121.286 61.5426 120.822 61.8068C120.357 62.0689 119.793 62.2 119.128 62.2ZM117.901 61.4968H119.077C119.618 61.4968 120.067 61.3924 120.422 61.1836C120.778 60.9748 121.043 60.6776 121.218 60.2919C121.393 59.9063 121.48 59.4471 121.48 58.9144C121.48 58.386 121.394 57.9311 121.221 57.5497C121.049 57.1662 120.791 56.8722 120.448 56.6676C120.105 56.461 119.678 56.3576 119.166 56.3576H117.901V61.4968ZM127.602 55.6545H128.395V59.9883C128.395 60.4357 128.289 60.8352 128.078 61.1868C127.87 61.5362 127.575 61.8122 127.193 62.0146C126.812 62.2149 126.364 62.315 125.851 62.315C125.337 62.315 124.89 62.2149 124.509 62.0146C124.127 61.8122 123.831 61.5362 123.62 61.1868C123.411 60.8352 123.307 60.4357 123.307 59.9883V55.6545H124.099V59.9244C124.099 60.244 124.17 60.5284 124.31 60.7777C124.451 61.0249 124.651 61.2198 124.911 61.3626C125.173 61.5032 125.487 61.5735 125.851 61.5735C126.215 61.5735 126.528 61.5032 126.79 61.3626C127.053 61.2198 127.253 61.0249 127.391 60.7777C127.532 60.5284 127.602 60.244 127.602 59.9244V55.6545ZM134.975 57.7H134.182C134.135 57.472 134.053 57.2717 133.936 57.0991C133.821 56.9265 133.68 56.7816 133.514 56.6644C133.35 56.5451 133.168 56.4556 132.968 56.396C132.767 56.3363 132.559 56.3065 132.341 56.3065C131.945 56.3065 131.586 56.4066 131.264 56.6069C130.945 56.8072 130.69 57.1023 130.5 57.4922C130.313 57.8821 130.219 58.3605 130.219 58.9272C130.219 59.494 130.313 59.9723 130.5 60.3622C130.69 60.7522 130.945 61.0473 131.264 61.2475C131.586 61.4478 131.945 61.548 132.341 61.548C132.559 61.548 132.767 61.5181 132.968 61.4585C133.168 61.3988 133.35 61.3104 133.514 61.1932C133.68 61.0739 133.821 60.9279 133.936 60.7553C134.053 60.5806 134.135 60.3803 134.182 60.1545H134.975C134.915 60.489 134.806 60.7884 134.649 61.0526C134.491 61.3168 134.295 61.5416 134.061 61.7269C133.826 61.9102 133.563 62.0497 133.271 62.1456C132.982 62.2415 132.671 62.2894 132.341 62.2894C131.783 62.2894 131.287 62.1531 130.852 61.8803C130.417 61.6076 130.075 61.2198 129.826 60.717C129.577 60.2142 129.452 59.6176 129.452 58.9272C129.452 58.2369 129.577 57.6403 129.826 57.1375C130.075 56.6346 130.417 56.2468 130.852 55.9741C131.287 55.7014 131.783 55.565 132.341 55.565C132.671 55.565 132.982 55.6129 133.271 55.7088C133.563 55.8047 133.826 55.9453 134.061 56.1307C134.295 56.3139 134.491 56.5377 134.649 56.8019C134.806 57.0639 134.915 57.3633 134.975 57.7ZM136.254 62.2H135.423L137.826 55.6545H138.645L141.048 62.2H140.217L138.261 56.69H138.21L136.254 62.2ZM136.561 59.6431H139.91V60.3463H136.561V59.6431ZM140.675 56.3576V55.6545H145.584V56.3576H143.526V62.2H142.733V56.3576H140.675ZM147.33 55.6545V62.2H146.537V55.6545H147.33ZM154.172 58.9272C154.172 59.6176 154.047 60.2142 153.798 60.717C153.549 61.2198 153.207 61.6076 152.772 61.8803C152.337 62.1531 151.841 62.2894 151.283 62.2894C150.724 62.2894 150.228 62.1531 149.793 61.8803C149.359 61.6076 149.017 61.2198 148.767 60.717C148.518 60.2142 148.394 59.6176 148.394 58.9272C148.394 58.2369 148.518 57.6403 148.767 57.1375C149.017 56.6346 149.359 56.2468 149.793 55.9741C150.228 55.7014 150.724 55.565 151.283 55.565C151.841 55.565 152.337 55.7014 152.772 55.9741C153.207 56.2468 153.549 56.6346 153.798 57.1375C154.047 57.6403 154.172 58.2369 154.172 58.9272ZM153.405 58.9272C153.405 58.3605 153.31 57.8821 153.12 57.4922C152.933 57.1023 152.678 56.8072 152.357 56.6069C152.037 56.4066 151.679 56.3065 151.283 56.3065C150.886 56.3065 150.527 56.4066 150.206 56.6069C149.886 56.8072 149.631 57.1023 149.442 57.4922C149.254 57.8821 149.161 58.3605 149.161 58.9272C149.161 59.494 149.254 59.9723 149.442 60.3622C149.631 60.7522 149.886 61.0473 150.206 61.2475C150.527 61.4478 150.886 61.548 151.283 61.548C151.679 61.548 152.037 61.4478 152.357 61.2475C152.678 61.0473 152.933 60.7522 153.12 60.3622C153.31 59.9723 153.405 59.494 153.405 58.9272ZM160.425 55.6545V62.2H159.658L156.091 57.0607H156.027V62.2H155.235V55.6545H156.002L159.581 60.8065H159.645V55.6545H160.425Z" fill="black"/>
<path d="M46.1275 72.5V71.9247L48.288 69.5597C48.5416 69.2827 48.7504 69.0419 48.9144 68.8374C49.0785 68.6307 49.2 68.4368 49.2788 68.2557C49.3598 68.0724 49.4002 67.8807 49.4002 67.6804C49.4002 67.4503 49.3448 67.2511 49.234 67.0827C49.1254 66.9144 48.9762 66.7844 48.7866 66.6928C48.597 66.6012 48.3839 66.5554 48.1474 66.5554C47.896 66.5554 47.6765 66.6076 47.489 66.712C47.3036 66.8143 47.1598 66.9581 47.0576 67.1435C46.9574 67.3288 46.9073 67.5462 46.9073 67.7955H46.1531C46.1531 67.4119 46.2415 67.0753 46.4183 66.7855C46.5952 66.4957 46.836 66.2699 47.1406 66.108C47.4475 65.946 47.7916 65.8651 48.173 65.8651C48.5565 65.8651 48.8963 65.946 49.1925 66.108C49.4887 66.2699 49.7209 66.4883 49.8892 66.7631C50.0576 67.038 50.1417 67.3438 50.1417 67.6804C50.1417 67.9212 50.098 68.1566 50.0107 68.3867C49.9254 68.6147 49.7763 68.8693 49.5632 69.1506C49.3523 69.4297 49.0593 69.7706 48.6843 70.1733L47.2142 71.7457V71.7969H50.2568V72.5H46.1275ZM53.4417 72.5895C52.9601 72.5895 52.55 72.4585 52.2112 72.1964C51.8724 71.9322 51.6135 71.5497 51.4346 71.049C51.2556 70.5462 51.1661 69.9389 51.1661 69.2273C51.1661 68.5199 51.2556 67.9158 51.4346 67.4151C51.6157 66.9123 51.8756 66.5288 52.2144 66.2646C52.5553 65.9982 52.9644 65.8651 53.4417 65.8651C53.9189 65.8651 54.327 65.9982 54.6657 66.2646C55.0067 66.5288 55.2666 66.9123 55.4456 67.4151C55.6267 67.9158 55.7172 68.5199 55.7172 69.2273C55.7172 69.9389 55.6277 70.5462 55.4488 71.049C55.2698 71.5497 55.0109 71.9322 54.6721 72.1964C54.3334 72.4585 53.9232 72.5895 53.4417 72.5895ZM53.4417 71.8864C53.9189 71.8864 54.2897 71.6562 54.5539 71.196C54.8181 70.7358 54.9502 70.0795 54.9502 69.2273C54.9502 68.6605 54.8895 68.1779 54.768 67.7795C54.6487 67.381 54.4761 67.0774 54.2503 66.8686C54.0265 66.6598 53.757 66.5554 53.4417 66.5554C52.9687 66.5554 52.599 66.7887 52.3327 67.2553C52.0663 67.7198 51.9331 68.3771 51.9331 69.2273C51.9331 69.794 51.9928 70.2756 52.1121 70.6719C52.2314 71.0682 52.403 71.3697 52.6267 71.5763C52.8525 71.783 53.1242 71.8864 53.4417 71.8864ZM56.6617 72.5V71.9247L58.8222 69.5597C59.0758 69.2827 59.2846 69.0419 59.4487 68.8374C59.6127 68.6307 59.7342 68.4368 59.813 68.2557C59.894 68.0724 59.9345 67.8807 59.9345 67.6804C59.9345 67.4503 59.8791 67.2511 59.7683 67.0827C59.6596 66.9144 59.5104 66.7844 59.3208 66.6928C59.1312 66.6012 58.9181 66.5554 58.6816 66.5554C58.4302 66.5554 58.2107 66.6076 58.0232 66.712C57.8379 66.8143 57.694 66.9581 57.5918 67.1435C57.4916 67.3288 57.4416 67.5462 57.4416 67.7955H56.6873C56.6873 67.4119 56.7757 67.0753 56.9526 66.7855C57.1294 66.4957 57.3702 66.2699 57.6749 66.108C57.9817 65.946 58.3258 65.8651 58.7072 65.8651C59.0907 65.8651 59.4305 65.946 59.7267 66.108C60.0229 66.2699 60.2551 66.4883 60.4234 66.7631C60.5918 67.038 60.6759 67.3438 60.6759 67.6804C60.6759 67.9212 60.6323 68.1566 60.5449 68.3867C60.4597 68.6147 60.3105 68.8693 60.0975 69.1506C59.8865 69.4297 59.5935 69.7706 59.2185 70.1733L57.7484 71.7457V71.7969H60.791V72.5H56.6617ZM61.5469 71.1577V70.5057L64.4233 65.9545H64.8963V66.9645H64.5767L62.4034 70.4034V70.4545H66.277V71.1577H61.5469ZM64.6279 72.5V70.9595V70.6559V65.9545H65.3821V72.5H64.6279ZM69.108 67.0955V65.9545H74.4837V67.0955H72.4798V72.5H71.1119V67.0955H69.108ZM80.8151 69.2273C80.8151 69.9411 80.6798 70.5483 80.4092 71.049C80.1408 71.5497 79.7743 71.9322 79.3098 72.1964C78.8474 72.4585 78.3276 72.5895 77.7501 72.5895C77.1685 72.5895 76.6464 72.4574 76.1841 72.1932C75.7217 71.929 75.3563 71.5465 75.0879 71.0458C74.8194 70.5451 74.6852 69.9389 74.6852 69.2273C74.6852 68.5135 74.8194 67.9062 75.0879 67.4055C75.3563 66.9048 75.7217 66.5234 76.1841 66.2614C76.6464 65.9972 77.1685 65.8651 77.7501 65.8651C78.3276 65.8651 78.8474 65.9972 79.3098 66.2614C79.7743 66.5234 80.1408 66.9048 80.4092 67.4055C80.6798 67.9062 80.8151 68.5135 80.8151 69.2273ZM79.4121 69.2273C79.4121 68.7649 79.3428 68.375 79.2043 68.0575C79.068 67.7401 78.8751 67.4993 78.6258 67.3352C78.3766 67.1712 78.0847 67.0891 77.7501 67.0891C77.4156 67.0891 77.1237 67.1712 76.8744 67.3352C76.6251 67.4993 76.4312 67.7401 76.2928 68.0575C76.1564 68.375 76.0882 68.7649 76.0882 69.2273C76.0882 69.6896 76.1564 70.0795 76.2928 70.397C76.4312 70.7145 76.6251 70.9553 76.8744 71.1193C77.1237 71.2834 77.4156 71.3654 77.7501 71.3654C78.0847 71.3654 78.3766 71.2834 78.6258 71.1193C78.8751 70.9553 79.068 70.7145 79.2043 70.397C79.3428 70.0795 79.4121 69.6896 79.4121 69.2273ZM81.5703 72.5V65.9545H84.1526C84.6491 65.9545 85.072 66.0494 85.4215 66.239C85.7709 66.4265 86.0372 66.6875 86.2205 67.022C86.4058 67.3544 86.4985 67.7379 86.4985 68.1726C86.4985 68.6072 86.4048 68.9908 86.2173 69.3232C86.0298 69.6555 85.7581 69.9144 85.4023 70.0998C85.0486 70.2852 84.6203 70.3778 84.1175 70.3778H82.4715V69.2688H83.8938C84.1601 69.2688 84.3796 69.223 84.5521 69.1314C84.7269 69.0376 84.8568 68.9087 84.9421 68.7447C85.0294 68.5785 85.0731 68.3878 85.0731 68.1726C85.0731 67.9553 85.0294 67.7656 84.9421 67.6037C84.8568 67.4396 84.7269 67.3129 84.5521 67.2234C84.3774 67.1317 84.1558 67.0859 83.8874 67.0859H82.9541V72.5H81.5703ZM91.7497 65.9545V72.5H90.3658V67.2681H90.3275L88.8285 68.2077V66.9805L90.4489 65.9545H91.7497ZM95.1616 69.2273C95.1616 68.4347 95.2671 67.7049 95.478 67.038C95.6911 66.3711 96.016 65.7532 96.4528 65.1843H97.7536C97.5874 65.3952 97.4329 65.6531 97.2901 65.9577C97.1474 66.2603 97.0227 66.5927 96.9162 66.9549C96.8097 67.3171 96.7266 67.6921 96.6669 68.0799C96.6073 68.4656 96.5774 68.848 96.5774 69.2273C96.5774 69.7322 96.6286 70.2425 96.7308 70.7582C96.8352 71.2717 96.9759 71.7489 97.1527 72.19C97.3317 72.631 97.532 72.9922 97.7536 73.2734H96.4528C96.016 72.7045 95.6911 72.0866 95.478 71.4197C95.2671 70.7528 95.1616 70.022 95.1616 69.2273ZM103.774 65.9545V72.5H102.579L99.7312 68.3803H99.6832V72.5H98.2993V65.9545H99.5138L102.339 70.071H102.397V65.9545H103.774ZM106.031 65.9545V72.5H104.648V65.9545H106.031ZM111.24 68.0703C111.195 67.9148 111.133 67.7773 111.052 67.658C110.971 67.5366 110.872 67.4343 110.754 67.3512C110.639 67.266 110.507 67.201 110.358 67.1562C110.211 67.1115 110.048 67.0891 109.869 67.0891C109.535 67.0891 109.241 67.1722 108.987 67.3384C108.736 67.5046 108.54 67.7464 108.399 68.0639C108.258 68.3793 108.188 68.7649 108.188 69.2209C108.188 69.6768 108.257 70.0646 108.396 70.3842C108.534 70.7038 108.73 70.9478 108.984 71.1161C109.237 71.2823 109.537 71.3654 109.882 71.3654C110.195 71.3654 110.462 71.31 110.684 71.1992C110.908 71.0863 111.078 70.9276 111.195 70.723C111.315 70.5185 111.374 70.2766 111.374 69.9975L111.656 70.0391H109.968V68.9972H112.707V69.8217C112.707 70.397 112.586 70.8913 112.343 71.3047C112.1 71.7159 111.765 72.0334 111.339 72.2571C110.913 72.4787 110.425 72.5895 109.875 72.5895C109.262 72.5895 108.723 72.4542 108.258 72.1836C107.794 71.9109 107.432 71.5241 107.172 71.0234C106.914 70.5206 106.785 69.924 106.785 69.2337C106.785 68.7031 106.862 68.2301 107.015 67.8146C107.171 67.397 107.388 67.0433 107.667 66.7536C107.946 66.4638 108.271 66.2433 108.642 66.092C109.013 65.9407 109.414 65.8651 109.847 65.8651C110.217 65.8651 110.563 65.9194 110.882 66.0281C111.202 66.1346 111.485 66.2859 111.732 66.4819C111.982 66.6779 112.185 66.9112 112.343 67.1818C112.5 67.4503 112.602 67.7464 112.646 68.0703H111.24ZM113.477 72.5V65.9545H117.887V67.0955H114.861V68.6552H117.66V69.7962H114.861V71.359H117.9V72.5H113.477ZM118.717 72.5V65.9545H121.3C121.794 65.9545 122.216 66.043 122.565 66.2198C122.917 66.3945 123.184 66.6428 123.368 66.9645C123.553 67.2841 123.646 67.6602 123.646 68.0927C123.646 68.5273 123.552 68.9013 123.364 69.2145C123.177 69.5256 122.905 69.7642 122.549 69.9304C122.196 70.0966 121.767 70.1797 121.265 70.1797H119.536V69.0675H121.041C121.305 69.0675 121.525 69.0312 121.699 68.9588C121.874 68.8864 122.004 68.7777 122.089 68.6328C122.177 68.4879 122.22 68.3079 122.22 68.0927C122.22 67.8754 122.177 67.6921 122.089 67.543C122.004 67.3938 121.873 67.2809 121.696 67.2042C121.521 67.1254 121.301 67.0859 121.035 67.0859H120.101V72.5H118.717ZM122.252 69.5213L123.879 72.5H122.351L120.76 69.5213H122.252ZM125.738 65.9545V72.5H124.354V65.9545H125.738ZM127.734 72.5H126.251L128.511 65.9545H130.294L132.551 72.5H131.068L129.428 67.4503H129.377L127.734 72.5ZM127.642 69.9272H131.144V71.0075H127.642V69.9272ZM135.338 69.2273C135.338 70.022 135.231 70.7528 135.018 71.4197C134.807 72.0866 134.483 72.7045 134.047 73.2734H132.746C132.912 73.0625 133.066 72.8047 133.209 72.5C133.352 72.1953 133.477 71.8629 133.583 71.5028C133.69 71.1406 133.773 70.7656 133.832 70.3778C133.892 69.9901 133.922 69.6065 133.922 69.2273C133.922 68.7223 133.87 68.2131 133.765 67.6996C133.663 67.1839 133.522 66.7067 133.343 66.2678C133.167 65.8267 132.967 65.4656 132.746 65.1843H134.047C134.483 65.7532 134.807 66.3711 135.018 67.038C135.231 67.7049 135.338 68.4347 135.338 69.2273Z" fill="black"/>
<path d="M81.6445 48.4194V3.19751H96.2617V8.67895H89.8667V20.5554H95.3481V26.0368H89.8667V41.5676H96.2617V48.4194H81.6445Z" fill="#3674EC"/>
<path d="M62.9167 48.4194V3.19751H70.2253V20.5554H72.9661V3.19751H79.8178V48.4194H72.9661V26.0368H70.2253V48.4194H62.9167Z" fill="#B70D7F"/>
<path d="M43.7314 9.13573V3.19751H61.0893V9.13573H56.0647V48.4194H49.2129V9.13573H43.7314Z" fill="#E40327"/>
<rect width="46.4443" height="13.7036" transform="translate(98.0891 3.19751)" fill="#6746A5"/>
<path d="M101.932 15.0493V5.4568H103.029V15.0493H101.932ZM108.209 12.9938H106.99L105.825 6.38864V15.0493H104.756V5.4568H106.428L107.593 12.103L108.771 5.4568H110.443V15.0493H109.374V6.38864L108.209 12.9938ZM112.17 15.0493V5.4568H113.869C114.609 5.4568 115.148 5.70346 115.486 6.19679C115.833 6.69012 116.007 7.46666 116.007 8.5264V8.59492C116.007 9.65467 115.833 10.4312 115.486 10.9245C115.148 11.4087 114.609 11.6508 113.869 11.6508H113.266V15.0493H112.17ZM113.266 10.7875H113.869C114.573 10.7875 114.924 10.116 114.924 8.77307V8.34826C114.924 7.00531 114.573 6.33383 113.869 6.33383H113.266V10.7875ZM120.061 15.0493L119.636 12.5553H117.704L117.293 15.0493H116.196L117.95 5.4568H119.403L121.157 15.0493H120.061ZM118.677 6.84086L117.854 11.6782H119.485L118.677 6.84086ZM124.166 15.2549C123.426 15.2549 122.887 15.0082 122.549 14.5149C122.211 14.0124 122.042 13.213 122.042 12.1167V8.38937C122.042 7.29308 122.211 6.49827 122.549 6.00494C122.887 5.50248 123.426 5.25125 124.166 5.25125C124.76 5.25125 125.207 5.42939 125.509 5.78569C125.819 6.13284 126.007 6.68556 126.07 7.44382L125.07 7.69049C125.024 7.13321 124.929 6.7358 124.782 6.49827C124.636 6.26074 124.421 6.14198 124.138 6.14198C123.782 6.14198 123.522 6.30185 123.357 6.62161C123.202 6.94136 123.124 7.45296 123.124 8.15641V12.4045C123.124 13.0897 123.202 13.5876 123.357 13.8982C123.522 14.2088 123.782 14.3641 124.138 14.3641C124.458 14.3641 124.696 14.2362 124.851 13.9804C125.015 13.7155 125.12 13.2633 125.166 12.6238L126.125 12.7471C126.043 13.615 125.842 14.2499 125.522 14.6519C125.212 15.0539 124.76 15.2549 124.166 15.2549ZM126.674 6.33383V5.4568H130.415V6.33383H129.086V15.0493H128.003V6.33383H126.674Z" fill="white"/>
<rect width="62.123" height="13.7036" transform="translate(98.0891 18.7283)" fill="#6746A5"/>
<path d="M102.136 30.5801V20.9876H103.835C104.566 20.9876 105.105 21.2251 105.452 21.7001C105.799 22.1752 105.973 22.9243 105.973 23.9475V24.0161C105.973 25.4047 105.635 26.2863 104.959 26.6608L106.096 30.5801H104.973L103.904 26.9075H103.232V30.5801H102.136ZM103.232 26.0442H103.835C104.539 26.0442 104.89 25.4138 104.89 24.1531V23.742C104.89 22.4904 104.539 21.8646 103.835 21.8646H103.232V26.0442ZM110.642 30.5801L110.218 28.086H108.285L107.874 30.5801H106.778L108.532 20.9876H109.985L111.739 30.5801H110.642ZM109.258 22.3716L108.436 27.209H110.067L109.258 22.3716ZM116.118 30.5801L113.884 23.5775V30.5801H112.815V20.9876H113.952L116.186 28.0038V20.9876H117.255V30.5801H116.118ZM120.081 27.1268V30.5801H118.984V20.9876H120.081V25.0438L122.095 20.9876H123.191L121.095 25.1123L123.274 30.5801H122.177L120.519 26.2634L120.081 27.1268ZM124.204 30.5801V20.9876H125.3V30.5801H124.204ZM130.33 30.5801L128.096 23.5775V30.5801H127.027V20.9876H128.165L130.398 28.0038V20.9876H131.467V30.5801H130.33ZM134.814 30.7856C134.192 30.7856 133.736 30.539 133.443 30.0456C133.151 29.5523 133.005 28.7758 133.005 27.716V23.9201C133.005 22.8238 133.174 22.029 133.512 21.5357C133.85 21.0332 134.389 20.782 135.129 20.782C135.723 20.782 136.17 20.9602 136.472 21.3164C136.782 21.6636 136.97 22.2163 137.034 22.9746L136.033 23.2212C135.987 22.6731 135.892 22.2803 135.745 22.0427C135.599 21.7961 135.385 21.6727 135.101 21.6727C134.745 21.6727 134.485 21.8326 134.32 22.1524C134.165 22.4721 134.087 22.9837 134.087 23.6872V27.9216C134.087 28.5976 134.165 29.0955 134.32 29.4153C134.476 29.735 134.722 29.8949 135.06 29.8949C135.773 29.8949 136.129 29.2782 136.129 28.0449V26.3731H135.005V25.496H137.157V30.5664H136.485L136.294 29.6756C136.029 30.4156 135.535 30.7856 134.814 30.7856ZM140.654 30.7856C139.987 30.7856 139.48 30.5572 139.133 30.1005C138.786 29.6345 138.576 28.9037 138.503 27.9079L139.53 27.7297C139.567 28.4697 139.677 29.0133 139.859 29.3605C140.042 29.7076 140.307 29.8812 140.654 29.8812C141.376 29.8812 141.737 29.397 141.737 28.4286C141.737 28.054 141.677 27.7297 141.558 27.4557C141.449 27.1816 141.262 26.9441 140.997 26.7431L139.9 25.9346C139.489 25.6331 139.179 25.2722 138.969 24.852C138.768 24.4317 138.667 23.9293 138.667 23.3446C138.667 22.4675 138.831 21.8235 139.16 21.4124C139.498 20.9921 140.019 20.782 140.723 20.782C141.371 20.782 141.855 20.9739 142.175 21.3576C142.504 21.7413 142.705 22.3625 142.778 23.2212L141.737 23.4542C141.7 22.2848 141.358 21.7001 140.709 21.7001C140.069 21.7001 139.75 22.198 139.75 23.1938C139.75 23.6598 139.8 24.0298 139.9 24.3038C140.001 24.5688 140.184 24.8017 140.449 25.0027L141.531 25.8112C141.988 26.1401 142.312 26.5055 142.504 26.9075C142.705 27.3095 142.806 27.8074 142.806 28.4012C142.806 29.9908 142.088 30.7856 140.654 30.7856Z" fill="white"/>
<rect x="98.0891" y="34.7158" width="5.05152" height="13.7036" fill="#E5243B"/>
<rect x="103.141" y="34.7158" width="5.05152" height="13.7036" fill="#DDA63A"/>
<rect x="108.192" y="34.7158" width="5.05152" height="13.7036" fill="#4C9F38"/>
<rect x="113.244" y="34.7158" width="5.05152" height="13.7036" fill="#C5192D"/>
<rect x="118.295" y="34.7158" width="5.05152" height="13.7036" fill="#FF3A21"/>
<rect x="123.346" y="34.7158" width="5.05152" height="13.7036" fill="#26BDE2"/>
<rect x="128.398" y="34.7158" width="5.05152" height="13.7036" fill="#FCC30B"/>
<rect x="133.45" y="34.7158" width="5.05152" height="13.7036" fill="#A21942"/>
<rect x="138.501" y="34.7158" width="5.05152" height="13.7036" fill="#FD6925"/>
<rect x="143.553" y="34.7158" width="5.05152" height="13.7036" fill="#DD1367"/>
<rect x="148.604" y="34.7158" width="5.05152" height="13.7036" fill="#FD9D24"/>
<rect x="153.656" y="34.7158" width="5.05152" height="13.7036" fill="#BF8B2E"/>
<rect x="158.707" y="34.7158" width="5.05152" height="13.7036" fill="#DD1367"/>
<rect x="163.759" y="34.7158" width="5.05152" height="13.7036" fill="#0A97D9"/>
<rect x="168.81" y="34.7158" width="5.05152" height="13.7036" fill="#56C02B"/>
<rect x="173.862" y="34.7158" width="5.05152" height="13.7036" fill="#00689D"/>
<rect x="178.913" y="34.7158" width="5.05152" height="13.7036" fill="#19486A"/>
</g>
<defs>
<filter id="filter0_b_678_882" x="1.70708" y="-36.5429" width="225.186" height="149.586" filterUnits="userSpaceOnUse" color-interpolation-filters="sRGB">
<feFlood flood-opacity="0" result="BackgroundImageFix"/>
<feGaussianBlur in="BackgroundImageFix" stdDeviation="18.2715"/>
<feComposite in2="SourceAlpha" operator="in" result="effect1_backgroundBlur_678_882"/>
<feBlend mode="normal" in="SourceGraphic" in2="effect1_backgroundBlur_678_882" result="shape"/>
</filter>
</defs>
</svg>
