<svg width="221" height="77" viewBox="0 0 221 77" fill="none" xmlns="http://www.w3.org/2000/svg">
<path d="M1.9983 71.9785V59.883C1.9983 43.8217 34.815 38.3687 34.815 22.01C34.7158 16.4579 31.2458 13.3844 25.3963 13.3844C19.5468 13.3844 13.0033 17.4493 15.4819 32.5192L0.808573 30.8338C-2.16575 9.71611 9.73153 0 24.8014 0C36.9961 0 49.7857 5.55206 49.7857 22.6048C49.7857 44.5157 18.5554 49.7703 18.5554 58.8915H49.5874V71.9785H1.9983Z" fill="#279B48"/>
<g filter="url(#filter0_b_678_917)">
<path d="M65.6055 57.537C65.5799 57.2791 65.4702 57.0789 65.2763 56.9361C65.0824 56.7933 64.8193 56.722 64.4869 56.722C64.2611 56.722 64.0704 56.7539 63.9148 56.8178C63.7593 56.8796 63.64 56.9659 63.5569 57.0767C63.4759 57.1875 63.4354 57.3132 63.4354 57.4539C63.4312 57.571 63.4557 57.6733 63.5089 57.7607C63.5643 57.848 63.64 57.9237 63.7358 57.9876C63.8317 58.0494 63.9425 58.1037 64.0682 58.1506C64.1939 58.1953 64.3282 58.2337 64.4709 58.2656L65.059 58.4063C65.3445 58.4702 65.6066 58.5554 65.8452 58.662C66.0839 58.7685 66.2905 58.8995 66.4652 59.0551C66.64 59.2106 66.7753 59.3938 66.8711 59.6048C66.9691 59.8157 67.0192 60.0576 67.0214 60.3303C67.0192 60.7308 66.9169 61.0781 66.7145 61.3722C66.5142 61.6641 66.2245 61.891 65.8452 62.0529C65.4681 62.2127 65.0132 62.2926 64.4805 62.2926C63.9521 62.2926 63.4919 62.2117 63.0998 62.0497C62.7099 61.8878 62.4052 61.6481 62.1858 61.3306C61.9684 61.011 61.8544 60.6158 61.8438 60.1449H63.1829C63.1978 60.3644 63.2607 60.5476 63.3715 60.6946C63.4844 60.8395 63.6346 60.9492 63.8221 61.0238C64.0118 61.0963 64.2259 61.1325 64.4645 61.1325C64.6989 61.1325 64.9024 61.0984 65.075 61.0302C65.2497 60.962 65.385 60.8672 65.4809 60.7458C65.5767 60.6243 65.6247 60.4848 65.6247 60.3271C65.6247 60.1801 65.581 60.0565 65.4937 59.9563C65.4084 59.8562 65.2827 59.771 65.1165 59.7007C64.9525 59.6303 64.7511 59.5664 64.5125 59.5089L63.7998 59.3299C63.2479 59.1957 62.8122 58.9858 62.4926 58.7003C62.173 58.4148 62.0142 58.0302 62.0164 57.5465C62.0142 57.1502 62.1197 56.804 62.3328 56.5078C62.548 56.2117 62.8431 55.9805 63.2181 55.8143C63.5931 55.6481 64.0192 55.565 64.4965 55.565C64.9823 55.565 65.4063 55.6481 65.7685 55.8143C66.1329 55.9805 66.4162 56.2117 66.6187 56.5078C66.8211 56.804 66.9255 57.147 66.9319 57.537H65.6055ZM70.0025 62.2H67.6822V55.6545H70.0217C70.6801 55.6545 71.2468 55.7855 71.722 56.0476C72.1971 56.3076 72.5625 56.6815 72.8182 57.1694C73.076 57.6573 73.2049 58.2411 73.2049 58.9208C73.2049 59.6026 73.076 60.1886 72.8182 60.6786C72.5625 61.1687 72.195 61.5448 71.7156 61.8068C71.2383 62.0689 70.6673 62.2 70.0025 62.2ZM69.0661 61.0142H69.945C70.3541 61.0142 70.6982 60.9418 70.9773 60.7969C71.2585 60.6499 71.4695 60.423 71.6101 60.1161C71.7529 59.8072 71.8242 59.4088 71.8242 58.9208C71.8242 58.4372 71.7529 58.0419 71.6101 57.7351C71.4695 57.4283 71.2596 57.2024 70.9805 57.0576C70.7014 56.9127 70.3573 56.8402 69.9482 56.8402H69.0661V61.0142ZM78.3002 57.7703C78.2555 57.6147 78.1926 57.4773 78.1117 57.358C78.0307 57.2365 77.9316 57.1343 77.8144 57.0512C77.6994 56.9659 77.5673 56.9009 77.4181 56.8562C77.2711 56.8115 77.1081 56.7891 76.9291 56.7891C76.5946 56.7891 76.3006 56.8722 76.047 57.0384C75.7956 57.2046 75.5996 57.4464 75.459 57.7639C75.3184 58.0792 75.248 58.4649 75.248 58.9208C75.248 59.3768 75.3173 59.7646 75.4558 60.0842C75.5943 60.4038 75.7903 60.6477 76.0439 60.8161C76.2974 60.9823 76.5968 61.0654 76.9419 61.0654C77.2551 61.0654 77.5225 61.01 77.7441 60.8992C77.9679 60.7862 78.1383 60.6275 78.2555 60.423C78.3748 60.2184 78.4345 59.9766 78.4345 59.6975L78.7157 59.739H77.0282V58.6971H79.7672V59.5217C79.7672 60.097 79.6458 60.5913 79.4029 61.0046C79.16 61.4159 78.8255 61.7333 78.3993 61.9571C77.9732 62.1786 77.4853 62.2894 76.9355 62.2894C76.3219 62.2894 75.7828 62.1541 75.3184 61.8835C74.8539 61.6108 74.4916 61.2241 74.2317 60.7234C73.9739 60.2205 73.845 59.624 73.845 58.9336C73.845 58.4031 73.9217 57.9301 74.0751 57.5146C74.2306 57.097 74.448 56.7433 74.7271 56.4535C75.0062 56.1637 75.3311 55.9432 75.7019 55.7919C76.0726 55.6406 76.4742 55.565 76.9068 55.565C77.2775 55.565 77.6227 55.6193 77.9423 55.728C78.2619 55.8345 78.5453 55.9858 78.7924 56.1818C79.0417 56.3779 79.2452 56.6112 79.4029 56.8818C79.5605 57.1502 79.6617 57.4464 79.7065 57.7703H78.3002ZM82.9178 62.2894C82.4405 62.2894 82.0154 62.2074 81.6425 62.0433C81.2718 61.8772 80.9788 61.6492 80.7636 61.3594C80.5506 61.0675 80.4408 60.7308 80.4345 60.3495H81.8279C81.8364 60.5093 81.8886 60.6499 81.9845 60.7713C82.0825 60.8906 82.2125 60.9833 82.3744 61.0494C82.5364 61.1154 82.7185 61.1485 82.921 61.1485C83.1319 61.1485 83.3183 61.1112 83.4803 61.0366C83.6422 60.962 83.769 60.8587 83.8606 60.7266C83.9522 60.5945 83.998 60.4421 83.998 60.2696C83.998 60.0948 83.949 59.9404 83.851 59.8061C83.7551 59.6698 83.6166 59.5632 83.4355 59.4865C83.2565 59.4098 83.0435 59.3715 82.7963 59.3715H82.1859V58.3551H82.7963C83.0051 58.3551 83.1894 58.3189 83.3492 58.2465C83.5112 58.174 83.6369 58.0739 83.7264 57.946C83.8158 57.8161 83.8606 57.6648 83.8606 57.4922C83.8606 57.3281 83.8212 57.1843 83.7423 57.0607C83.6656 56.935 83.557 56.837 83.4163 56.7667C83.2778 56.6964 83.1159 56.6612 82.9305 56.6612C82.743 56.6612 82.5715 56.6953 82.416 56.7635C82.2604 56.8296 82.1358 56.9244 82.0421 57.048C81.9483 57.1715 81.8982 57.3164 81.8918 57.4826H80.5655C80.5719 57.1055 80.6795 56.7731 80.8883 56.4855C81.0971 56.1978 81.3783 55.973 81.732 55.8111C82.0879 55.647 82.4895 55.565 82.9369 55.565C83.3886 55.565 83.7839 55.647 84.1227 55.8111C84.4614 55.9752 84.7246 56.1968 84.9121 56.4759C85.1017 56.7529 85.1955 57.0639 85.1933 57.4091C85.1955 57.7756 85.0815 58.0813 84.8514 58.3264C84.6234 58.5714 84.3261 58.7269 83.9597 58.793V58.8441C84.4412 58.9059 84.8077 59.0732 85.0591 59.3459C85.3126 59.6165 85.4384 59.9553 85.4362 60.3622C85.4384 60.7351 85.3308 61.0664 85.1134 61.3562C84.8982 61.646 84.601 61.874 84.2217 62.0402C83.8425 62.2063 83.4078 62.2894 82.9178 62.2894Z" fill="#6746A5"/>
<path d="M93.1587 57.7C93.0884 57.4848 92.9957 57.2919 92.8807 57.1215C92.7678 56.9489 92.6325 56.8019 92.4748 56.6804C92.3193 56.559 92.1424 56.4663 91.9443 56.4024C91.7461 56.3384 91.5288 56.3065 91.2923 56.3065C90.9045 56.3065 90.5519 56.4066 90.2344 56.6069C89.9169 56.8072 89.6644 57.1023 89.4769 57.4922C89.2894 57.8821 89.1957 58.3605 89.1957 58.9272C89.1957 59.494 89.2905 59.9723 89.4801 60.3622C89.6698 60.7522 89.9265 61.0473 90.2504 61.2475C90.5742 61.4478 90.9386 61.548 91.3434 61.548C91.7184 61.548 92.0487 61.4681 92.3342 61.3083C92.6218 61.1463 92.8455 60.9183 93.0053 60.6243C93.1673 60.3281 93.2482 59.9798 93.2482 59.5792L93.4911 59.6303H91.5224V58.9272H94.0153V59.6303C94.0153 60.1694 93.9002 60.6382 93.6701 61.0366C93.4421 61.435 93.1268 61.744 92.7241 61.9634C92.3235 62.1808 91.8633 62.2894 91.3434 62.2894C90.7639 62.2894 90.2546 62.1531 89.8157 61.8803C89.3789 61.6076 89.038 61.2198 88.793 60.717C88.5501 60.2142 88.4286 59.6176 88.4286 58.9272C88.4286 58.4095 88.4979 57.9439 88.6364 57.5306C88.777 57.1151 88.9752 56.7614 89.2308 56.4695C89.4865 56.1776 89.7891 55.9539 90.1385 55.7983C90.4879 55.6428 90.8725 55.565 91.2923 55.565C91.6374 55.565 91.9592 55.6172 92.2575 55.7216C92.5579 55.8239 92.8253 55.9698 93.0597 56.1595C93.2962 56.347 93.4933 56.5718 93.6509 56.8338C93.8086 57.0938 93.9173 57.3825 93.9769 57.7H93.1587ZM100.626 58.9272C100.626 59.6176 100.501 60.2142 100.252 60.717C100.002 61.2198 99.6603 61.6076 99.2257 61.8803C98.791 62.1531 98.2946 62.2894 97.7363 62.2894C97.1781 62.2894 96.6816 62.1531 96.247 61.8803C95.8123 61.6076 95.4703 61.2198 95.221 60.717C94.9718 60.2142 94.8471 59.6176 94.8471 58.9272C94.8471 58.2369 94.9718 57.6403 95.221 57.1375C95.4703 56.6346 95.8123 56.2468 96.247 55.9741C96.6816 55.7014 97.1781 55.565 97.7363 55.565C98.2946 55.565 98.791 55.7014 99.2257 55.9741C99.6603 56.2468 100.002 56.6346 100.252 57.1375C100.501 57.6403 100.626 58.2369 100.626 58.9272ZM99.8585 58.9272C99.8585 58.3605 99.7637 57.8821 99.574 57.4922C99.3865 57.1023 99.1319 56.8072 98.8102 56.6069C98.4906 56.4066 98.1326 56.3065 97.7363 56.3065C97.34 56.3065 96.981 56.4066 96.6593 56.6069C96.3397 56.8072 96.085 57.1023 95.8954 57.4922C95.7079 57.8821 95.6142 58.3605 95.6142 58.9272C95.6142 59.494 95.7079 59.9723 95.8954 60.3622C96.085 60.7522 96.3397 61.0473 96.6593 61.2475C96.981 61.4478 97.34 61.548 97.7363 61.548C98.1326 61.548 98.4906 61.4478 98.8102 61.2475C99.1319 61.0473 99.3865 60.7522 99.574 60.3622C99.7637 59.9723 99.8585 59.494 99.8585 58.9272ZM107.211 58.9272C107.211 59.6176 107.086 60.2142 106.837 60.717C106.588 61.2198 106.246 61.6076 105.811 61.8803C105.376 62.1531 104.88 62.2894 104.322 62.2894C103.764 62.2894 103.267 62.1531 102.832 61.8803C102.398 61.6076 102.056 61.2198 101.807 60.717C101.557 60.2142 101.433 59.6176 101.433 58.9272C101.433 58.2369 101.557 57.6403 101.807 57.1375C102.056 56.6346 102.398 56.2468 102.832 55.9741C103.267 55.7014 103.764 55.565 104.322 55.565C104.88 55.565 105.376 55.7014 105.811 55.9741C106.246 56.2468 106.588 56.6346 106.837 57.1375C107.086 57.6403 107.211 58.2369 107.211 58.9272ZM106.444 58.9272C106.444 58.3605 106.349 57.8821 106.159 57.4922C105.972 57.1023 105.717 56.8072 105.396 56.6069C105.076 56.4066 104.718 56.3065 104.322 56.3065C103.925 56.3065 103.566 56.4066 103.245 56.6069C102.925 56.8072 102.671 57.1023 102.481 57.4922C102.293 57.8821 102.2 58.3605 102.2 58.9272C102.2 59.494 102.293 59.9723 102.481 60.3622C102.671 60.7522 102.925 61.0473 103.245 61.2475C103.566 61.4478 103.925 61.548 104.322 61.548C104.718 61.548 105.076 61.4478 105.396 61.2475C105.717 61.0473 105.972 60.7522 106.159 60.3622C106.349 59.9723 106.444 59.494 106.444 58.9272ZM110.294 62.2H108.274V55.6545H110.383C111.018 55.6545 111.561 55.7855 112.013 56.0476C112.465 56.3076 112.811 56.6815 113.052 57.1694C113.293 57.6552 113.413 58.2369 113.413 58.9144C113.413 59.5963 113.291 60.1833 113.049 60.6754C112.806 61.1655 112.452 61.5426 111.988 61.8068C111.523 62.0689 110.958 62.2 110.294 62.2ZM109.066 61.4968H110.242C110.784 61.4968 111.232 61.3924 111.588 61.1836C111.944 60.9748 112.209 60.6776 112.384 60.2919C112.559 59.9063 112.646 59.4471 112.646 58.9144C112.646 58.386 112.56 57.9311 112.387 57.5497C112.214 57.1662 111.957 56.8722 111.614 56.6676C111.271 56.461 110.843 56.3576 110.332 56.3576H109.066V61.4968ZM116.734 62.2V55.6545H117.526V58.5693H121.016V55.6545H121.809V62.2H121.016V59.2724H117.526V62.2H116.734ZM123.126 62.2V55.6545H127.076V56.3576H123.918V58.5693H126.872V59.2724H123.918V61.4968H127.127V62.2H123.126ZM128.503 62.2H127.672L130.076 55.6545H130.894L133.297 62.2H132.466L130.51 56.69H130.459L128.503 62.2ZM128.81 59.6431H132.159V60.3463H128.81V59.6431ZM134.047 62.2V55.6545H134.839V61.4968H137.882V62.2H134.047ZM137.611 56.3576V55.6545H142.52V56.3576H140.462V62.2H139.669V56.3576H137.611ZM143.474 62.2V55.6545H144.266V58.5693H147.756V55.6545H148.549V62.2H147.756V59.2724H144.266V62.2H143.474ZM152.395 62.2H151.564L153.968 55.6545H154.786L157.189 62.2H156.358L154.402 56.69H154.351L152.395 62.2ZM152.702 59.6431H156.052V60.3463H152.702V59.6431ZM163.129 55.6545V62.2H162.362L158.795 57.0607H158.732V62.2H157.939V55.6545H158.706L162.286 60.8065H162.349V55.6545H163.129ZM166.465 62.2H164.445V55.6545H166.555C167.19 55.6545 167.733 55.7855 168.185 56.0476C168.636 56.3076 168.983 56.6815 169.223 57.1694C169.464 57.6552 169.585 58.2369 169.585 58.9144C169.585 59.5963 169.463 60.1833 169.22 60.6754C168.977 61.1655 168.624 61.5426 168.159 61.8068C167.695 62.0689 167.13 62.2 166.465 62.2ZM165.238 61.4968H166.414C166.955 61.4968 167.404 61.3924 167.76 61.1836C168.115 60.9748 168.381 60.6776 168.555 60.2919C168.73 59.9063 168.817 59.4471 168.817 58.9144C168.817 58.386 168.731 57.9311 168.559 57.5497C168.386 57.1662 168.128 56.8722 167.785 56.6676C167.442 56.461 167.015 56.3576 166.504 56.3576H165.238V61.4968ZM174.094 62.2L172.304 55.6545H173.11L174.478 60.9855H174.542L175.935 55.6545H176.83L178.224 60.9855H178.287L179.655 55.6545H180.461L178.671 62.2H177.853L176.408 56.984H176.357L174.912 62.2H174.094ZM181.178 62.2V55.6545H185.129V56.3576H181.971V58.5693H184.924V59.2724H181.971V61.4968H185.18V62.2H181.178ZM186.287 62.2V55.6545H187.08V61.4968H190.122V62.2H186.287ZM191.08 62.2V55.6545H191.872V61.4968H194.915V62.2H191.08ZM195.872 62.2V55.6545H198.161C198.617 55.6545 198.993 55.7333 199.289 55.891C199.585 56.0465 199.805 56.2564 199.95 56.5206C200.095 56.7827 200.168 57.0735 200.168 57.3931C200.168 57.6744 200.118 57.9066 200.017 58.0899C199.919 58.2731 199.789 58.418 199.628 58.5245C199.468 58.6311 199.294 58.7099 199.107 58.761V58.825C199.307 58.8377 199.508 58.908 199.711 59.0359C199.913 59.1637 200.082 59.347 200.219 59.5856C200.355 59.8242 200.423 60.1161 200.423 60.4613C200.423 60.7894 200.349 61.0845 200.2 61.3466C200.05 61.6087 199.815 61.8164 199.493 61.9698C199.172 62.1232 198.753 62.2 198.237 62.2H195.872ZM196.665 61.4968H198.237C198.755 61.4968 199.123 61.3967 199.34 61.1964C199.559 60.994 199.669 60.749 199.669 60.4613C199.669 60.2397 199.613 60.0352 199.5 59.8477C199.387 59.658 199.226 59.5068 199.017 59.3938C198.808 59.2788 198.561 59.2213 198.276 59.2213H196.665V61.4968ZM196.665 58.5309H198.135C198.374 58.5309 198.589 58.484 198.781 58.3903C198.974 58.2965 199.128 58.1644 199.241 57.994C199.356 57.8235 199.413 57.6232 199.413 57.3931C199.413 57.1055 199.313 56.8615 199.113 56.6612C198.913 56.4588 198.595 56.3576 198.161 56.3576H196.665V58.5309ZM201.456 62.2V55.6545H205.406V56.3576H202.248V58.5693H205.201V59.2724H202.248V61.4968H205.457V62.2H201.456ZM207.357 55.6545V62.2H206.565V55.6545H207.357ZM213.867 55.6545V62.2H213.1L209.533 57.0607H209.469V62.2H208.676V55.6545H209.444L213.023 60.8065H213.087V55.6545H213.867ZM219.657 57.7C219.587 57.4848 219.494 57.2919 219.379 57.1215C219.266 56.9489 219.131 56.8019 218.973 56.6804C218.818 56.559 218.641 56.4663 218.443 56.4024C218.245 56.3384 218.027 56.3065 217.791 56.3065C217.403 56.3065 217.05 56.4066 216.733 56.6069C216.415 56.8072 216.163 57.1023 215.975 57.4922C215.788 57.8821 215.694 58.3605 215.694 58.9272C215.694 59.494 215.789 59.9723 215.979 60.3622C216.168 60.7522 216.425 61.0473 216.749 61.2475C217.073 61.4478 217.437 61.548 217.842 61.548C218.217 61.548 218.547 61.4681 218.833 61.3083C219.12 61.1463 219.344 60.9183 219.504 60.6243C219.666 60.3281 219.747 59.9798 219.747 59.5792L219.99 59.6303H218.021V58.9272H220.514V59.6303C220.514 60.1694 220.399 60.6382 220.169 61.0366C219.941 61.435 219.625 61.744 219.223 61.9634C218.822 62.1808 218.362 62.2894 217.842 62.2894C217.262 62.2894 216.753 62.1531 216.314 61.8803C215.877 61.6076 215.537 61.2198 215.291 60.717C215.049 60.2142 214.927 59.6176 214.927 58.9272C214.927 58.4095 214.996 57.9439 215.135 57.5306C215.276 57.1151 215.474 56.7614 215.729 56.4695C215.985 56.1776 216.288 55.9539 216.637 55.7983C216.986 55.6428 217.371 55.565 217.791 55.565C218.136 55.565 218.458 55.6172 218.756 55.7216C219.056 55.8239 219.324 55.9698 219.558 56.1595C219.795 56.347 219.992 56.5718 220.149 56.8338C220.307 57.0938 220.416 57.3825 220.475 57.7H219.657Z" fill="black"/>
<path d="M62.1634 72.5V71.9247L64.3239 69.5597C64.5775 69.2827 64.7863 69.0419 64.9503 68.8374C65.1144 68.6307 65.2358 68.4368 65.3147 68.2557C65.3956 68.0724 65.4361 67.8807 65.4361 67.6804C65.4361 67.4503 65.3807 67.2511 65.2699 67.0827C65.1613 66.9144 65.0121 66.7844 64.8225 66.6928C64.6329 66.6012 64.4198 66.5554 64.1833 66.5554C63.9319 66.5554 63.7124 66.6076 63.5249 66.712C63.3395 66.8143 63.1957 66.9581 63.0934 67.1435C62.9933 67.3288 62.9432 67.5462 62.9432 67.7955H62.189C62.189 67.4119 62.2774 67.0753 62.4542 66.7855C62.6311 66.4957 62.8718 66.2699 63.1765 66.108C63.4834 65.946 63.8275 65.8651 64.2089 65.8651C64.5924 65.8651 64.9322 65.946 65.2284 66.108C65.5245 66.2699 65.7568 66.4883 65.9251 66.7631C66.0934 67.038 66.1776 67.3438 66.1776 67.6804C66.1776 67.9212 66.1339 68.1566 66.0466 68.3867C65.9613 68.6147 65.8122 68.8693 65.5991 69.1506C65.3882 69.4297 65.0952 69.7706 64.7202 70.1733L63.25 71.7457V71.7969H66.2927V72.5H62.1634ZM69.4776 72.5895C68.996 72.5895 68.5859 72.4585 68.2471 72.1964C67.9083 71.9322 67.6494 71.5497 67.4705 71.049C67.2915 70.5462 67.202 69.9389 67.202 69.2273C67.202 68.5199 67.2915 67.9158 67.4705 67.4151C67.6516 66.9123 67.9115 66.5288 68.2503 66.2646C68.5912 65.9982 69.0003 65.8651 69.4776 65.8651C69.9548 65.8651 70.3629 65.9982 70.7016 66.2646C71.0425 66.5288 71.3025 66.9123 71.4815 67.4151C71.6626 67.9158 71.7531 68.5199 71.7531 69.2273C71.7531 69.9389 71.6636 70.5462 71.4847 71.049C71.3057 71.5497 71.0468 71.9322 70.708 72.1964C70.3692 72.4585 69.9591 72.5895 69.4776 72.5895ZM69.4776 71.8864C69.9548 71.8864 70.3256 71.6562 70.5898 71.196C70.854 70.7358 70.9861 70.0795 70.9861 69.2273C70.9861 68.6605 70.9254 68.1779 70.8039 67.7795C70.6846 67.381 70.512 67.0774 70.2862 66.8686C70.0624 66.6598 69.7929 66.5554 69.4776 66.5554C69.0045 66.5554 68.6349 66.7887 68.3685 67.2553C68.1022 67.7198 67.969 68.3771 67.969 69.2273C67.969 69.794 68.0287 70.2756 68.148 70.6719C68.2673 71.0682 68.4389 71.3697 68.6626 71.5763C68.8884 71.783 69.1601 71.8864 69.4776 71.8864ZM72.6976 72.5V71.9247L74.8581 69.5597C75.1117 69.2827 75.3205 69.0419 75.4845 68.8374C75.6486 68.6307 75.7701 68.4368 75.8489 68.2557C75.9299 68.0724 75.9703 67.8807 75.9703 67.6804C75.9703 67.4503 75.9149 67.2511 75.8041 67.0827C75.6955 66.9144 75.5463 66.7844 75.3567 66.6928C75.1671 66.6012 74.954 66.5554 74.7175 66.5554C74.4661 66.5554 74.2466 66.6076 74.0591 66.712C73.8738 66.8143 73.7299 66.9581 73.6277 67.1435C73.5275 67.3288 73.4774 67.5462 73.4774 67.7955H72.7232C72.7232 67.4119 72.8116 67.0753 72.9885 66.7855C73.1653 66.4957 73.4061 66.2699 73.7108 66.108C74.0176 65.946 74.3617 65.8651 74.7431 65.8651C75.1266 65.8651 75.4664 65.946 75.7626 66.108C76.0588 66.2699 76.291 66.4883 76.4593 66.7631C76.6277 67.038 76.7118 67.3438 76.7118 67.6804C76.7118 67.9212 76.6681 68.1566 76.5808 68.3867C76.4956 68.6147 76.3464 68.8693 76.1333 69.1506C75.9224 69.4297 75.6294 69.7706 75.2544 70.1733L73.7843 71.7457V71.7969H76.8269V72.5H72.6976ZM77.5828 71.1577V70.5057L80.4592 65.9545H80.9322V66.9645H80.6126L78.4393 70.4034V70.4545H82.3129V71.1577H77.5828ZM80.6638 72.5V70.9595V70.6559V65.9545H81.418V72.5H80.6638ZM85.1439 67.0955V65.9545H90.5196V67.0955H88.5157V72.5H87.1478V67.0955H85.1439ZM96.851 69.2273C96.851 69.9411 96.7157 70.5483 96.4451 71.049C96.1767 71.5497 95.8102 71.9322 95.3457 72.1964C94.8833 72.4585 94.3634 72.5895 93.786 72.5895C93.2044 72.5895 92.6823 72.4574 92.22 72.1932C91.7576 71.929 91.3922 71.5465 91.1237 71.0458C90.8553 70.5451 90.721 69.9389 90.721 69.2273C90.721 68.5135 90.8553 67.9062 91.1237 67.4055C91.3922 66.9048 91.7576 66.5234 92.22 66.2614C92.6823 65.9972 93.2044 65.8651 93.786 65.8651C94.3634 65.8651 94.8833 65.9972 95.3457 66.2614C95.8102 66.5234 96.1767 66.9048 96.4451 67.4055C96.7157 67.9062 96.851 68.5135 96.851 69.2273ZM95.448 69.2273C95.448 68.7649 95.3787 68.375 95.2402 68.0575C95.1039 67.7401 94.911 67.4993 94.6617 67.3352C94.4124 67.1712 94.1205 67.0891 93.786 67.0891C93.4515 67.0891 93.1596 67.1712 92.9103 67.3352C92.661 67.4993 92.4671 67.7401 92.3286 68.0575C92.1923 68.375 92.1241 68.7649 92.1241 69.2273C92.1241 69.6896 92.1923 70.0795 92.3286 70.397C92.4671 70.7145 92.661 70.9553 92.9103 71.1193C93.1596 71.2834 93.4515 71.3654 93.786 71.3654C94.1205 71.3654 94.4124 71.2834 94.6617 71.1193C94.911 70.9553 95.1039 70.7145 95.2402 70.397C95.3787 70.0795 95.448 69.6896 95.448 69.2273ZM97.6061 72.5V65.9545H100.189C100.685 65.9545 101.108 66.0494 101.457 66.239C101.807 66.4265 102.073 66.6875 102.256 67.022C102.442 67.3544 102.534 67.7379 102.534 68.1726C102.534 68.6072 102.441 68.9908 102.253 69.3232C102.066 69.6555 101.794 69.9144 101.438 70.0998C101.084 70.2852 100.656 70.3778 100.153 70.3778H98.5074V69.2688H99.9296C100.196 69.2688 100.415 69.223 100.588 69.1314C100.763 69.0376 100.893 68.9087 100.978 68.7447C101.065 68.5785 101.109 68.3878 101.109 68.1726C101.109 67.9553 101.065 67.7656 100.978 67.6037C100.893 67.4396 100.763 67.3129 100.588 67.2234C100.413 67.1317 100.192 67.0859 99.9233 67.0859H98.99V72.5H97.6061ZM104.938 72.5V71.5028L107.268 69.3455C107.466 69.1538 107.632 68.9812 107.766 68.8278C107.903 68.6744 108.006 68.5241 108.076 68.3771C108.147 68.228 108.182 68.0671 108.182 67.8945C108.182 67.7028 108.138 67.5376 108.051 67.3991C107.964 67.2585 107.844 67.1509 107.693 67.0763C107.542 66.9996 107.37 66.9613 107.178 66.9613C106.978 66.9613 106.803 67.0018 106.654 67.0827C106.505 67.1637 106.39 67.2798 106.309 67.4311C106.228 67.5824 106.188 67.7624 106.188 67.9712H104.874C104.874 67.543 104.971 67.1712 105.165 66.8558C105.359 66.5405 105.63 66.2965 105.98 66.1239C106.329 65.9513 106.732 65.8651 107.188 65.8651C107.657 65.8651 108.065 65.9482 108.412 66.1143C108.761 66.2784 109.033 66.5064 109.227 66.7983C109.421 67.0902 109.518 67.4247 109.518 67.8018C109.518 68.049 109.469 68.293 109.371 68.5337C109.275 68.7745 109.103 69.0419 108.856 69.3359C108.609 69.6278 108.261 69.9783 107.811 70.3874L106.856 71.3239V71.3686H109.604V72.5H104.938ZM112.463 69.2273C112.463 68.4347 112.569 67.7049 112.78 67.038C112.993 66.3711 113.318 65.7532 113.754 65.1843H115.055C114.889 65.3952 114.734 65.6531 114.592 65.9577C114.449 66.2603 114.324 66.5927 114.218 66.9549C114.111 67.3171 114.028 67.6921 113.968 68.0799C113.909 68.4656 113.879 68.848 113.879 69.2273C113.879 69.7322 113.93 70.2425 114.032 70.7582C114.137 71.2717 114.277 71.7489 114.454 72.19C114.633 72.631 114.833 72.9922 115.055 73.2734H113.754C113.318 72.7045 112.993 72.0866 112.78 71.4197C112.569 70.7528 112.463 70.022 112.463 69.2273ZM121.076 65.9545V72.5H119.88L117.033 68.3803H116.985V72.5H115.601V65.9545H116.815L119.641 70.071H119.698V65.9545H121.076ZM123.333 65.9545V72.5H121.949V65.9545H123.333ZM128.542 68.0703C128.497 67.9148 128.434 67.7773 128.353 67.658C128.272 67.5366 128.173 67.4343 128.056 67.3512C127.941 67.266 127.809 67.201 127.66 67.1562C127.513 67.1115 127.35 67.0891 127.171 67.0891C126.836 67.0891 126.542 67.1722 126.288 67.3384C126.037 67.5046 125.841 67.7464 125.7 68.0639C125.56 68.3793 125.489 68.7649 125.489 69.2209C125.489 69.6768 125.559 70.0646 125.697 70.3842C125.836 70.7038 126.032 70.9478 126.285 71.1161C126.539 71.2823 126.838 71.3654 127.183 71.3654C127.497 71.3654 127.764 71.31 127.986 71.1992C128.209 71.0863 128.38 70.9276 128.497 70.723C128.616 70.5185 128.676 70.2766 128.676 69.9975L128.957 70.0391H127.27V68.9972H130.009V69.8217C130.009 70.397 129.887 70.8913 129.644 71.3047C129.401 71.7159 129.067 72.0334 128.641 72.2571C128.215 72.4787 127.727 72.5895 127.177 72.5895C126.563 72.5895 126.024 72.4542 125.56 72.1836C125.095 71.9109 124.733 71.5241 124.473 71.0234C124.215 70.5206 124.086 69.924 124.086 69.2337C124.086 68.7031 124.163 68.2301 124.317 67.8146C124.472 67.397 124.689 67.0433 124.969 66.7536C125.248 66.4638 125.573 66.2433 125.943 66.092C126.314 65.9407 126.716 65.8651 127.148 65.8651C127.519 65.8651 127.864 65.9194 128.184 66.0281C128.503 66.1346 128.787 66.2859 129.034 66.4819C129.283 66.6779 129.487 66.9112 129.644 67.1818C129.802 67.4503 129.903 67.7464 129.948 68.0703H128.542ZM130.778 72.5V65.9545H135.189V67.0955H132.162V68.6552H134.962V69.7962H132.162V71.359H135.201V72.5H130.778ZM136.019 72.5V65.9545H138.601C139.096 65.9545 139.517 66.043 139.867 66.2198C140.218 66.3945 140.486 66.6428 140.669 66.9645C140.854 67.2841 140.947 67.6602 140.947 68.0927C140.947 68.5273 140.853 68.9013 140.666 69.2145C140.478 69.5256 140.207 69.7642 139.851 69.9304C139.497 70.0966 139.069 70.1797 138.566 70.1797H136.837V69.0675H138.342C138.607 69.0675 138.826 69.0312 139.001 68.9588C139.176 68.8864 139.305 68.7777 139.391 68.6328C139.478 68.4879 139.522 68.3079 139.522 68.0927C139.522 67.8754 139.478 67.6921 139.391 67.543C139.305 67.3938 139.174 67.2809 138.998 67.2042C138.823 67.1254 138.602 67.0859 138.336 67.0859H137.403V72.5H136.019ZM139.554 69.5213L141.18 72.5H139.653L138.061 69.5213H139.554ZM143.039 65.9545V72.5H141.655V65.9545H143.039ZM145.036 72.5H143.553L145.812 65.9545H147.596L149.852 72.5H148.369L146.73 67.4503H146.679L145.036 72.5ZM144.943 69.9272H148.446V71.0075H144.943V69.9272ZM152.639 69.2273C152.639 70.022 152.533 70.7528 152.32 71.4197C152.109 72.0866 151.785 72.7045 151.348 73.2734H150.047C150.213 73.0625 150.368 72.8047 150.511 72.5C150.653 72.1953 150.778 71.8629 150.885 71.5028C150.991 71.1406 151.074 70.7656 151.134 70.3778C151.194 69.9901 151.223 69.6065 151.223 69.2273C151.223 68.7223 151.171 68.2131 151.067 67.6996C150.965 67.1839 150.824 66.7067 150.645 66.2678C150.468 65.8267 150.269 65.4656 150.047 65.1843H151.348C151.785 65.7532 152.109 66.3711 152.32 67.038C152.533 67.7049 152.639 68.4347 152.639 69.2273Z" fill="black"/>
<path d="M97.6804 48.4194V3.19751H112.298V8.67895H105.903V20.5554H111.384V26.0368H105.903V41.5676H112.298V48.4194H97.6804Z" fill="#3674EC"/>
<path d="M78.9525 48.4194V3.19751H86.2611V20.5554H89.0018V3.19751H95.8536V48.4194H89.0018V26.0368H86.2611V48.4194H78.9525Z" fill="#B70D7F"/>
<path d="M59.7673 9.13573V3.19751H77.1252V9.13573H72.1006V48.4194H65.2488V9.13573H59.7673Z" fill="#E40327"/>
<rect width="46.4443" height="13.7036" transform="translate(114.125 3.19751)" fill="#6746A5"/>
<path d="M117.968 15.0493V5.4568H119.064V15.0493H117.968ZM124.245 12.9938H123.025L121.861 6.38864V15.0493H120.792V5.4568H122.464L123.628 12.103L124.807 5.4568H126.479V15.0493H125.41V6.38864L124.245 12.9938ZM128.206 15.0493V5.4568H129.905C130.645 5.4568 131.184 5.70346 131.522 6.19679C131.869 6.69012 132.043 7.46666 132.043 8.5264V8.59492C132.043 9.65467 131.869 10.4312 131.522 10.9245C131.184 11.4087 130.645 11.6508 129.905 11.6508H129.302V15.0493H128.206ZM129.302 10.7875H129.905C130.608 10.7875 130.96 10.116 130.96 8.77307V8.34826C130.96 7.00531 130.608 6.33383 129.905 6.33383H129.302V10.7875ZM136.096 15.0493L135.672 12.5553H133.739L133.328 15.0493H132.232L133.986 5.4568H135.439L137.193 15.0493H136.096ZM134.712 6.84086L133.89 11.6782H135.521L134.712 6.84086ZM140.201 15.2549C139.461 15.2549 138.922 15.0082 138.584 14.5149C138.246 14.0124 138.077 13.213 138.077 12.1167V8.38937C138.077 7.29308 138.246 6.49827 138.584 6.00494C138.922 5.50248 139.461 5.25125 140.201 5.25125C140.795 5.25125 141.243 5.42939 141.544 5.78569C141.855 6.13284 142.042 6.68556 142.106 7.44382L141.106 7.69049C141.06 7.13321 140.964 6.7358 140.818 6.49827C140.672 6.26074 140.457 6.14198 140.174 6.14198C139.818 6.14198 139.557 6.30185 139.393 6.62161C139.238 6.94136 139.16 7.45296 139.16 8.15641V12.4045C139.16 13.0897 139.238 13.5876 139.393 13.8982C139.557 14.2088 139.818 14.3641 140.174 14.3641C140.494 14.3641 140.731 14.2362 140.887 13.9804C141.051 13.7155 141.156 13.2633 141.202 12.6238L142.161 12.7471C142.079 13.615 141.878 14.2499 141.558 14.6519C141.247 15.0539 140.795 15.2549 140.201 15.2549ZM142.71 6.33383V5.4568H146.451V6.33383H145.121V15.0493H144.039V6.33383H142.71Z" fill="white"/>
<rect width="62.123" height="13.7036" transform="translate(114.125 18.7283)" fill="#6746A5"/>
<path d="M118.172 30.5801V20.9876H119.871C120.602 20.9876 121.141 21.2251 121.488 21.7001C121.835 22.1752 122.009 22.9243 122.009 23.9475V24.0161C122.009 25.4047 121.671 26.2863 120.995 26.6608L122.132 30.5801H121.008L119.939 26.9075H119.268V30.5801H118.172ZM119.268 26.0442H119.871C120.574 26.0442 120.926 25.4138 120.926 24.1531V23.742C120.926 22.4904 120.574 21.8646 119.871 21.8646H119.268V26.0442ZM126.678 30.5801L126.253 28.086H124.321L123.91 30.5801H122.814L124.568 20.9876H126.02L127.774 30.5801H126.678ZM125.294 22.3716L124.472 27.209H126.103L125.294 22.3716ZM132.153 30.5801L129.92 23.5775V30.5801H128.851V20.9876H129.988L132.222 28.0038V20.9876H133.291V30.5801H132.153ZM136.116 27.1268V30.5801H135.02V20.9876H136.116V25.0438L138.131 20.9876H139.227L137.131 25.1123L139.309 30.5801H138.213L136.555 26.2634L136.116 27.1268ZM140.239 30.5801V20.9876H141.336V30.5801H140.239ZM146.366 30.5801L144.132 23.5775V30.5801H143.063V20.9876H144.2L146.434 28.0038V20.9876H147.503V30.5801H146.366ZM150.849 30.7856C150.228 30.7856 149.771 30.539 149.479 30.0456C149.187 29.5523 149.04 28.7758 149.04 27.716V23.9201C149.04 22.8238 149.209 22.029 149.547 21.5357C149.885 21.0332 150.424 20.782 151.164 20.782C151.758 20.782 152.206 20.9602 152.507 21.3164C152.818 21.6636 153.005 22.2163 153.069 22.9746L152.069 23.2212C152.023 22.6731 151.927 22.2803 151.781 22.0427C151.635 21.7961 151.42 21.6727 151.137 21.6727C150.781 21.6727 150.52 21.8326 150.356 22.1524C150.201 22.4721 150.123 22.9837 150.123 23.6872V27.9216C150.123 28.5976 150.201 29.0955 150.356 29.4153C150.511 29.735 150.758 29.8949 151.096 29.8949C151.809 29.8949 152.165 29.2782 152.165 28.0449V26.3731H151.041V25.496H153.193V30.5664H152.521L152.329 29.6756C152.064 30.4156 151.571 30.7856 150.849 30.7856ZM156.69 30.7856C156.023 30.7856 155.516 30.5572 155.169 30.1005C154.822 29.6345 154.611 28.9037 154.538 27.9079L155.566 27.7297C155.603 28.4697 155.712 29.0133 155.895 29.3605C156.078 29.7076 156.343 29.8812 156.69 29.8812C157.412 29.8812 157.772 29.397 157.772 28.4286C157.772 28.054 157.713 27.7297 157.594 27.4557C157.485 27.1816 157.297 26.9441 157.032 26.7431L155.936 25.9346C155.525 25.6331 155.214 25.2722 155.004 24.852C154.803 24.4317 154.703 23.9293 154.703 23.3446C154.703 22.4675 154.867 21.8235 155.196 21.4124C155.534 20.9921 156.055 20.782 156.758 20.782C157.407 20.782 157.891 20.9739 158.211 21.3576C158.54 21.7413 158.741 22.3625 158.814 23.2212L157.772 23.4542C157.736 22.2848 157.393 21.7001 156.745 21.7001C156.105 21.7001 155.785 22.198 155.785 23.1938C155.785 23.6598 155.836 24.0298 155.936 24.3038C156.037 24.5688 156.219 24.8017 156.484 25.0027L157.567 25.8112C158.024 26.1401 158.348 26.5055 158.54 26.9075C158.741 27.3095 158.841 27.8074 158.841 28.4012C158.841 29.9908 158.124 30.7856 156.69 30.7856Z" fill="white"/>
<rect x="114.125" y="34.7158" width="5.05152" height="13.7036" fill="#E5243B"/>
<rect x="119.177" y="34.7158" width="5.05152" height="13.7036" fill="#DDA63A"/>
<rect x="124.228" y="34.7158" width="5.05152" height="13.7036" fill="#4C9F38"/>
<rect x="129.279" y="34.7158" width="5.05152" height="13.7036" fill="#C5192D"/>
<rect x="134.331" y="34.7158" width="5.05152" height="13.7036" fill="#FF3A21"/>
<rect x="139.382" y="34.7158" width="5.05152" height="13.7036" fill="#26BDE2"/>
<rect x="144.434" y="34.7158" width="5.05152" height="13.7036" fill="#FCC30B"/>
<rect x="149.485" y="34.7158" width="5.05152" height="13.7036" fill="#A21942"/>
<rect x="154.537" y="34.7158" width="5.05152" height="13.7036" fill="#FD6925"/>
<rect x="159.589" y="34.7158" width="5.05152" height="13.7036" fill="#DD1367"/>
<rect x="164.64" y="34.7158" width="5.05152" height="13.7036" fill="#FD9D24"/>
<rect x="169.692" y="34.7158" width="5.05152" height="13.7036" fill="#BF8B2E"/>
<rect x="174.743" y="34.7158" width="5.05152" height="13.7036" fill="#DD1367"/>
<rect x="179.795" y="34.7158" width="5.05152" height="13.7036" fill="#0A97D9"/>
<rect x="184.846" y="34.7158" width="5.05152" height="13.7036" fill="#56C02B"/>
<rect x="189.898" y="34.7158" width="5.05152" height="13.7036" fill="#00689D"/>
<rect x="194.949" y="34.7158" width="5.05152" height="13.7036" fill="#19486A"/>
</g>
<defs>
<filter id="filter0_b_678_917" x="17.7427" y="-36.5429" width="239.314" height="149.586" filterUnits="userSpaceOnUse" color-interpolation-filters="sRGB">
<feFlood flood-opacity="0" result="BackgroundImageFix"/>
<feGaussianBlur in="BackgroundImageFix" stdDeviation="18.2715"/>
<feComposite in2="SourceAlpha" operator="in" result="effect1_backgroundBlur_678_917"/>
<feBlend mode="normal" in="SourceGraphic" in2="effect1_backgroundBlur_678_917" result="shape"/>
</filter>
</defs>
</svg>
