<svg width="64" height="64" viewBox="0 0 64 64" fill="none" xmlns="http://www.w3.org/2000/svg">
<rect width="64" height="64" rx="10" fill="#FFF1FF"/>
<path d="M30.1256 34.8157L30.1164 34.7943C29.9791 34.7568 29.8429 34.7151 29.7081 34.6694L29.6979 34.6653C28.2945 34.1852 27.0764 33.2782 26.2141 32.0714C25.3518 30.8646 24.8884 29.4184 24.8888 27.9352C24.8883 26.1148 25.586 24.3636 26.838 23.0423C28.0901 21.7209 29.8012 20.93 31.6189 20.8325C33.4366 20.735 35.2225 21.3382 36.6088 22.518C37.995 23.6978 38.876 25.3643 39.0703 27.1743C39.115 27.5928 38.7697 27.9352 38.3491 27.9352C37.9285 27.9352 37.5923 27.5918 37.5364 27.1753C37.4013 26.1922 37.0068 25.2628 36.3935 24.4827C35.7803 23.7025 34.9703 23.0997 34.047 22.7362C33.1236 22.3728 32.1201 22.2617 31.1396 22.4145C30.1591 22.5673 29.237 22.9785 28.468 23.6057C27.699 24.2329 27.1109 25.0536 26.7641 25.9833C26.4173 26.9131 26.3244 27.9184 26.4948 28.896C26.6653 29.8736 27.0929 30.7882 27.7339 31.5457C28.3749 32.3033 29.206 32.8765 30.1418 33.2065C30.3304 32.7804 30.6596 32.432 31.0745 32.2198C31.4893 32.0075 31.9645 31.9443 32.4204 32.0408C32.8763 32.1372 33.2851 32.3874 33.5785 32.7495C33.8718 33.1115 34.0318 33.5634 34.0316 34.0294C34.0316 34.6369 33.7655 35.1814 33.3439 35.5532C32.9728 35.8809 32.4949 36.0619 31.9999 36.0621C31.5991 36.0636 31.2069 35.9458 30.8732 35.7239C30.5395 35.5019 30.2793 35.1858 30.1256 34.8157ZM27.9333 35.5542C27.1846 35.1541 26.499 34.6458 25.8985 34.0456C25.342 34.1104 24.8286 34.3773 24.4559 34.7957C24.0832 35.2141 23.8772 35.7548 23.877 36.3151V36.9023C23.877 37.8084 24.2 38.6861 24.7892 39.3759C26.3801 41.239 28.8039 42.1594 31.9999 42.1594C35.1958 42.1594 37.6207 41.239 39.2146 39.3759C39.8052 38.6859 40.1298 37.8075 40.1299 36.8992V36.3151C40.1299 35.7092 39.8894 35.1282 39.4612 34.6996C39.0329 34.271 38.4521 34.0299 37.8462 34.0294H35.5554C35.5554 34.5759 35.4335 35.092 35.2131 35.5532H37.8462C38.0479 35.5537 38.2412 35.6342 38.3837 35.7771C38.5261 35.9199 38.6061 36.1134 38.6061 36.3151V36.8992C38.6063 37.4442 38.4117 37.9713 38.0575 38.3854C36.7806 39.8767 34.7823 40.6346 31.9999 40.6346C29.2174 40.6346 27.2212 39.8767 25.9483 38.3865C25.5944 37.9726 25.3998 37.4459 25.3997 36.9012V36.3151C25.3997 36.113 25.48 35.9192 25.6229 35.7763C25.7658 35.6335 25.9596 35.5532 26.1617 35.5532L27.9333 35.5542ZM27.9364 27.9352C27.9366 27.2343 28.118 26.5453 28.4632 25.9353C28.8083 25.3252 29.3054 24.8149 29.9061 24.4537C30.5068 24.0926 31.1907 23.8929 31.8913 23.8742C32.592 23.8555 33.2855 24.0183 33.9047 24.3468C34.5238 24.6754 35.0474 25.1585 35.4246 25.7492C35.8019 26.34 36.0199 27.0182 36.0575 27.7181C36.0951 28.418 35.9511 29.1157 35.6393 29.7435C35.3276 30.3713 34.8588 30.9077 34.2785 31.3007C33.6391 30.7671 32.8327 30.4748 31.9999 30.4748C32.6734 30.4748 33.3194 30.2073 33.7957 29.731C34.272 29.2547 34.5396 28.6087 34.5396 27.9352C34.5396 27.2616 34.272 26.6156 33.7957 26.1393C33.3194 25.663 32.6734 25.3955 31.9999 25.3955C31.3263 25.3955 30.6803 25.663 30.204 26.1393C29.7278 26.6156 29.4602 27.2616 29.4602 27.9352C29.4602 28.6087 29.7278 29.2547 30.204 29.731C30.6803 30.2073 31.3263 30.4748 31.9999 30.4748C31.1323 30.4748 30.3379 30.7857 29.7223 31.3007C29.1716 30.9291 28.7207 30.4277 28.4092 29.8409C28.0978 29.254 27.9354 28.5995 27.9364 27.9352Z" fill="#941196"/>
</svg>
