<svg width="64" height="64" viewBox="0 0 64 64" fill="none" xmlns="http://www.w3.org/2000/svg">
<rect width="64" height="64" rx="10" fill="#FFF1FF"/>
<path d="M32.5969 24.7892L32.5968 24.7892L32.603 24.792C34.1713 25.4968 35.4947 25.7276 36.6098 25.6263C37.1431 25.5778 37.6173 25.4544 38.0368 25.2803C37.1338 26.9517 35.7023 28.7647 33.4862 29.8423L33.4839 29.8434C32.9642 30.0983 32.5429 30.2927 32.2529 30.4229C32.2055 30.4441 32.1616 30.4637 32.1214 30.4815L25.4621 27.2353L32.053 24.5344C32.1852 24.5982 32.3615 24.681 32.5969 24.7892ZM30.3451 33.5239V40.88L23.9553 37.4185V30.2674L30.3451 33.5239ZM40.0569 37.4182L33.6569 40.8808V33.5242L40.0569 30.2667V37.4182Z" stroke="#941196" stroke-width="1.52381"/>
</svg>
