<svg width="64" height="64" viewBox="0 0 64 64" fill="none" xmlns="http://www.w3.org/2000/svg">
<rect width="64" height="64" rx="10" fill="#FFF1FF"/>
<path d="M28.9529 40.1256H25.9053C24.8276 40.1256 23.794 39.6974 23.032 38.9354C22.2699 38.1733 21.8418 37.1398 21.8418 36.0621V26.9192C21.8418 25.8415 22.2699 24.8079 23.032 24.0459C23.794 23.2838 24.8276 22.8557 25.9053 22.8557H37.0799C38.1576 22.8557 39.1912 23.2838 39.9532 24.0459C40.7153 24.8079 41.1434 25.8415 41.1434 26.9192V29.9668M27.937 21.8398V23.8716M35.0481 21.8398V23.8716M21.8418 27.9351H41.1434" stroke="#941196" stroke-width="2.03175" stroke-linecap="round" stroke-linejoin="round"/>
<path d="M36.5736 40.8373C37.7052 40.8373 38.7904 40.3878 39.5906 39.5876C40.3907 38.7875 40.8402 37.7022 40.8402 36.5706C40.8402 35.439 40.3907 34.3538 39.5906 33.5536C38.7904 32.7535 37.7052 32.304 36.5736 32.304C35.442 32.304 34.3567 32.7535 33.5566 33.5536C32.7564 34.3538 32.3069 35.439 32.3069 36.5706C32.3069 37.7022 32.7564 38.7875 33.5566 39.5876C34.3567 40.3878 35.442 40.8373 36.5736 40.8373ZM36.5736 31.2373C37.274 31.2373 37.9675 31.3753 38.6145 31.6433C39.2616 31.9113 39.8496 32.3042 40.3448 32.7994C40.84 33.2946 41.2329 33.8826 41.5009 34.5297C41.769 35.1767 41.9069 35.8703 41.9069 36.5706C41.9069 37.9851 41.345 39.3417 40.3448 40.3419C39.3446 41.3421 37.9881 41.904 36.5736 41.904C33.6242 41.904 31.2402 39.504 31.2402 36.5706C31.2402 35.1562 31.8021 33.7996 32.8023 32.7994C33.8025 31.7992 35.1591 31.2373 36.5736 31.2373ZM36.8402 33.904V36.704L39.2402 38.128L38.8402 38.784L36.0402 37.104V33.904H36.8402Z" fill="#941196" stroke="#941196" stroke-width="0.457143"/>
</svg>
