<svg width="64" height="64" viewBox="0 0 64 64" fill="none" xmlns="http://www.w3.org/2000/svg">
<g clip-path="url(#clip0_3268_21887)">
<rect width="64" height="64" rx="10" fill="#FFF1FF"/>
<path d="M44.7171 42.1009L39.2885 44.1695C39.3184 44.0112 39.3338 43.8505 39.3343 43.6895C39.3343 43.0484 39.0796 42.4336 38.6263 41.9803C38.173 41.527 37.5582 41.2723 36.9171 41.2723H33.8371C32.9431 41.2724 32.064 41.0442 31.2828 40.6095L28.9971 39.3409C28.241 38.918 27.3892 38.6957 26.5228 38.6952H22.4771C22.3358 38.2366 22.0517 37.8351 21.6663 37.5494C21.2808 37.2636 20.8141 37.1085 20.3343 37.1066H16.6085C16.457 37.1066 16.3116 37.1668 16.2045 37.274C16.0973 37.3811 16.0371 37.5265 16.0371 37.678V49.6095C16.0371 49.761 16.0973 49.9064 16.2045 50.0135C16.3116 50.1207 16.457 50.1809 16.6085 50.1809H20.3285C20.7981 50.1755 21.2546 50.0256 21.636 49.7516C22.0173 49.4776 22.305 49.0928 22.46 48.6495C24.3662 49.2243 26.1626 50.1147 27.7743 51.2837C28.7707 52.0304 29.9609 52.4747 31.2028 52.5637C31.38 52.5637 31.5685 52.5637 31.7743 52.5637C33.2322 52.5847 34.6677 52.2031 35.9228 51.4609C36.7977 50.9574 37.7 50.5034 38.6257 50.1009L46.5914 46.6037C47.1573 46.3359 47.5989 45.8612 47.8253 45.2775C48.0517 44.6938 48.0457 44.0455 47.8083 43.4661C47.571 42.8867 47.1206 42.4204 46.5497 42.1633C45.9789 41.9061 45.3312 41.8776 44.74 42.0838L44.7171 42.1009ZM21.4485 47.918C21.4486 48.2163 21.3322 48.5027 21.124 48.7162C20.9158 48.9297 20.6324 49.0534 20.3343 49.0609H17.18V38.2495H20.3285C20.6267 38.2569 20.9101 38.3806 21.1183 38.5941C21.3264 38.8077 21.4429 39.0941 21.4428 39.3923L21.4485 47.918ZM46.1114 45.5752L38.1457 49.0723C37.1663 49.4947 36.2124 49.9736 35.2885 50.5066C34.0672 51.218 32.6575 51.539 31.2485 51.4266C30.2349 51.3458 29.2654 50.977 28.4543 50.3638C26.6829 49.0744 24.6983 48.1073 22.5914 47.5066V39.838H26.5171C27.1887 39.8399 27.849 40.0109 28.4371 40.3352L30.7228 41.6095C31.6742 42.1367 32.7437 42.4139 33.8314 42.4152H36.9114C37.0787 42.4152 37.2444 42.4481 37.399 42.5122C37.5536 42.5762 37.6941 42.6701 37.8125 42.7884C37.9308 42.9067 38.0246 43.0472 38.0887 43.2018C38.1527 43.3564 38.1857 43.5221 38.1857 43.6895C38.1857 43.8568 38.1527 44.0225 38.0887 44.1771C38.0246 44.3317 37.9308 44.4722 37.8125 44.5905C37.6941 44.7089 37.5536 44.8027 37.399 44.8667C37.2444 44.9308 37.0787 44.9638 36.9114 44.9638H29.9228C29.7713 44.9638 29.6259 45.024 29.5188 45.1311C29.4116 45.2383 29.3514 45.3836 29.3514 45.5352C29.3514 45.6867 29.4116 45.8321 29.5188 45.9392C29.6259 46.0464 29.7713 46.1066 29.9228 46.1066H36.9171C37.0085 46.1066 37.0885 46.1066 37.1743 46.1066C37.2823 46.1394 37.3976 46.1394 37.5057 46.1066L45.1285 43.2038C45.4476 43.0734 45.8053 43.0751 46.123 43.2086C46.4408 43.342 46.6925 43.5962 46.8228 43.9152C46.9532 44.2342 46.9514 44.5919 46.818 44.9097C46.6846 45.2274 46.4304 45.4791 46.1114 45.6095V45.5752ZM39.9514 20.8723C40.1029 20.8723 40.2483 20.8121 40.3555 20.705C40.4626 20.5978 40.5228 20.4524 40.5228 20.3009C40.5228 20.1493 40.4626 20.004 40.3555 19.8968C40.2483 19.7897 40.1029 19.7295 39.9514 19.7295H37.2314V18.7523C37.2314 18.6008 37.1712 18.4554 37.064 18.3483C36.9569 18.2411 36.8115 18.1809 36.66 18.1809C36.5084 18.1809 36.3631 18.2411 36.2559 18.3483C36.1487 18.4554 36.0885 18.6008 36.0885 18.7523V19.7295H33.3628C33.2113 19.7295 33.0659 19.7897 32.9588 19.8968C32.8516 20.004 32.7914 20.1493 32.7914 20.3009V25.558C32.7914 25.7096 32.8516 25.8549 32.9588 25.9621C33.0659 26.0693 33.2113 26.1295 33.3628 26.1295H36.0885V30.238H33.3628C33.2113 30.238 33.0659 30.2982 32.9588 30.4054C32.8516 30.5126 32.7914 30.6579 32.7914 30.8095C32.7914 30.961 32.8516 31.1064 32.9588 31.2135C33.0659 31.3207 33.2113 31.3809 33.3628 31.3809H36.0885V32.4152C36.0885 32.5667 36.1487 32.7121 36.2559 32.8192C36.3631 32.9264 36.5084 32.9866 36.66 32.9866C36.8115 32.9866 36.9569 32.9264 37.064 32.8192C37.1712 32.7121 37.2314 32.5667 37.2314 32.4152V31.3809H39.9514C40.1029 31.3809 40.2483 31.3207 40.3555 31.2135C40.4626 31.1064 40.5228 30.961 40.5228 30.8095V25.558C40.5228 25.4065 40.4626 25.2611 40.3555 25.154C40.2483 25.0468 40.1029 24.9866 39.9514 24.9866H37.2314V20.8723H39.9514ZM39.38 26.1295V30.238H37.2314V26.1295H39.38ZM36.0885 24.9866H33.9343V20.8723H36.0885V24.9866ZM36.66 14.8438C34.5347 14.8426 32.4569 15.4719 30.6894 16.6519C28.9219 17.8319 27.5441 19.5096 26.7302 21.4729C25.9164 23.4361 25.7032 25.5966 26.1175 27.681C26.5319 29.7655 27.5551 31.6802 29.0579 33.183C30.5607 34.6857 32.4754 35.709 34.5598 36.1233C36.6443 36.5377 38.8048 36.3244 40.768 35.5106C42.7312 34.6968 44.409 33.319 45.589 31.5515C46.769 29.7839 47.3982 27.7061 47.3971 25.5809C47.3896 22.7366 46.2555 20.0111 44.2432 18.001C42.2309 15.9908 39.5043 14.8597 36.66 14.8552V14.8438ZM36.66 35.1809C34.761 35.182 32.9044 34.62 31.3249 33.5658C29.7455 32.5116 28.5141 31.0127 27.7866 29.2586C27.0592 27.5045 26.8682 25.5741 27.238 23.7115C27.6078 21.8489 28.5217 20.1378 29.864 18.7947C31.2064 17.4515 32.9169 16.5367 34.7793 16.1658C36.6417 15.7949 38.5722 15.9847 40.3267 16.7111C42.0812 17.4375 43.5808 18.668 44.636 20.2468C45.6911 21.8257 46.2542 23.6819 46.2542 25.5809C46.2512 28.1251 45.2396 30.5642 43.4412 32.3638C41.6427 34.1633 39.2041 35.1764 36.66 35.1809Z" fill="#941196" stroke="#941196" stroke-width="0.457143"/>
<circle cx="36.5701" cy="24.3797" r="15.2381" fill="#FFF1FF"/>
<path d="M39.4696 29.7132C39.4696 30.2783 39.302 30.8307 38.9881 31.3005C38.6741 31.7704 38.2279 32.1366 37.7058 32.3528C37.1838 32.5691 36.6093 32.6257 36.055 32.5154C35.5008 32.4052 34.9917 32.1331 34.5921 31.7335C34.1926 31.3339 33.9204 30.8248 33.8102 30.2706C33.7 29.7163 33.7565 29.1419 33.9728 28.6198C34.189 28.0977 34.5552 27.6515 35.0251 27.3375C35.495 27.0236 36.0474 26.856 36.6124 26.856C37.3702 26.856 38.0969 27.157 38.6327 27.6929C39.1686 28.2287 39.4696 28.9554 39.4696 29.7132ZM45.1839 25.1417V34.2846C45.1839 34.4361 45.1237 34.5815 45.0165 34.6887C44.9093 34.7958 44.764 34.856 44.6124 34.856H28.6124C28.4609 34.856 28.3155 34.7958 28.2084 34.6887C28.1012 34.5815 28.041 34.4361 28.041 34.2846V25.1417C28.041 24.9902 28.1012 24.8448 28.2084 24.7377C28.3155 24.6305 28.4609 24.5703 28.6124 24.5703H44.6124C44.764 24.5703 44.9093 24.6305 45.0165 24.7377C45.1237 24.8448 45.1839 24.9902 45.1839 25.1417ZM44.041 28.4525C43.3922 28.2606 42.8016 27.9095 42.3232 27.431C41.8447 26.9526 41.4936 26.362 41.3017 25.7132H31.9232C31.7313 26.362 31.3802 26.9526 30.9017 27.431C30.4233 27.9095 29.8327 28.2606 29.1839 28.4525V30.9739C29.8327 31.1657 30.4233 31.5169 30.9017 31.9953C31.3802 32.4738 31.7313 33.0643 31.9232 33.7132H41.3017C41.4936 33.0643 41.8447 32.4738 42.3232 31.9953C42.8016 31.5169 43.3922 31.1657 44.041 30.9739V28.4525Z" fill="#941196"/>
</g>
<defs>
<clipPath id="clip0_3268_21887">
<rect width="64" height="64" rx="10" fill="white"/>
</clipPath>
</defs>
</svg>
