<svg width="505" height="114" viewBox="0 0 505 114" fill="none" xmlns="http://www.w3.org/2000/svg">
<g opacity="0.2">
<path d="M76.002 2.28589L130.488 40.1217L76.002 111.166H0.394043L76.002 2.28589Z" fill="url(#paint0_linear_3824_12490)"/>
<path d="M171.228 0.875L225.714 38.7108L171.228 109.755H95.6201L171.228 0.875Z" fill="url(#paint1_linear_3824_12490)"/>
<path d="M262.836 4.34399L317.322 42.1798L262.836 113.224H187.228L262.836 4.34399Z" fill="url(#paint2_linear_3824_12490)"/>
<path d="M358.201 2.28589L412.687 40.1217L358.201 111.166H282.593L358.201 2.28589Z" fill="url(#paint3_linear_3824_12490)"/>
<path d="M449.969 0.875095L504.455 38.7109L449.969 109.755H374.361L449.969 0.875095Z" fill="url(#paint4_linear_3824_12490)"/>
</g>
<defs>
<linearGradient id="paint0_linear_3824_12490" x1="252.425" y1="0.875" x2="252.425" y2="113.224" gradientUnits="userSpaceOnUse">
<stop stop-color="#D9D9D9"/>
<stop offset="1" stop-color="#D9D9D9" stop-opacity="0.2"/>
</linearGradient>
<linearGradient id="paint1_linear_3824_12490" x1="252.425" y1="0.875" x2="252.425" y2="113.224" gradientUnits="userSpaceOnUse">
<stop stop-color="#D9D9D9"/>
<stop offset="1" stop-color="#D9D9D9" stop-opacity="0.2"/>
</linearGradient>
<linearGradient id="paint2_linear_3824_12490" x1="252.425" y1="0.875" x2="252.425" y2="113.224" gradientUnits="userSpaceOnUse">
<stop stop-color="#D9D9D9"/>
<stop offset="1" stop-color="#D9D9D9" stop-opacity="0.2"/>
</linearGradient>
<linearGradient id="paint3_linear_3824_12490" x1="252.425" y1="0.875" x2="252.425" y2="113.224" gradientUnits="userSpaceOnUse">
<stop stop-color="#D9D9D9"/>
<stop offset="1" stop-color="#D9D9D9" stop-opacity="0.2"/>
</linearGradient>
<linearGradient id="paint4_linear_3824_12490" x1="252.425" y1="0.875" x2="252.425" y2="113.224" gradientUnits="userSpaceOnUse">
<stop stop-color="#D9D9D9"/>
<stop offset="1" stop-color="#D9D9D9" stop-opacity="0.2"/>
</linearGradient>
</defs>
</svg>
