<svg width="54" height="817" viewBox="0 0 54 817" fill="none" xmlns="http://www.w3.org/2000/svg">
<rect width="816" height="54" transform="matrix(0 1 -1 0 54 0.461914)" fill="#475E00"/>
<path d="M20 33.9419H31.1V42.1019H29.34V35.9219H26.3V41.1019H24.66V35.9219H20V33.9419ZM20 43.7372H31.1V45.7172H20V43.7372ZM27.4 50.2586H20V48.2786H31.1V49.8186L23.54 56.7586H31.1V58.7586H20V57.1186L27.4 50.2586ZM20 61.3161H31.1V65.6761C31.1 66.9961 30.8467 68.0961 30.34 68.9761C29.8467 69.8695 29.18 70.5361 28.34 70.9761C27.5133 71.4295 26.5933 71.6561 25.58 71.6561C24.46 71.6561 23.48 71.4095 22.64 70.9161C21.8 70.4228 21.1467 69.7295 20.68 68.8361C20.2267 67.9428 20 66.8895 20 65.6761V61.3161ZM25.56 69.6361C26.32 69.6361 26.98 69.4761 27.54 69.1561C28.1 68.8495 28.54 68.4028 28.86 67.8161C29.18 67.2428 29.34 66.5295 29.34 65.6761V63.2961H21.76V65.6761C21.76 66.5295 21.92 67.2495 22.24 67.8361C22.5733 68.4228 23.0267 68.8695 23.6 69.1761C24.1867 69.4828 24.84 69.6361 25.56 69.6361ZM20 76.1102L31.1 81.0502V82.6702L20 87.5702V85.4702L22.88 84.1902V79.5102L20 78.2502V76.1102ZM28.66 81.8502L24.6 79.9502V83.7102L28.66 81.8502ZM25.64 92.0225C26.3067 92.0225 26.9667 92.1492 27.62 92.4025C28.2733 92.6692 28.8667 93.0492 29.4 93.5425C29.9333 94.0492 30.36 94.6625 30.68 95.3825C31 96.1159 31.16 96.9425 31.16 97.8625C31.16 98.9559 30.9333 99.8959 30.48 100.683C30.0267 101.483 29.4467 102.076 28.74 102.463L27.68 100.903C28.32 100.583 28.76 100.123 29 99.5225C29.2533 98.9359 29.38 98.3625 29.38 97.8025C29.38 97.1892 29.2667 96.6425 29.04 96.1625C28.8133 95.6959 28.52 95.3025 28.16 94.9825C27.8 94.6759 27.3933 94.4425 26.94 94.2825C26.4867 94.1225 26.0267 94.0425 25.56 94.0425C25.0533 94.0425 24.5667 94.1359 24.1 94.3225C23.6333 94.5092 23.2133 94.7692 22.84 95.1025C22.48 95.4492 22.1933 95.8492 21.98 96.3025C21.78 96.7692 21.68 97.2825 21.68 97.8425C21.68 98.2292 21.74 98.6292 21.86 99.0425C21.9933 99.4559 22.1867 99.8359 22.44 100.183C22.6933 100.529 23.0267 100.803 23.44 101.003L22.48 102.663C21.9333 102.409 21.4667 102.016 21.08 101.483C20.6933 100.949 20.4 100.356 20.2 99.7025C20 99.0492 19.9 98.4025 19.9 97.7625C19.9 96.9225 20.06 96.1492 20.38 95.4425C20.7133 94.7492 21.1533 94.1425 21.7 93.6225C22.26 93.1159 22.88 92.7225 23.56 92.4425C24.24 92.1625 24.9333 92.0225 25.64 92.0225ZM19.92 109.141C19.92 108.287 20.0733 107.507 20.38 106.801C20.7 106.094 21.1267 105.481 21.66 104.961C22.1933 104.441 22.7933 104.041 23.46 103.761C24.14 103.494 24.84 103.361 25.56 103.361C26.2933 103.361 26.9933 103.507 27.66 103.801C28.34 104.094 28.94 104.501 29.46 105.021C29.98 105.541 30.3933 106.154 30.7 106.861C31.0067 107.581 31.16 108.354 31.16 109.181C31.16 110.047 30.9933 110.834 30.66 111.541C30.34 112.247 29.9133 112.854 29.38 113.361C28.8467 113.867 28.24 114.254 27.56 114.521C26.8933 114.801 26.2133 114.941 25.52 114.941C24.7867 114.941 24.08 114.794 23.4 114.501C22.7333 114.221 22.1333 113.821 21.6 113.301C21.08 112.781 20.6667 112.167 20.36 111.461C20.0667 110.767 19.92 109.994 19.92 109.141ZM25.54 105.381C25.0467 105.381 24.5667 105.467 24.1 105.641C23.6467 105.814 23.2333 106.067 22.86 106.401C22.5 106.734 22.2133 107.134 22 107.601C21.8 108.081 21.7 108.607 21.7 109.181C21.7 109.767 21.8067 110.287 22.02 110.741C22.2467 111.207 22.5467 111.601 22.92 111.921C23.2933 112.241 23.7067 112.487 24.16 112.661C24.6133 112.834 25.08 112.921 25.56 112.921C26.0533 112.921 26.5267 112.827 26.98 112.641C27.4467 112.467 27.8533 112.214 28.2 111.881C28.56 111.561 28.8467 111.167 29.06 110.701C29.2733 110.234 29.38 109.721 29.38 109.161C29.38 108.561 29.2667 108.027 29.04 107.561C28.8267 107.094 28.5333 106.701 28.16 106.381C27.8 106.061 27.3933 105.814 26.94 105.641C26.4867 105.467 26.02 105.381 25.54 105.381ZM21.7 121.788C21.7 122.415 21.8067 122.935 22.02 123.348C22.2333 123.775 22.5133 124.108 22.86 124.348C23.22 124.588 23.62 124.761 24.06 124.868C24.5133 124.975 24.98 125.028 25.46 125.028H31.1V127.028H25.46C24.7 127.028 23.9867 126.928 23.32 126.728C22.6533 126.528 22.06 126.221 21.54 125.808C21.0333 125.395 20.6333 124.855 20.34 124.188C20.06 123.535 19.92 122.741 19.92 121.808C19.92 120.848 20.0667 120.035 20.36 119.368C20.6667 118.701 21.08 118.161 21.6 117.748C22.12 117.348 22.7133 117.055 23.38 116.868C24.0467 116.681 24.7333 116.588 25.44 116.588H31.1V118.568H25.46C24.98 118.568 24.5133 118.621 24.06 118.728C23.6067 118.848 23.2 119.028 22.84 119.268C22.4933 119.521 22.2133 119.855 22 120.268C21.8 120.681 21.7 121.188 21.7 121.788ZM20 129.415H31.1V134.755C31.1 135.501 30.9133 136.155 30.54 136.715C30.18 137.288 29.72 137.735 29.16 138.055C28.6133 138.388 28.04 138.555 27.44 138.555C26.96 138.555 26.5 138.455 26.06 138.255C25.6333 138.068 25.2533 137.795 24.92 137.435C24.6 137.088 24.3533 136.675 24.18 136.195L20 139.115V136.835L23.78 134.175V131.395H20V129.415ZM25.52 131.395V134.715C25.52 135.075 25.6067 135.388 25.78 135.655C25.9533 135.935 26.1867 136.148 26.48 136.295C26.7733 136.455 27.0933 136.535 27.44 136.535C27.8133 136.535 28.14 136.448 28.42 136.275C28.7 136.101 28.92 135.868 29.08 135.575C29.2533 135.295 29.34 134.975 29.34 134.615V131.395H25.52ZM28.3 147.774C28.46 147.601 28.6267 147.348 28.8 147.014C28.9733 146.694 29.12 146.321 29.24 145.894C29.36 145.468 29.42 145.021 29.42 144.554C29.42 143.781 29.3 143.208 29.06 142.834C28.82 142.474 28.48 142.294 28.04 142.294C27.72 142.294 27.4667 142.401 27.28 142.614C27.0933 142.828 26.9333 143.148 26.8 143.574C26.68 144.014 26.54 144.561 26.38 145.214C26.1933 146.014 25.9733 146.708 25.72 147.294C25.48 147.881 25.1533 148.334 24.74 148.654C24.34 148.974 23.8067 149.134 23.14 149.134C22.5533 149.134 22.0533 149.021 21.64 148.794C21.2267 148.568 20.8867 148.248 20.62 147.834C20.3667 147.434 20.18 146.968 20.06 146.434C19.94 145.901 19.88 145.334 19.88 144.734C19.88 143.828 20.0067 142.941 20.26 142.074C20.5133 141.221 20.8733 140.454 21.34 139.774L23.06 140.674C22.8467 140.901 22.6333 141.214 22.42 141.614C22.2067 142.028 22.0267 142.508 21.88 143.054C21.7333 143.601 21.66 144.174 21.66 144.774C21.66 145.481 21.7667 146.028 21.98 146.414C22.2067 146.801 22.5267 146.994 22.94 146.994C23.2867 146.994 23.56 146.861 23.76 146.594C23.96 146.341 24.1333 145.974 24.28 145.494C24.4267 145.014 24.58 144.434 24.74 143.754C24.94 142.968 25.16 142.314 25.4 141.794C25.6533 141.288 25.9667 140.901 26.34 140.634C26.7267 140.368 27.2133 140.234 27.8 140.234C28.5333 140.234 29.1467 140.428 29.64 140.814C30.1467 141.201 30.5267 141.721 30.78 142.374C31.0467 143.041 31.18 143.781 31.18 144.594C31.18 145.408 31.06 146.161 30.82 146.854C30.58 147.548 30.28 148.148 29.92 148.654L28.3 147.774ZM21.76 159.281H20V150.861H31.1V159.121H29.34V152.841H26.46V158.281H24.84V152.841H21.76V159.281Z" fill="white"/>
</svg>
