<svg width="64" height="55" viewBox="0 0 64 55" fill="none" xmlns="http://www.w3.org/2000/svg">
<path d="M29.5 27.082C29.5 27.6788 29.2629 28.2511 28.841 28.673C28.419 29.095 27.8467 29.332 27.25 29.332H13.75C13.1533 29.332 12.581 29.095 12.159 28.673C11.7371 28.2511 11.5 27.6788 11.5 27.082C11.5 26.4853 11.7371 25.913 12.159 25.491C12.581 25.0691 13.1533 24.832 13.75 24.832H27.25C27.8467 24.832 28.419 25.0691 28.841 25.491C29.2629 25.913 29.5 26.4853 29.5 27.082ZM27.25 15.832H13.75C13.1533 15.832 12.581 16.0691 12.159 16.491C11.7371 16.913 11.5 17.4853 11.5 18.082C11.5 18.6788 11.7371 19.2511 12.159 19.673C12.581 20.095 13.1533 20.332 13.75 20.332H27.25C27.8467 20.332 28.419 20.095 28.841 19.673C29.2629 19.2511 29.5 18.6788 29.5 18.082C29.5 17.4853 29.2629 16.913 28.841 16.491C28.419 16.0691 27.8467 15.832 27.25 15.832ZM58.75 34.2455V51.832C58.7536 52.2287 58.6522 52.6193 58.4562 52.9641C58.2602 53.309 57.9764 53.5959 57.6338 53.7958C57.2911 53.9957 56.9017 54.1014 56.5051 54.1023C56.1084 54.1031 55.7185 53.9991 55.375 53.8008L48.625 49.9364L41.875 53.8008C41.5315 53.9991 41.1416 54.1031 40.7449 54.1023C40.3482 54.1014 39.9588 53.9957 39.6162 53.7958C39.2735 53.5959 38.9898 53.309 38.7938 52.9641C38.5978 52.6193 38.4964 52.2287 38.5 51.832V45.082H4.75C3.55653 45.082 2.41193 44.6079 1.56802 43.764C0.724106 42.9201 0.25 41.7755 0.25 40.582V4.58203C0.25 3.38856 0.724106 2.24396 1.56802 1.40005C2.41193 0.556137 3.55653 0.0820313 4.75 0.0820312H54.25C55.4435 0.0820313 56.5881 0.556137 57.432 1.40005C58.2759 2.24396 58.75 3.38856 58.75 4.58203V13.1686C60.1723 14.5306 61.3042 16.1665 62.0775 17.9777C62.8507 19.7888 63.2494 21.7377 63.2494 23.707C63.2494 25.6763 62.8507 27.6253 62.0775 29.4364C61.3042 31.2476 60.1723 32.8834 58.75 34.2455ZM38.5 40.582V34.2455C36.0481 31.8808 34.4985 28.7344 34.1187 25.3493C33.7388 21.9641 34.5525 18.5526 36.4194 15.7033C38.2862 12.854 41.0891 10.7458 44.3443 9.74236C47.5996 8.73893 51.103 8.90327 54.25 10.207V4.58203H4.75V40.582H38.5ZM54.25 37.207C52.4681 37.9515 50.5562 38.3349 48.625 38.3349C46.6938 38.3349 44.7819 37.9515 43 37.207V47.9564L47.5 45.3802C47.84 45.1858 48.2249 45.0836 48.6166 45.0836C49.0082 45.0836 49.3931 45.1858 49.7331 45.3802L54.2331 47.9564L54.25 37.207ZM58.75 23.707C58.75 21.7045 58.1562 19.7469 57.0436 18.0819C55.9311 16.4168 54.3498 15.1191 52.4997 14.3527C50.6496 13.5864 48.6138 13.3859 46.6497 13.7766C44.6856 14.1673 42.8815 15.1316 41.4655 16.5476C40.0495 17.9636 39.0852 19.7677 38.6945 21.7317C38.3039 23.6958 38.5044 25.7316 39.2707 27.5817C40.0371 29.4318 41.3348 31.0131 42.9998 32.1257C44.6649 33.2382 46.6225 33.832 48.625 33.832C49.9546 33.832 51.2712 33.5701 52.4997 33.0613C53.7281 32.5525 54.8443 31.8067 55.7845 30.8665C56.7246 29.9263 57.4704 28.8101 57.9793 27.5817C58.4881 26.3533 58.75 25.0367 58.75 23.707Z" fill="#6C006D"/>
</svg>
