<svg width="55" height="59" viewBox="0 0 55 59" fill="none" xmlns="http://www.w3.org/2000/svg">
<path d="M50 4.83203H43.25V2.58203C43.25 1.98529 43.0129 1.413 42.591 0.991041C42.169 0.569084 41.5967 0.332031 41 0.332031C40.4033 0.332031 39.831 0.569084 39.409 0.991041C38.9871 1.413 38.75 1.98529 38.75 2.58203V4.83203H16.25V2.58203C16.25 1.98529 16.0129 1.413 15.591 0.991041C15.169 0.569084 14.5967 0.332031 14 0.332031C13.4033 0.332031 12.831 0.569084 12.409 0.991041C11.9871 1.413 11.75 1.98529 11.75 2.58203V4.83203H5C3.80653 4.83203 2.66193 5.30614 1.81802 6.15005C0.974106 6.99396 0.5 8.13856 0.5 9.33203V54.332C0.5 55.5255 0.974106 56.6701 1.81802 57.514C2.66193 58.3579 3.80653 58.832 5 58.832H50C51.1935 58.832 52.3381 58.3579 53.182 57.514C54.0259 56.6701 54.5 55.5255 54.5 54.332V9.33203C54.5 8.13856 54.0259 6.99396 53.182 6.15005C52.3381 5.30614 51.1935 4.83203 50 4.83203ZM11.75 9.33203V11.582C11.75 12.1788 11.9871 12.7511 12.409 13.173C12.831 13.595 13.4033 13.832 14 13.832C14.5967 13.832 15.169 13.595 15.591 13.173C16.0129 12.7511 16.25 12.1788 16.25 11.582V9.33203H38.75V11.582C38.75 12.1788 38.9871 12.7511 39.409 13.173C39.831 13.595 40.4033 13.832 41 13.832C41.5967 13.832 42.169 13.595 42.591 13.173C43.0129 12.7511 43.25 12.1788 43.25 11.582V9.33203H50V18.332H5V9.33203H11.75ZM50 54.332H5V22.832H50V54.332ZM23 29.582V47.582C23 48.1788 22.7629 48.7511 22.341 49.173C21.919 49.595 21.3467 49.832 20.75 49.832C20.1533 49.832 19.581 49.595 19.159 49.173C18.7371 48.7511 18.5 48.1788 18.5 47.582V33.2214L17.2569 33.8458C16.7228 34.1128 16.1045 34.1568 15.538 33.9679C14.9716 33.7791 14.5033 33.373 14.2362 32.8389C13.9692 32.3048 13.9253 31.6865 14.1141 31.1201C14.3029 30.5536 14.709 30.0853 15.2431 29.8183L19.7431 27.5683C20.0863 27.3966 20.4677 27.3155 20.851 27.3327C21.2343 27.3499 21.6069 27.4649 21.9333 27.6667C22.2597 27.8685 22.529 28.1504 22.7157 28.4856C22.9024 28.8209 23.0003 29.1983 23 29.582ZM39.6388 38.1461L34.25 45.332H38.75C39.3467 45.332 39.919 45.5691 40.341 45.991C40.7629 46.413 41 46.9853 41 47.582C41 48.1788 40.7629 48.7511 40.341 49.173C39.919 49.595 39.3467 49.832 38.75 49.832H29.75C29.3321 49.832 28.9225 49.7157 28.5671 49.496C28.2117 49.2763 27.9244 48.962 27.7375 48.5883C27.5507 48.2145 27.4716 47.7961 27.5091 47.38C27.5466 46.9638 27.6993 46.5663 27.95 46.232L36.0444 35.4405C36.2285 35.1954 36.3606 34.9152 36.4325 34.6172C36.5045 34.3192 36.5148 34.0097 36.4628 33.7076C36.4108 33.4055 36.2976 33.1172 36.1302 32.8604C35.9628 32.6036 35.7447 32.3837 35.4892 32.2142C35.2338 32.0447 34.9464 31.9293 34.6447 31.8749C34.343 31.8204 34.0334 31.8283 33.7348 31.8978C33.4363 31.9674 33.1551 32.0972 32.9085 32.2794C32.6619 32.4615 32.4552 32.6921 32.3009 32.957C32.1576 33.2211 31.9627 33.4537 31.728 33.6413C31.4932 33.8288 31.2233 33.9674 30.9341 34.0489C30.6449 34.1305 30.3423 34.1532 30.0442 34.1159C29.7461 34.0786 29.4584 33.9819 29.1983 33.8317C28.9381 33.6814 28.7106 33.4805 28.5294 33.2409C28.3481 33.0013 28.2166 32.7278 28.1427 32.4366C28.0688 32.1453 28.054 31.8423 28.0992 31.5452C28.1444 31.2482 28.2485 30.9632 28.4056 30.707C29.1489 29.4208 30.2956 28.4158 31.6682 27.8476C33.0407 27.2794 34.5623 27.1798 35.9972 27.5643C37.4321 27.9488 38.7 28.7959 39.6045 29.9743C40.509 31.1527 40.9995 32.5965 41 34.082C41.0048 35.5494 40.5264 36.9776 39.6388 38.1461Z" fill="#6C006D"/>
</svg>
