<svg width="55" height="57" viewBox="0 0 55 57" fill="none" xmlns="http://www.w3.org/2000/svg">
<path d="M54.1516 48.0468L44.8169 3.66558C44.6961 3.08519 44.4619 2.53439 44.1277 2.04479C43.7934 1.5552 43.3658 1.13647 42.8692 0.812665C42.3727 0.488858 41.817 0.266353 41.2342 0.157933C40.6514 0.0495134 40.0529 0.0573149 39.4731 0.18089L26.3078 3.01026C25.1433 3.26525 24.1266 3.9697 23.4787 4.97042C22.8309 5.97113 22.6044 7.18716 22.8484 8.35401L32.1831 52.7353C32.3912 53.7478 32.9414 54.6579 33.7415 55.3125C34.5415 55.9671 35.5425 56.3262 36.5763 56.3296C36.8958 56.3292 37.2144 56.2953 37.5269 56.2284L50.6922 53.399C51.8581 53.1434 52.8759 52.4376 53.5238 51.4351C54.1717 50.4327 54.3973 49.2149 54.1516 48.0468ZM27.25 7.43433C27.25 7.41745 27.25 7.40902 27.25 7.40902L40.4125 4.59652L41.3491 9.05995L28.1866 11.8921L27.25 7.43433ZM29.1119 16.2853L42.28 13.4587L43.2194 17.9306L30.0625 20.76L29.1119 16.2853ZM30.9794 25.1643L44.1475 22.3349L47.8881 40.1212L34.72 42.9506L30.9794 25.1643ZM49.75 49.0003L36.5875 51.8128L35.6509 47.3493L48.8134 44.5171L49.75 48.975C49.75 48.9918 49.75 49.0003 49.75 49.0003ZM18.25 2.32964H4.75C3.55653 2.32964 2.41193 2.80375 1.56802 3.64766C0.724106 4.49157 0.25 5.63617 0.25 6.82964V51.8296C0.25 53.0231 0.724106 54.1677 1.56802 55.0116C2.41193 55.8555 3.55653 56.3296 4.75 56.3296H18.25C19.4435 56.3296 20.5881 55.8555 21.432 55.0116C22.2759 54.1677 22.75 53.0231 22.75 51.8296V6.82964C22.75 5.63617 22.2759 4.49157 21.432 3.64766C20.5881 2.80375 19.4435 2.32964 18.25 2.32964ZM4.75 6.82964H18.25V11.3296H4.75V6.82964ZM4.75 15.8296H18.25V42.8296H4.75V15.8296ZM18.25 51.8296H4.75V47.3296H18.25V51.8296Z" fill="#6C006D"/>
</svg>
