<svg width="60" height="46" viewBox="0 0 60 46" fill="none" xmlns="http://www.w3.org/2000/svg">
<path d="M57 0.332031H3C2.40326 0.332031 1.83097 0.569085 1.40901 0.991041C0.987053 1.413 0.75 1.98529 0.75 2.58203V40.832C0.75 42.0255 1.22411 43.1701 2.06802 44.014C2.91193 44.8579 4.05653 45.332 5.25 45.332H54.75C55.9435 45.332 57.0881 44.8579 57.932 44.014C58.7759 43.1701 59.25 42.0255 59.25 40.832V2.58203C59.25 1.98529 59.0129 1.413 58.591 0.991041C58.169 0.569085 57.5967 0.332031 57 0.332031ZM5.25 18.332H16.5V27.332H5.25V18.332ZM21 18.332H54.75V27.332H21V18.332ZM54.75 4.83203V13.832H5.25V4.83203H54.75ZM5.25 31.832H16.5V40.832H5.25V31.832ZM54.75 40.832H21V31.832H54.75V40.832Z" fill="#6C006D"/>
</svg>
