<svg width="50" height="50" viewBox="0 0 50 50" fill="none" xmlns="http://www.w3.org/2000/svg">
<path d="M18.25 0.0820312H4.75C3.55653 0.0820313 2.41193 0.556137 1.56802 1.40005C0.724106 2.24396 0.25 3.38856 0.25 4.58203V18.082C0.25 19.2755 0.724106 20.4201 1.56802 21.264C2.41193 22.1079 3.55653 22.582 4.75 22.582H18.25C19.4435 22.582 20.5881 22.1079 21.432 21.264C22.2759 20.4201 22.75 19.2755 22.75 18.082V4.58203C22.75 3.38856 22.2759 2.24396 21.432 1.40005C20.5881 0.556137 19.4435 0.0820313 18.25 0.0820312ZM18.25 18.082H4.75V4.58203H18.25V18.082ZM45.25 0.0820312H31.75C30.5565 0.0820313 29.4119 0.556137 28.568 1.40005C27.7241 2.24396 27.25 3.38856 27.25 4.58203V18.082C27.25 19.2755 27.7241 20.4201 28.568 21.264C29.4119 22.1079 30.5565 22.582 31.75 22.582H45.25C46.4435 22.582 47.5881 22.1079 48.432 21.264C49.2759 20.4201 49.75 19.2755 49.75 18.082V4.58203C49.75 3.38856 49.2759 2.24396 48.432 1.40005C47.5881 0.556137 46.4435 0.0820313 45.25 0.0820312ZM45.25 18.082H31.75V4.58203H45.25V18.082ZM18.25 27.082H4.75C3.55653 27.082 2.41193 27.5561 1.56802 28.4001C0.724106 29.244 0.25 30.3886 0.25 31.582V45.082C0.25 46.2755 0.724106 47.4201 1.56802 48.264C2.41193 49.1079 3.55653 49.582 4.75 49.582H18.25C19.4435 49.582 20.5881 49.1079 21.432 48.264C22.2759 47.4201 22.75 46.2755 22.75 45.082V31.582C22.75 30.3886 22.2759 29.244 21.432 28.4001C20.5881 27.5561 19.4435 27.082 18.25 27.082ZM18.25 45.082H4.75V31.582H18.25V45.082ZM45.25 27.082H31.75C30.5565 27.082 29.4119 27.5561 28.568 28.4001C27.7241 29.244 27.25 30.3886 27.25 31.582V45.082C27.25 46.2755 27.7241 47.4201 28.568 48.264C29.4119 49.1079 30.5565 49.582 31.75 49.582H45.25C46.4435 49.582 47.5881 49.1079 48.432 48.264C49.2759 47.4201 49.75 46.2755 49.75 45.082V31.582C49.75 30.3886 49.2759 29.244 48.432 28.4001C47.5881 27.5561 46.4435 27.082 45.25 27.082ZM45.25 45.082H31.75V31.582H45.25V45.082Z" fill="#6C006D"/>
</svg>
