<svg width="55" height="57" viewBox="0 0 55 57" fill="none" xmlns="http://www.w3.org/2000/svg">
<path d="M1.37195 5.70839C1.1299 5.9182 0.935432 6.17728 0.801564 6.4683C0.667696 6.75932 0.597511 7.07556 0.595703 7.39589V54.6459C0.595703 55.2426 0.832756 55.8149 1.25471 56.2369C1.67667 56.6588 2.24897 56.8959 2.8457 56.8959C3.44244 56.8959 4.01474 56.6588 4.43669 56.2369C4.85865 55.8149 5.0957 55.2426 5.0957 54.6459V42.2062C12.6304 36.255 19.1216 39.464 26.5973 43.1653C31.2098 45.4462 36.1766 47.9043 41.5035 47.9043C45.4213 47.9043 49.5304 46.5684 53.8279 42.8418C54.0699 42.632 54.2644 42.3729 54.3983 42.0819C54.5321 41.7909 54.6023 41.4747 54.6041 41.1543V7.39589C54.6031 6.96402 54.4778 6.54157 54.2432 6.17897C54.0086 5.81637 53.6746 5.52895 53.2811 5.35103C52.8876 5.1731 52.4512 5.11218 52.024 5.17555C51.5968 5.23892 51.1969 5.42389 50.872 5.70839C42.997 12.5231 36.3257 9.2212 28.5941 5.39339C20.5841 1.42214 11.5026 -3.06942 1.37195 5.70839ZM50.0957 40.0912C42.561 46.0424 36.0698 42.8306 28.5941 39.1321C21.5629 35.6587 13.7413 31.7831 5.0957 36.7696V8.46183C12.6304 2.51058 19.1216 5.71964 26.5973 9.41808C33.6285 12.8915 41.4529 16.7671 50.0957 11.7806V40.0912Z" fill="#6C006D"/>
</svg>
