<svg width="51" height="60" viewBox="0 0 51 60" fill="none" xmlns="http://www.w3.org/2000/svg">
<path d="M49.5919 16.9902L33.8419 1.24016C33.6328 1.03128 33.3846 0.865648 33.1114 0.752725C32.8383 0.639802 32.5456 0.5818 32.25 0.582032H5.25C4.05653 0.582032 2.91193 1.05614 2.06802 1.90005C1.22411 2.74396 0.75 3.88856 0.75 5.08203V54.582C0.75 55.7755 1.22411 56.9201 2.06802 57.764C2.91193 58.6079 4.05653 59.082 5.25 59.082H45.75C46.9435 59.082 48.0881 58.6079 48.932 57.764C49.7759 56.9201 50.25 55.7755 50.25 54.582V18.582C50.2502 18.2865 50.1922 17.9938 50.0793 17.7206C49.9664 17.4475 49.8008 17.1993 49.5919 16.9902ZM34.5 8.26297L42.5691 16.332H34.5V8.26297ZM45.75 54.582H5.25V5.08203H30V18.582C30 19.1788 30.2371 19.7511 30.659 20.173C31.081 20.595 31.6533 20.832 32.25 20.832H45.75V54.582Z" fill="#6C006D"/>
</svg>
