<svg width="60" height="46" viewBox="0 0 60 46" fill="none" xmlns="http://www.w3.org/2000/svg">
<path d="M56.8145 0.152344H2.81445C2.21772 0.152344 1.64542 0.389397 1.22346 0.811354C0.801506 1.23331 0.564453 1.80561 0.564453 2.40234V40.6523C0.564453 41.8458 1.03856 42.9904 1.88247 43.8343C2.72639 44.6782 3.87098 45.1523 5.06445 45.1523H54.5645C55.7579 45.1523 56.9025 44.6782 57.7464 43.8343C58.5903 42.9904 59.0645 41.8458 59.0645 40.6523V2.40234C59.0645 1.80561 58.8274 1.23331 58.4054 0.811354C57.9835 0.389397 57.4112 0.152344 56.8145 0.152344ZM5.06445 18.1523H16.3145V27.1523H5.06445V18.1523ZM20.8145 18.1523H54.5645V27.1523H20.8145V18.1523ZM54.5645 4.65234V13.6523H5.06445V4.65234H54.5645ZM5.06445 31.6523H16.3145V40.6523H5.06445V31.6523ZM54.5645 40.6523H20.8145V31.6523H54.5645V40.6523Z" fill="#6C006D"/>
</svg>
