<svg width="64" height="57" viewBox="0 0 64 57" fill="none" xmlns="http://www.w3.org/2000/svg">
<path d="M62.5991 46.7325L38.0038 4.01909C37.3892 2.97263 36.5118 2.10496 35.4585 1.50207C34.4052 0.899191 33.2127 0.582031 31.9991 0.582031C30.7855 0.582031 29.593 0.899191 28.5397 1.50207C27.4865 2.10496 26.609 2.97263 25.9944 4.01909L1.39911 46.7325C0.807743 47.7447 0.496094 48.8959 0.496094 50.0682C0.496094 51.2404 0.807743 52.3916 1.39911 53.4038C2.00585 54.4566 2.88178 55.329 3.937 55.9315C4.99223 56.534 6.18875 56.8448 7.4038 56.8322H56.5944C57.8085 56.8438 59.0039 56.5325 60.058 55.93C61.1122 55.3276 61.9872 54.4557 62.5935 53.4038C63.1857 52.3921 63.4983 51.2412 63.4993 50.0689C63.5003 48.8967 63.1896 47.7452 62.5991 46.7325ZM58.6982 51.151C58.4838 51.5167 58.1759 51.8189 57.8063 52.0265C57.4366 52.234 57.0183 52.3396 56.5944 52.3322H7.4038C6.97989 52.3396 6.56166 52.234 6.19198 52.0265C5.82229 51.8189 5.51446 51.5167 5.30005 51.151C5.10583 50.8221 5.00338 50.4472 5.00338 50.0653C5.00338 49.6834 5.10583 49.3085 5.30005 48.9797L29.8954 6.26628C30.1141 5.90226 30.4233 5.60105 30.793 5.39194C31.1626 5.18282 31.5801 5.07292 32.0047 5.07292C32.4294 5.07292 32.8469 5.18282 33.2165 5.39194C33.5861 5.60105 33.8954 5.90226 34.1141 6.26628L58.7094 48.9797C58.9019 49.3095 59.0025 49.685 59.0005 50.0669C58.9985 50.4488 58.8941 50.8232 58.6982 51.151ZM29.7491 34.3322V23.0822C29.7491 22.4855 29.9862 21.9132 30.4081 21.4912C30.8301 21.0693 31.4024 20.8322 31.9991 20.8322C32.5959 20.8322 33.1682 21.0693 33.5901 21.4912C34.0121 21.9132 34.2491 22.4855 34.2491 23.0822V34.3322C34.2491 34.929 34.0121 35.5013 33.5901 35.9232C33.1682 36.3452 32.5959 36.5822 31.9991 36.5822C31.4024 36.5822 30.8301 36.3452 30.4081 35.9232C29.9862 35.5013 29.7491 34.929 29.7491 34.3322ZM35.3741 44.4572C35.3741 45.1247 35.1762 45.7772 34.8053 46.3323C34.4345 46.8873 33.9074 47.3199 33.2907 47.5753C32.674 47.8308 31.9954 47.8976 31.3407 47.7674C30.686 47.6371 30.0846 47.3157 29.6126 46.8437C29.1406 46.3717 28.8192 45.7703 28.689 45.1156C28.5587 44.461 28.6256 43.7824 28.881 43.1657C29.1365 42.549 29.569 42.0219 30.1241 41.651C30.6791 41.2802 31.3316 41.0822 31.9991 41.0822C32.8942 41.0822 33.7527 41.4378 34.3856 42.0707C35.0185 42.7037 35.3741 43.5621 35.3741 44.4572Z" fill="#6C006D"/>
</svg>
