<svg width="55" height="55" viewBox="0 0 55 55" fill="none" xmlns="http://www.w3.org/2000/svg">
<path d="M43.1855 23.418C43.1855 24.0147 42.9485 24.587 42.5265 25.009C42.1046 25.4309 41.5323 25.668 40.9355 25.668H22.9355C22.3388 25.668 21.7665 25.4309 21.3446 25.009C20.9226 24.587 20.6855 24.0147 20.6855 23.418C20.6855 22.8212 20.9226 22.2489 21.3446 21.827C21.7665 21.405 22.3388 21.168 22.9355 21.168H40.9355C41.5323 21.168 42.1046 21.405 42.5265 21.827C42.9485 22.2489 43.1855 22.8212 43.1855 23.418ZM40.9355 30.168H22.9355C22.3388 30.168 21.7665 30.405 21.3446 30.827C20.9226 31.2489 20.6855 31.8212 20.6855 32.418C20.6855 33.0147 20.9226 33.587 21.3446 34.009C21.7665 34.4309 22.3388 34.668 22.9355 34.668H40.9355C41.5323 34.668 42.1046 34.4309 42.5265 34.009C42.9485 33.587 43.1855 33.0147 43.1855 32.418C43.1855 31.8212 42.9485 31.2489 42.5265 30.827C42.1046 30.405 41.5323 30.168 40.9355 30.168ZM54.4355 5.41797V50.418C54.4355 51.6114 53.9614 52.756 53.1175 53.5999C52.2736 54.4439 51.129 54.918 49.9355 54.918H4.93555C3.74207 54.918 2.59748 54.4439 1.75357 53.5999C0.909652 52.756 0.435547 51.6114 0.435547 50.418V5.41797C0.435547 4.22449 0.909652 3.0799 1.75357 2.23599C2.59748 1.39207 3.74207 0.917969 4.93555 0.917969H49.9355C51.129 0.917969 52.2736 1.39207 53.1175 2.23599C53.9614 3.0799 54.4355 4.22449 54.4355 5.41797ZM4.93555 50.418H11.6855V5.41797H4.93555V50.418ZM49.9355 50.418V5.41797H16.1855V50.418H49.9355Z" fill="#6C006D"/>
</svg>
